%TF.GenerationSoftware,KiCad,Pcbnew,7.0.0*%
%TF.CreationDate,2023-02-24T19:45:49+01:00*%
%TF.ProjectId,afzuiging-pcb,61667a75-6967-4696-9e67-2d7063622e6b,0*%
%TF.SameCoordinates,Original*%
%TF.FileFunction,Copper,L2,Bot*%
%TF.FilePolarity,Positive*%
%FSLAX46Y46*%
G04 Gerber Fmt 4.6, Leading zero omitted, Abs format (unit mm)*
G04 Created by KiCad (PCBNEW 7.0.0) date 2023-02-24 19:45:49*
%MOMM*%
%LPD*%
G01*
G04 APERTURE LIST*
%TA.AperFunction,ComponentPad*%
%ADD10C,1.600000*%
%TD*%
%TA.AperFunction,ComponentPad*%
%ADD11O,1.600000X1.600000*%
%TD*%
%TA.AperFunction,ComponentPad*%
%ADD12C,2.500000*%
%TD*%
%TA.AperFunction,ComponentPad*%
%ADD13R,2.500000X2.500000*%
%TD*%
%TA.AperFunction,ComponentPad*%
%ADD14R,1.600000X1.600000*%
%TD*%
%TA.AperFunction,ComponentPad*%
%ADD15R,1.524000X1.524000*%
%TD*%
%TA.AperFunction,ComponentPad*%
%ADD16C,1.524000*%
%TD*%
%TA.AperFunction,ComponentPad*%
%ADD17R,1.905000X2.000000*%
%TD*%
%TA.AperFunction,ComponentPad*%
%ADD18O,1.905000X2.000000*%
%TD*%
%TA.AperFunction,Conductor*%
%ADD19C,0.250000*%
%TD*%
G04 APERTURE END LIST*
D10*
%TO.P,C1,1*%
%TO.N,+15V*%
X51000000Y-59000000D03*
%TO.P,C1,2*%
%TO.N,GND*%
X46000000Y-59000000D03*
%TD*%
%TO.P,R6,1*%
%TO.N,Net-(U2-IO26)*%
X54000000Y-60920000D03*
D11*
%TO.P,R6,2*%
%TO.N,Net-(U4B-+)*%
X53999999Y-71079999D03*
%TD*%
D12*
%TO.P,J1,2,Pin_2*%
%TO.N,GND*%
X31000000Y-40000000D03*
D13*
%TO.P,J1,1,Pin_1*%
%TO.N,+15V*%
X30999999Y-44999999D03*
%TD*%
D10*
%TO.P,R3,1*%
%TO.N,Net-(U2-IO25)*%
X54000000Y-58000000D03*
D11*
%TO.P,R3,2*%
%TO.N,Net-(U4A-+)*%
X53999999Y-47839999D03*
%TD*%
D13*
%TO.P,J3,1,Pin_1*%
%TO.N,Net-(J3-Pin_1)*%
X30999999Y-69499999D03*
D12*
%TO.P,J3,2,Pin_2*%
%TO.N,GND*%
X31000000Y-64500000D03*
%TD*%
D10*
%TO.P,R4,1*%
%TO.N,Net-(U4B--)*%
X49820000Y-78000000D03*
D11*
%TO.P,R4,2*%
%TO.N,GND*%
X39659999Y-77999999D03*
%TD*%
D10*
%TO.P,R1,1*%
%TO.N,Net-(U4A--)*%
X39920000Y-48000000D03*
D11*
%TO.P,R1,2*%
%TO.N,GND*%
X50079999Y-47999999D03*
%TD*%
D14*
%TO.P,U4,1*%
%TO.N,Net-(J2-Pin_1)*%
X41199999Y-64379999D03*
D11*
%TO.P,U4,2,-*%
%TO.N,Net-(U4A--)*%
X41199999Y-66919999D03*
%TO.P,U4,3,+*%
%TO.N,Net-(U4A-+)*%
X41199999Y-69459999D03*
%TO.P,U4,4,V-*%
%TO.N,GND*%
X41199999Y-71999999D03*
%TO.P,U4,5,+*%
%TO.N,Net-(U4B-+)*%
X48819999Y-71999999D03*
%TO.P,U4,6,-*%
%TO.N,Net-(U4B--)*%
X48819999Y-69459999D03*
%TO.P,U4,7*%
%TO.N,Net-(J3-Pin_1)*%
X48819999Y-66919999D03*
%TO.P,U4,8,V+*%
%TO.N,+15V*%
X48819999Y-64379999D03*
%TD*%
D10*
%TO.P,C2,1*%
%TO.N,+15V*%
X38000000Y-44500000D03*
%TO.P,C2,2*%
%TO.N,GND*%
X38000000Y-39500000D03*
%TD*%
D13*
%TO.P,J2,1,Pin_1*%
%TO.N,Net-(J2-Pin_1)*%
X30999999Y-57499999D03*
D12*
%TO.P,J2,2,Pin_2*%
%TO.N,GND*%
X31000000Y-52500000D03*
%TD*%
D15*
%TO.P,U2,1,EN*%
%TO.N,unconnected-(U2-EN-Pad1)*%
X58299999Y-36059999D03*
D16*
%TO.P,U2,2,SENSOR_VP*%
%TO.N,unconnected-(U2-SENSOR_VP-Pad2)*%
X58300000Y-38600000D03*
%TO.P,U2,3,SENSOR_VN*%
%TO.N,unconnected-(U2-SENSOR_VN-Pad3)*%
X58300000Y-41140000D03*
%TO.P,U2,4,IO34*%
%TO.N,unconnected-(U2-IO34-Pad4)*%
X58300000Y-43680000D03*
%TO.P,U2,5,IO35*%
%TO.N,unconnected-(U2-IO35-Pad5)*%
X58300000Y-46220000D03*
%TO.P,U2,6,IO32*%
%TO.N,unconnected-(U2-IO32-Pad6)*%
X58300000Y-48760000D03*
%TO.P,U2,7,IO33*%
%TO.N,unconnected-(U2-IO33-Pad7)*%
X58300000Y-51300000D03*
%TO.P,U2,8,IO25*%
%TO.N,Net-(U2-IO25)*%
X58300000Y-53840000D03*
%TO.P,U2,9,IO26*%
%TO.N,Net-(U2-IO26)*%
X58300000Y-56380000D03*
%TO.P,U2,10,IO27*%
%TO.N,unconnected-(U2-IO27-Pad10)*%
X58300000Y-58920000D03*
%TO.P,U2,11,IO14*%
%TO.N,unconnected-(U2-IO14-Pad11)*%
X58300000Y-61460000D03*
%TO.P,U2,12,IO12*%
%TO.N,unconnected-(U2-IO12-Pad12)*%
X58300000Y-64000000D03*
%TO.P,U2,13,IO13*%
%TO.N,unconnected-(U2-IO13-Pad13)*%
X58300000Y-66540000D03*
%TO.P,U2,14,GND*%
%TO.N,GND*%
X58300000Y-69080000D03*
%TO.P,U2,15,VIN*%
%TO.N,+5V*%
X58300000Y-71620000D03*
%TO.P,U2,16,3V3*%
%TO.N,unconnected-(U2-3V3-Pad16)*%
X83700000Y-71620000D03*
%TO.P,U2,17,GND*%
%TO.N,GND*%
X83700000Y-69080000D03*
%TO.P,U2,18,IO15*%
%TO.N,unconnected-(U2-IO15-Pad18)*%
X83700000Y-66540000D03*
%TO.P,U2,19,IO2*%
%TO.N,unconnected-(U2-IO2-Pad19)*%
X83700000Y-64000000D03*
%TO.P,U2,20,IO4*%
%TO.N,unconnected-(U2-IO4-Pad20)*%
X83700000Y-61460000D03*
%TO.P,U2,21,IO16*%
%TO.N,unconnected-(U2-IO16-Pad21)*%
X83700000Y-58920000D03*
%TO.P,U2,22,IO17*%
%TO.N,unconnected-(U2-IO17-Pad22)*%
X83700000Y-56380000D03*
%TO.P,U2,23,IO5*%
%TO.N,unconnected-(U2-IO5-Pad23)*%
X83700000Y-53840000D03*
%TO.P,U2,24,IO18*%
%TO.N,unconnected-(U2-IO18-Pad24)*%
X83700000Y-51300000D03*
%TO.P,U2,25,IO19*%
%TO.N,unconnected-(U2-IO19-Pad25)*%
X83700000Y-48760000D03*
%TO.P,U2,26,IO21*%
%TO.N,unconnected-(U2-IO21-Pad26)*%
X83700000Y-46220000D03*
%TO.P,U2,27,RXD0/IO3*%
%TO.N,unconnected-(U2-RXD0{slash}IO3-Pad27)*%
X83700000Y-43680000D03*
%TO.P,U2,28,TXD0/IO1*%
%TO.N,unconnected-(U2-TXD0{slash}IO1-Pad28)*%
X83700000Y-41140000D03*
%TO.P,U2,29,IO22*%
%TO.N,unconnected-(U2-IO22-Pad29)*%
X83700000Y-38600000D03*
%TO.P,U2,30,IO23*%
%TO.N,unconnected-(U2-IO23-Pad30)*%
X83700000Y-36060000D03*
%TD*%
D10*
%TO.P,R2,1*%
%TO.N,Net-(J2-Pin_1)*%
X50000000Y-54000000D03*
D11*
%TO.P,R2,2*%
%TO.N,Net-(U4A--)*%
X39839999Y-53999999D03*
%TD*%
D10*
%TO.P,C3,2*%
%TO.N,GND*%
X52000000Y-39500000D03*
%TO.P,C3,1*%
%TO.N,+5V*%
X52000000Y-44500000D03*
%TD*%
D17*
%TO.P,U3,1,IN*%
%TO.N,+15V*%
X42459999Y-42049999D03*
D18*
%TO.P,U3,2,GND*%
%TO.N,GND*%
X44999999Y-42049999D03*
%TO.P,U3,3,OUT*%
%TO.N,+5V*%
X47539999Y-42049999D03*
%TD*%
D10*
%TO.P,R5,1*%
%TO.N,Net-(J3-Pin_1)*%
X39740000Y-84000000D03*
D11*
%TO.P,R5,2*%
%TO.N,Net-(U4B--)*%
X49899999Y-83999999D03*
%TD*%
D19*
%TO.N,GND*%
X50080000Y-48000000D02*
X45000000Y-42920000D01*
X45000000Y-42920000D02*
X45000000Y-42050000D01*
X45500000Y-39500000D02*
X45000000Y-40000000D01*
X52000000Y-39500000D02*
X45500000Y-39500000D01*
X44500000Y-39500000D02*
X45000000Y-40000000D01*
X38000000Y-39500000D02*
X44500000Y-39500000D01*
X45000000Y-40000000D02*
X45000000Y-42050000D01*
X35000000Y-44000000D02*
X38000000Y-41000000D01*
X38000000Y-41000000D02*
X38000000Y-39500000D01*
X31000000Y-52500000D02*
X35000000Y-48500000D01*
X35000000Y-48500000D02*
X35000000Y-44000000D01*
X35000000Y-44000000D02*
X31000000Y-40000000D01*
X58300000Y-69080000D02*
X83700000Y-69080000D01*
X46000000Y-59000000D02*
X48220000Y-59000000D01*
X48220000Y-59000000D02*
X58300000Y-69080000D01*
X35000000Y-60500000D02*
X36500000Y-59000000D01*
X36500000Y-59000000D02*
X46000000Y-59000000D01*
X31000000Y-64500000D02*
X35000000Y-60500000D01*
X35000000Y-60500000D02*
X35000000Y-56500000D01*
X35000000Y-56500000D02*
X31000000Y-52500000D01*
X31000000Y-64500000D02*
X38500000Y-72000000D01*
X38500000Y-72000000D02*
X40000000Y-72000000D01*
X41200000Y-72000000D02*
X40000000Y-72000000D01*
X39660000Y-72340000D02*
X39660000Y-78000000D01*
X40000000Y-72000000D02*
X39660000Y-72340000D01*
%TD*%
%TA.AperFunction,Conductor*%
%TO.N,GND*%
G36*
X93937500Y-20017113D02*
G01*
X93982887Y-20062500D01*
X93999500Y-20124500D01*
X93999500Y-89875500D01*
X93982887Y-89937500D01*
X93937500Y-89982887D01*
X93875500Y-89999500D01*
X24124500Y-89999500D01*
X24062500Y-89982887D01*
X24017113Y-89937500D01*
X24000500Y-89875500D01*
X24000500Y-82922902D01*
X29595794Y-82922902D01*
X29595921Y-82926868D01*
X29595921Y-82926874D01*
X29603567Y-83165296D01*
X29605673Y-83230978D01*
X29654867Y-83535261D01*
X29661834Y-83558736D01*
X29725518Y-83773308D01*
X29742569Y-83830756D01*
X29744178Y-83834391D01*
X29744180Y-83834396D01*
X29865725Y-84108969D01*
X29865729Y-84108977D01*
X29867337Y-84112609D01*
X29869393Y-84116002D01*
X29869397Y-84116008D01*
X29948783Y-84246963D01*
X30027123Y-84376193D01*
X30219304Y-84617181D01*
X30440724Y-84831614D01*
X30443905Y-84833988D01*
X30566088Y-84925176D01*
X30687747Y-85015972D01*
X30691213Y-85017924D01*
X30895288Y-85132857D01*
X30956318Y-85167228D01*
X30960002Y-85168719D01*
X30960001Y-85168719D01*
X31238339Y-85281407D01*
X31238343Y-85281408D01*
X31242025Y-85282899D01*
X31540179Y-85361084D01*
X31845883Y-85400500D01*
X32074990Y-85400500D01*
X32076974Y-85400500D01*
X32307601Y-85385693D01*
X32610151Y-85326772D01*
X32902683Y-85229644D01*
X33180393Y-85095907D01*
X33438720Y-84927754D01*
X33673424Y-84727948D01*
X33880650Y-84499769D01*
X34056996Y-84246963D01*
X34185837Y-84000000D01*
X38434532Y-84000000D01*
X38435004Y-84005395D01*
X38444065Y-84108969D01*
X38454365Y-84226692D01*
X38455762Y-84231907D01*
X38455764Y-84231916D01*
X38511858Y-84441263D01*
X38511861Y-84441271D01*
X38513261Y-84446496D01*
X38609432Y-84652734D01*
X38739953Y-84839139D01*
X38900861Y-85000047D01*
X39087266Y-85130568D01*
X39293504Y-85226739D01*
X39298734Y-85228140D01*
X39298736Y-85228141D01*
X39309022Y-85230897D01*
X39513308Y-85285635D01*
X39740000Y-85305468D01*
X39966692Y-85285635D01*
X40186496Y-85226739D01*
X40392734Y-85130568D01*
X40579139Y-85000047D01*
X40740047Y-84839139D01*
X40870568Y-84652734D01*
X40966739Y-84446496D01*
X41025635Y-84226692D01*
X41045468Y-84000000D01*
X48594532Y-84000000D01*
X48595004Y-84005395D01*
X48604065Y-84108969D01*
X48614365Y-84226692D01*
X48615762Y-84231907D01*
X48615764Y-84231916D01*
X48671858Y-84441263D01*
X48671861Y-84441271D01*
X48673261Y-84446496D01*
X48769432Y-84652734D01*
X48899953Y-84839139D01*
X49060861Y-85000047D01*
X49247266Y-85130568D01*
X49453504Y-85226739D01*
X49458734Y-85228140D01*
X49458736Y-85228141D01*
X49469022Y-85230897D01*
X49673308Y-85285635D01*
X49900000Y-85305468D01*
X50126692Y-85285635D01*
X50346496Y-85226739D01*
X50552734Y-85130568D01*
X50739139Y-85000047D01*
X50900047Y-84839139D01*
X51030568Y-84652734D01*
X51126739Y-84446496D01*
X51185635Y-84226692D01*
X51205468Y-84000000D01*
X51185635Y-83773308D01*
X51126739Y-83553504D01*
X51030568Y-83347266D01*
X50900047Y-83160861D01*
X50739139Y-82999953D01*
X50677224Y-82956600D01*
X50629098Y-82922902D01*
X84595794Y-82922902D01*
X84595921Y-82926868D01*
X84595921Y-82926874D01*
X84603567Y-83165296D01*
X84605673Y-83230978D01*
X84654867Y-83535261D01*
X84661834Y-83558736D01*
X84725518Y-83773308D01*
X84742569Y-83830756D01*
X84744178Y-83834391D01*
X84744180Y-83834396D01*
X84865725Y-84108969D01*
X84865729Y-84108977D01*
X84867337Y-84112609D01*
X84869393Y-84116002D01*
X84869397Y-84116008D01*
X84948783Y-84246963D01*
X85027123Y-84376193D01*
X85219304Y-84617181D01*
X85440724Y-84831614D01*
X85443905Y-84833988D01*
X85566088Y-84925176D01*
X85687747Y-85015972D01*
X85691213Y-85017924D01*
X85895288Y-85132857D01*
X85956318Y-85167228D01*
X85960002Y-85168719D01*
X85960001Y-85168719D01*
X86238339Y-85281407D01*
X86238343Y-85281408D01*
X86242025Y-85282899D01*
X86540179Y-85361084D01*
X86845883Y-85400500D01*
X87074990Y-85400500D01*
X87076974Y-85400500D01*
X87307601Y-85385693D01*
X87610151Y-85326772D01*
X87902683Y-85229644D01*
X88180393Y-85095907D01*
X88438720Y-84927754D01*
X88673424Y-84727948D01*
X88880650Y-84499769D01*
X89056996Y-84246963D01*
X89199567Y-83973683D01*
X89306020Y-83684415D01*
X89374609Y-83383908D01*
X89404206Y-83077098D01*
X89394327Y-82769022D01*
X89345133Y-82464739D01*
X89257431Y-82169244D01*
X89132663Y-81887391D01*
X88972877Y-81623807D01*
X88780696Y-81382819D01*
X88559276Y-81168386D01*
X88556094Y-81166011D01*
X88315444Y-80986409D01*
X88315438Y-80986405D01*
X88312253Y-80984028D01*
X88308790Y-80982078D01*
X88308786Y-80982075D01*
X88047142Y-80834720D01*
X88047134Y-80834716D01*
X88043682Y-80832772D01*
X88040004Y-80831283D01*
X88039998Y-80831280D01*
X87761660Y-80718592D01*
X87761647Y-80718587D01*
X87757975Y-80717101D01*
X87754135Y-80716094D01*
X87754129Y-80716092D01*
X87463664Y-80639923D01*
X87463652Y-80639920D01*
X87459821Y-80638916D01*
X87455884Y-80638408D01*
X87455877Y-80638407D01*
X87158055Y-80600007D01*
X87158043Y-80600006D01*
X87154117Y-80599500D01*
X86923026Y-80599500D01*
X86921053Y-80599626D01*
X86921042Y-80599627D01*
X86696376Y-80614051D01*
X86696365Y-80614052D01*
X86692399Y-80614307D01*
X86688488Y-80615068D01*
X86688485Y-80615069D01*
X86393758Y-80672466D01*
X86393747Y-80672468D01*
X86389849Y-80673228D01*
X86386079Y-80674479D01*
X86386074Y-80674481D01*
X86101093Y-80769102D01*
X86101089Y-80769103D01*
X86097317Y-80770356D01*
X86093737Y-80772079D01*
X86093727Y-80772084D01*
X85823200Y-80902362D01*
X85823191Y-80902366D01*
X85819607Y-80904093D01*
X85816278Y-80906259D01*
X85816269Y-80906265D01*
X85564606Y-81070080D01*
X85564595Y-81070087D01*
X85561280Y-81072246D01*
X85558259Y-81074817D01*
X85558252Y-81074823D01*
X85329609Y-81269469D01*
X85329600Y-81269477D01*
X85326576Y-81272052D01*
X85323910Y-81274986D01*
X85323896Y-81275001D01*
X85122030Y-81497279D01*
X85122023Y-81497287D01*
X85119350Y-81500231D01*
X85117074Y-81503493D01*
X85117069Y-81503500D01*
X84945280Y-81749773D01*
X84945274Y-81749781D01*
X84943004Y-81753037D01*
X84941171Y-81756550D01*
X84941164Y-81756562D01*
X84802272Y-82022791D01*
X84802269Y-82022797D01*
X84800433Y-82026317D01*
X84799064Y-82030035D01*
X84799059Y-82030048D01*
X84695352Y-82311856D01*
X84693980Y-82315585D01*
X84693098Y-82319449D01*
X84693096Y-82319456D01*
X84626277Y-82612209D01*
X84625391Y-82616092D01*
X84625009Y-82620044D01*
X84625008Y-82620055D01*
X84601173Y-82867142D01*
X84595794Y-82922902D01*
X50629098Y-82922902D01*
X50557173Y-82872540D01*
X50557171Y-82872539D01*
X50552734Y-82869432D01*
X50346496Y-82773261D01*
X50341271Y-82771861D01*
X50341263Y-82771858D01*
X50131916Y-82715764D01*
X50131907Y-82715762D01*
X50126692Y-82714365D01*
X50121304Y-82713893D01*
X50121301Y-82713893D01*
X49905395Y-82695004D01*
X49900000Y-82694532D01*
X49894605Y-82695004D01*
X49678698Y-82713893D01*
X49678693Y-82713893D01*
X49673308Y-82714365D01*
X49668094Y-82715762D01*
X49668083Y-82715764D01*
X49458736Y-82771858D01*
X49458724Y-82771862D01*
X49453504Y-82773261D01*
X49448599Y-82775547D01*
X49448594Y-82775550D01*
X49252176Y-82867142D01*
X49252172Y-82867144D01*
X49247266Y-82869432D01*
X49242833Y-82872535D01*
X49242826Y-82872540D01*
X49065296Y-82996847D01*
X49065291Y-82996850D01*
X49060861Y-82999953D01*
X49057037Y-83003776D01*
X49057031Y-83003782D01*
X48903782Y-83157031D01*
X48903776Y-83157037D01*
X48899953Y-83160861D01*
X48896850Y-83165291D01*
X48896847Y-83165296D01*
X48772540Y-83342826D01*
X48772535Y-83342833D01*
X48769432Y-83347266D01*
X48767144Y-83352172D01*
X48767142Y-83352176D01*
X48675550Y-83548594D01*
X48675547Y-83548599D01*
X48673261Y-83553504D01*
X48671862Y-83558724D01*
X48671858Y-83558736D01*
X48615764Y-83768083D01*
X48615762Y-83768094D01*
X48614365Y-83773308D01*
X48613893Y-83778693D01*
X48613893Y-83778698D01*
X48609339Y-83830756D01*
X48594532Y-84000000D01*
X41045468Y-84000000D01*
X41025635Y-83773308D01*
X40966739Y-83553504D01*
X40870568Y-83347266D01*
X40740047Y-83160861D01*
X40579139Y-82999953D01*
X40517224Y-82956600D01*
X40397173Y-82872540D01*
X40397171Y-82872539D01*
X40392734Y-82869432D01*
X40186496Y-82773261D01*
X40181271Y-82771861D01*
X40181263Y-82771858D01*
X39971916Y-82715764D01*
X39971907Y-82715762D01*
X39966692Y-82714365D01*
X39961304Y-82713893D01*
X39961301Y-82713893D01*
X39745395Y-82695004D01*
X39740000Y-82694532D01*
X39734605Y-82695004D01*
X39518698Y-82713893D01*
X39518693Y-82713893D01*
X39513308Y-82714365D01*
X39508094Y-82715762D01*
X39508083Y-82715764D01*
X39298736Y-82771858D01*
X39298724Y-82771862D01*
X39293504Y-82773261D01*
X39288599Y-82775547D01*
X39288594Y-82775550D01*
X39092176Y-82867142D01*
X39092172Y-82867144D01*
X39087266Y-82869432D01*
X39082833Y-82872535D01*
X39082826Y-82872540D01*
X38905296Y-82996847D01*
X38905291Y-82996850D01*
X38900861Y-82999953D01*
X38897037Y-83003776D01*
X38897031Y-83003782D01*
X38743782Y-83157031D01*
X38743776Y-83157037D01*
X38739953Y-83160861D01*
X38736850Y-83165291D01*
X38736847Y-83165296D01*
X38612540Y-83342826D01*
X38612535Y-83342833D01*
X38609432Y-83347266D01*
X38607144Y-83352172D01*
X38607142Y-83352176D01*
X38515550Y-83548594D01*
X38515547Y-83548599D01*
X38513261Y-83553504D01*
X38511862Y-83558724D01*
X38511858Y-83558736D01*
X38455764Y-83768083D01*
X38455762Y-83768094D01*
X38454365Y-83773308D01*
X38453893Y-83778693D01*
X38453893Y-83778698D01*
X38449339Y-83830756D01*
X38434532Y-84000000D01*
X34185837Y-84000000D01*
X34199567Y-83973683D01*
X34306020Y-83684415D01*
X34374609Y-83383908D01*
X34404206Y-83077098D01*
X34394327Y-82769022D01*
X34345133Y-82464739D01*
X34257431Y-82169244D01*
X34132663Y-81887391D01*
X33972877Y-81623807D01*
X33780696Y-81382819D01*
X33559276Y-81168386D01*
X33556094Y-81166011D01*
X33315444Y-80986409D01*
X33315438Y-80986405D01*
X33312253Y-80984028D01*
X33308790Y-80982078D01*
X33308786Y-80982075D01*
X33047142Y-80834720D01*
X33047134Y-80834716D01*
X33043682Y-80832772D01*
X33040004Y-80831283D01*
X33039998Y-80831280D01*
X32761660Y-80718592D01*
X32761647Y-80718587D01*
X32757975Y-80717101D01*
X32754135Y-80716094D01*
X32754129Y-80716092D01*
X32463664Y-80639923D01*
X32463652Y-80639920D01*
X32459821Y-80638916D01*
X32455884Y-80638408D01*
X32455877Y-80638407D01*
X32158055Y-80600007D01*
X32158043Y-80600006D01*
X32154117Y-80599500D01*
X31923026Y-80599500D01*
X31921053Y-80599626D01*
X31921042Y-80599627D01*
X31696376Y-80614051D01*
X31696365Y-80614052D01*
X31692399Y-80614307D01*
X31688488Y-80615068D01*
X31688485Y-80615069D01*
X31393758Y-80672466D01*
X31393747Y-80672468D01*
X31389849Y-80673228D01*
X31386079Y-80674479D01*
X31386074Y-80674481D01*
X31101093Y-80769102D01*
X31101089Y-80769103D01*
X31097317Y-80770356D01*
X31093737Y-80772079D01*
X31093727Y-80772084D01*
X30823200Y-80902362D01*
X30823191Y-80902366D01*
X30819607Y-80904093D01*
X30816278Y-80906259D01*
X30816269Y-80906265D01*
X30564606Y-81070080D01*
X30564595Y-81070087D01*
X30561280Y-81072246D01*
X30558259Y-81074817D01*
X30558252Y-81074823D01*
X30329609Y-81269469D01*
X30329600Y-81269477D01*
X30326576Y-81272052D01*
X30323910Y-81274986D01*
X30323896Y-81275001D01*
X30122030Y-81497279D01*
X30122023Y-81497287D01*
X30119350Y-81500231D01*
X30117074Y-81503493D01*
X30117069Y-81503500D01*
X29945280Y-81749773D01*
X29945274Y-81749781D01*
X29943004Y-81753037D01*
X29941171Y-81756550D01*
X29941164Y-81756562D01*
X29802272Y-82022791D01*
X29802269Y-82022797D01*
X29800433Y-82026317D01*
X29799064Y-82030035D01*
X29799059Y-82030048D01*
X29695352Y-82311856D01*
X29693980Y-82315585D01*
X29693098Y-82319449D01*
X29693096Y-82319456D01*
X29626277Y-82612209D01*
X29625391Y-82616092D01*
X29625009Y-82620044D01*
X29625008Y-82620055D01*
X29601173Y-82867142D01*
X29595794Y-82922902D01*
X24000500Y-82922902D01*
X24000500Y-78252551D01*
X38384452Y-78252551D01*
X38384820Y-78263780D01*
X38432330Y-78441092D01*
X38436022Y-78451234D01*
X38527579Y-78647580D01*
X38532967Y-78656912D01*
X38657232Y-78834381D01*
X38664169Y-78842647D01*
X38817352Y-78995830D01*
X38825618Y-79002767D01*
X39003087Y-79127032D01*
X39012419Y-79132420D01*
X39208765Y-79223977D01*
X39218907Y-79227669D01*
X39396219Y-79275179D01*
X39407448Y-79275547D01*
X39410000Y-79264605D01*
X39910000Y-79264605D01*
X39912551Y-79275547D01*
X39923780Y-79275179D01*
X40101092Y-79227669D01*
X40111234Y-79223977D01*
X40307580Y-79132420D01*
X40316912Y-79127032D01*
X40494381Y-79002767D01*
X40502647Y-78995830D01*
X40655830Y-78842647D01*
X40662767Y-78834381D01*
X40787032Y-78656912D01*
X40792420Y-78647580D01*
X40883977Y-78451234D01*
X40887669Y-78441092D01*
X40935179Y-78263780D01*
X40935547Y-78252551D01*
X40924605Y-78250000D01*
X39926326Y-78250000D01*
X39913450Y-78253450D01*
X39910000Y-78266326D01*
X39910000Y-79264605D01*
X39410000Y-79264605D01*
X39410000Y-78266326D01*
X39406549Y-78253450D01*
X39393674Y-78250000D01*
X38395395Y-78250000D01*
X38384452Y-78252551D01*
X24000500Y-78252551D01*
X24000500Y-78000000D01*
X48514532Y-78000000D01*
X48534365Y-78226692D01*
X48535762Y-78231907D01*
X48535764Y-78231916D01*
X48591858Y-78441263D01*
X48591861Y-78441271D01*
X48593261Y-78446496D01*
X48689432Y-78652734D01*
X48819953Y-78839139D01*
X48980861Y-79000047D01*
X49167266Y-79130568D01*
X49373504Y-79226739D01*
X49378734Y-79228140D01*
X49378736Y-79228141D01*
X49554285Y-79275179D01*
X49593308Y-79285635D01*
X49820000Y-79305468D01*
X50046692Y-79285635D01*
X50266496Y-79226739D01*
X50472734Y-79130568D01*
X50659139Y-79000047D01*
X50820047Y-78839139D01*
X50950568Y-78652734D01*
X51046739Y-78446496D01*
X51105635Y-78226692D01*
X51125468Y-78000000D01*
X51105635Y-77773308D01*
X51046739Y-77553504D01*
X50950568Y-77347266D01*
X50820047Y-77160861D01*
X50659139Y-76999953D01*
X50472734Y-76869432D01*
X50266496Y-76773261D01*
X50261271Y-76771861D01*
X50261263Y-76771858D01*
X50051916Y-76715764D01*
X50051907Y-76715762D01*
X50046692Y-76714365D01*
X50041304Y-76713893D01*
X50041301Y-76713893D01*
X49825395Y-76695004D01*
X49820000Y-76694532D01*
X49814605Y-76695004D01*
X49598698Y-76713893D01*
X49598693Y-76713893D01*
X49593308Y-76714365D01*
X49588094Y-76715762D01*
X49588083Y-76715764D01*
X49378736Y-76771858D01*
X49378724Y-76771862D01*
X49373504Y-76773261D01*
X49368599Y-76775547D01*
X49368594Y-76775550D01*
X49172176Y-76867142D01*
X49172172Y-76867144D01*
X49167266Y-76869432D01*
X49162833Y-76872535D01*
X49162826Y-76872540D01*
X48985296Y-76996847D01*
X48985291Y-76996850D01*
X48980861Y-76999953D01*
X48977037Y-77003776D01*
X48977031Y-77003782D01*
X48823782Y-77157031D01*
X48823776Y-77157037D01*
X48819953Y-77160861D01*
X48816850Y-77165291D01*
X48816847Y-77165296D01*
X48692540Y-77342826D01*
X48692535Y-77342833D01*
X48689432Y-77347266D01*
X48687144Y-77352172D01*
X48687142Y-77352176D01*
X48595550Y-77548594D01*
X48595547Y-77548599D01*
X48593261Y-77553504D01*
X48591862Y-77558724D01*
X48591858Y-77558736D01*
X48535764Y-77768083D01*
X48535762Y-77768094D01*
X48534365Y-77773308D01*
X48514532Y-78000000D01*
X24000500Y-78000000D01*
X24000500Y-77747448D01*
X38384452Y-77747448D01*
X38395395Y-77750000D01*
X39393674Y-77750000D01*
X39406549Y-77746549D01*
X39410000Y-77733674D01*
X39910000Y-77733674D01*
X39913450Y-77746549D01*
X39926326Y-77750000D01*
X40924605Y-77750000D01*
X40935547Y-77747448D01*
X40935179Y-77736219D01*
X40887669Y-77558907D01*
X40883977Y-77548765D01*
X40792420Y-77352419D01*
X40787032Y-77343087D01*
X40662767Y-77165618D01*
X40655830Y-77157352D01*
X40502647Y-77004169D01*
X40494381Y-76997232D01*
X40316912Y-76872967D01*
X40307580Y-76867579D01*
X40111234Y-76776022D01*
X40101092Y-76772330D01*
X39923780Y-76724820D01*
X39912551Y-76724452D01*
X39910000Y-76735395D01*
X39910000Y-77733674D01*
X39410000Y-77733674D01*
X39410000Y-76735395D01*
X39407448Y-76724452D01*
X39396219Y-76724820D01*
X39218907Y-76772330D01*
X39208765Y-76776022D01*
X39012419Y-76867579D01*
X39003087Y-76872967D01*
X38825618Y-76997232D01*
X38817352Y-77004169D01*
X38664169Y-77157352D01*
X38657232Y-77165618D01*
X38532967Y-77343087D01*
X38527579Y-77352419D01*
X38436022Y-77548765D01*
X38432330Y-77558907D01*
X38384820Y-77736219D01*
X38384452Y-77747448D01*
X24000500Y-77747448D01*
X24000500Y-72252551D01*
X39924452Y-72252551D01*
X39924820Y-72263780D01*
X39972330Y-72441092D01*
X39976022Y-72451234D01*
X40067579Y-72647580D01*
X40072967Y-72656912D01*
X40197232Y-72834381D01*
X40204169Y-72842647D01*
X40357352Y-72995830D01*
X40365618Y-73002767D01*
X40543087Y-73127032D01*
X40552419Y-73132420D01*
X40748765Y-73223977D01*
X40758907Y-73227669D01*
X40936219Y-73275179D01*
X40947448Y-73275547D01*
X40950000Y-73264605D01*
X41450000Y-73264605D01*
X41452551Y-73275547D01*
X41463780Y-73275179D01*
X41641092Y-73227669D01*
X41651234Y-73223977D01*
X41847580Y-73132420D01*
X41856912Y-73127032D01*
X42034381Y-73002767D01*
X42042647Y-72995830D01*
X42195830Y-72842647D01*
X42202767Y-72834381D01*
X42327032Y-72656912D01*
X42332420Y-72647580D01*
X42423977Y-72451234D01*
X42427669Y-72441092D01*
X42475179Y-72263780D01*
X42475547Y-72252551D01*
X42464605Y-72250000D01*
X41466326Y-72250000D01*
X41453450Y-72253450D01*
X41450000Y-72266326D01*
X41450000Y-73264605D01*
X40950000Y-73264605D01*
X40950000Y-72266326D01*
X40946549Y-72253450D01*
X40933674Y-72250000D01*
X39935395Y-72250000D01*
X39924452Y-72252551D01*
X24000500Y-72252551D01*
X24000500Y-72000000D01*
X47514532Y-72000000D01*
X47515004Y-72005395D01*
X47533154Y-72212857D01*
X47534365Y-72226692D01*
X47535762Y-72231907D01*
X47535764Y-72231916D01*
X47591858Y-72441263D01*
X47591861Y-72441271D01*
X47593261Y-72446496D01*
X47689432Y-72652734D01*
X47819953Y-72839139D01*
X47980861Y-73000047D01*
X48167266Y-73130568D01*
X48373504Y-73226739D01*
X48378734Y-73228140D01*
X48378736Y-73228141D01*
X48554285Y-73275179D01*
X48593308Y-73285635D01*
X48820000Y-73305468D01*
X49046692Y-73285635D01*
X49266496Y-73226739D01*
X49472734Y-73130568D01*
X49659139Y-73000047D01*
X49820047Y-72839139D01*
X49950568Y-72652734D01*
X50046739Y-72446496D01*
X50105635Y-72226692D01*
X50125468Y-72000000D01*
X50105635Y-71773308D01*
X50066002Y-71625395D01*
X50048141Y-71558736D01*
X50048140Y-71558734D01*
X50046739Y-71553504D01*
X49950568Y-71347266D01*
X49820047Y-71160861D01*
X49739186Y-71080000D01*
X52694532Y-71080000D01*
X52695004Y-71085395D01*
X52709448Y-71250499D01*
X52714365Y-71306692D01*
X52715762Y-71311907D01*
X52715764Y-71311916D01*
X52771858Y-71521263D01*
X52771861Y-71521271D01*
X52773261Y-71526496D01*
X52775549Y-71531403D01*
X52775550Y-71531405D01*
X52783645Y-71548765D01*
X52869432Y-71732734D01*
X52999953Y-71919139D01*
X53160861Y-72080047D01*
X53347266Y-72210568D01*
X53553504Y-72306739D01*
X53773308Y-72365635D01*
X54000000Y-72385468D01*
X54226692Y-72365635D01*
X54446496Y-72306739D01*
X54652734Y-72210568D01*
X54839139Y-72080047D01*
X55000047Y-71919139D01*
X55130568Y-71732734D01*
X55183137Y-71620000D01*
X57032677Y-71620000D01*
X57033149Y-71625395D01*
X57051457Y-71834669D01*
X57051458Y-71834676D01*
X57051930Y-71840068D01*
X57053329Y-71845289D01*
X57053331Y-71845300D01*
X57107706Y-72048228D01*
X57107708Y-72048235D01*
X57109106Y-72053450D01*
X57121508Y-72080047D01*
X57192325Y-72231916D01*
X57202466Y-72253662D01*
X57205566Y-72258090D01*
X57205570Y-72258096D01*
X57279890Y-72364235D01*
X57329174Y-72434620D01*
X57485380Y-72590826D01*
X57566433Y-72647580D01*
X57661903Y-72714429D01*
X57661906Y-72714430D01*
X57666338Y-72717534D01*
X57866550Y-72810894D01*
X57871770Y-72812292D01*
X57871771Y-72812293D01*
X58074699Y-72866668D01*
X58074701Y-72866668D01*
X58079932Y-72868070D01*
X58300000Y-72887323D01*
X58520068Y-72868070D01*
X58733450Y-72810894D01*
X58933662Y-72717534D01*
X59114620Y-72590826D01*
X59270826Y-72434620D01*
X59397534Y-72253662D01*
X59490894Y-72053450D01*
X59548070Y-71840068D01*
X59567323Y-71620000D01*
X82432677Y-71620000D01*
X82433149Y-71625395D01*
X82451457Y-71834669D01*
X82451458Y-71834676D01*
X82451930Y-71840068D01*
X82453329Y-71845289D01*
X82453331Y-71845300D01*
X82507706Y-72048228D01*
X82507708Y-72048235D01*
X82509106Y-72053450D01*
X82521508Y-72080047D01*
X82592325Y-72231916D01*
X82602466Y-72253662D01*
X82605566Y-72258090D01*
X82605570Y-72258096D01*
X82679890Y-72364235D01*
X82729174Y-72434620D01*
X82885380Y-72590826D01*
X82966433Y-72647580D01*
X83061903Y-72714429D01*
X83061906Y-72714430D01*
X83066338Y-72717534D01*
X83266550Y-72810894D01*
X83271770Y-72812292D01*
X83271771Y-72812293D01*
X83474699Y-72866668D01*
X83474701Y-72866668D01*
X83479932Y-72868070D01*
X83700000Y-72887323D01*
X83920068Y-72868070D01*
X84133450Y-72810894D01*
X84333662Y-72717534D01*
X84514620Y-72590826D01*
X84670826Y-72434620D01*
X84797534Y-72253662D01*
X84890894Y-72053450D01*
X84948070Y-71840068D01*
X84967323Y-71620000D01*
X84948070Y-71399932D01*
X84890894Y-71186550D01*
X84797534Y-70986339D01*
X84670826Y-70805380D01*
X84514620Y-70649174D01*
X84469553Y-70617618D01*
X84338096Y-70525570D01*
X84338090Y-70525566D01*
X84333662Y-70522466D01*
X84328760Y-70520180D01*
X84328758Y-70520179D01*
X84204217Y-70462105D01*
X84152041Y-70416348D01*
X84132622Y-70349722D01*
X84152042Y-70283097D01*
X84204219Y-70237340D01*
X84328499Y-70179388D01*
X84337851Y-70173989D01*
X84387064Y-70139528D01*
X84394496Y-70131419D01*
X84388582Y-70122136D01*
X83711542Y-69445095D01*
X83700000Y-69438431D01*
X83688457Y-69445095D01*
X83011416Y-70122136D01*
X83005503Y-70131418D01*
X83012936Y-70139530D01*
X83062151Y-70173991D01*
X83071499Y-70179388D01*
X83195780Y-70237341D01*
X83247956Y-70283097D01*
X83267376Y-70349722D01*
X83247957Y-70416347D01*
X83195782Y-70462105D01*
X83071245Y-70520178D01*
X83071242Y-70520179D01*
X83066339Y-70522466D01*
X83061906Y-70525569D01*
X83061899Y-70525574D01*
X82889815Y-70646068D01*
X82889810Y-70646071D01*
X82885380Y-70649174D01*
X82881556Y-70652997D01*
X82881550Y-70653003D01*
X82733003Y-70801550D01*
X82732997Y-70801556D01*
X82729174Y-70805380D01*
X82726071Y-70809810D01*
X82726068Y-70809815D01*
X82605574Y-70981899D01*
X82605569Y-70981906D01*
X82602466Y-70986339D01*
X82600178Y-70991245D01*
X82600176Y-70991249D01*
X82511393Y-71181643D01*
X82511388Y-71181654D01*
X82509106Y-71186550D01*
X82507706Y-71191772D01*
X82507705Y-71191777D01*
X82453331Y-71394699D01*
X82453328Y-71394711D01*
X82451930Y-71399932D01*
X82451458Y-71405321D01*
X82451457Y-71405330D01*
X82438037Y-71558736D01*
X82432677Y-71620000D01*
X59567323Y-71620000D01*
X59548070Y-71399932D01*
X59490894Y-71186550D01*
X59397534Y-70986339D01*
X59270826Y-70805380D01*
X59114620Y-70649174D01*
X59069553Y-70617618D01*
X58938096Y-70525570D01*
X58938090Y-70525566D01*
X58933662Y-70522466D01*
X58928760Y-70520180D01*
X58928758Y-70520179D01*
X58804217Y-70462105D01*
X58752041Y-70416348D01*
X58732622Y-70349722D01*
X58752042Y-70283097D01*
X58804219Y-70237340D01*
X58928499Y-70179388D01*
X58937851Y-70173989D01*
X58987064Y-70139528D01*
X58994496Y-70131419D01*
X58988582Y-70122136D01*
X58311542Y-69445095D01*
X58300000Y-69438431D01*
X58288457Y-69445095D01*
X57611416Y-70122136D01*
X57605503Y-70131418D01*
X57612936Y-70139530D01*
X57662151Y-70173991D01*
X57671499Y-70179388D01*
X57795780Y-70237341D01*
X57847956Y-70283097D01*
X57867376Y-70349722D01*
X57847957Y-70416347D01*
X57795782Y-70462105D01*
X57671245Y-70520178D01*
X57671242Y-70520179D01*
X57666339Y-70522466D01*
X57661906Y-70525569D01*
X57661899Y-70525574D01*
X57489815Y-70646068D01*
X57489810Y-70646071D01*
X57485380Y-70649174D01*
X57481556Y-70652997D01*
X57481550Y-70653003D01*
X57333003Y-70801550D01*
X57332997Y-70801556D01*
X57329174Y-70805380D01*
X57326071Y-70809810D01*
X57326068Y-70809815D01*
X57205574Y-70981899D01*
X57205569Y-70981906D01*
X57202466Y-70986339D01*
X57200178Y-70991245D01*
X57200176Y-70991249D01*
X57111393Y-71181643D01*
X57111388Y-71181654D01*
X57109106Y-71186550D01*
X57107706Y-71191772D01*
X57107705Y-71191777D01*
X57053331Y-71394699D01*
X57053328Y-71394711D01*
X57051930Y-71399932D01*
X57051458Y-71405321D01*
X57051457Y-71405330D01*
X57038037Y-71558736D01*
X57032677Y-71620000D01*
X55183137Y-71620000D01*
X55226739Y-71526496D01*
X55285635Y-71306692D01*
X55305468Y-71080000D01*
X55285635Y-70853308D01*
X55264187Y-70773261D01*
X55228141Y-70638736D01*
X55228140Y-70638734D01*
X55226739Y-70633504D01*
X55130568Y-70427266D01*
X55000047Y-70240861D01*
X54839139Y-70079953D01*
X54652734Y-69949432D01*
X54446496Y-69853261D01*
X54441271Y-69851861D01*
X54441263Y-69851858D01*
X54231916Y-69795764D01*
X54231907Y-69795762D01*
X54226692Y-69794365D01*
X54221304Y-69793893D01*
X54221301Y-69793893D01*
X54005395Y-69775004D01*
X54000000Y-69774532D01*
X53994605Y-69775004D01*
X53778698Y-69793893D01*
X53778693Y-69793893D01*
X53773308Y-69794365D01*
X53768094Y-69795762D01*
X53768083Y-69795764D01*
X53558736Y-69851858D01*
X53558724Y-69851862D01*
X53553504Y-69853261D01*
X53548599Y-69855547D01*
X53548594Y-69855550D01*
X53352176Y-69947142D01*
X53352172Y-69947144D01*
X53347266Y-69949432D01*
X53342833Y-69952535D01*
X53342826Y-69952540D01*
X53165296Y-70076847D01*
X53165291Y-70076850D01*
X53160861Y-70079953D01*
X53157037Y-70083776D01*
X53157031Y-70083782D01*
X53003782Y-70237031D01*
X53003776Y-70237037D01*
X52999953Y-70240861D01*
X52996850Y-70245291D01*
X52996847Y-70245296D01*
X52872540Y-70422826D01*
X52872535Y-70422833D01*
X52869432Y-70427266D01*
X52867144Y-70432172D01*
X52867142Y-70432176D01*
X52775550Y-70628594D01*
X52775547Y-70628599D01*
X52773261Y-70633504D01*
X52771862Y-70638724D01*
X52771858Y-70638736D01*
X52715764Y-70848083D01*
X52715762Y-70848094D01*
X52714365Y-70853308D01*
X52713893Y-70858693D01*
X52713893Y-70858698D01*
X52713116Y-70867579D01*
X52694532Y-71080000D01*
X49739186Y-71080000D01*
X49659139Y-70999953D01*
X49472734Y-70869432D01*
X49414724Y-70842381D01*
X49362549Y-70796625D01*
X49343130Y-70730000D01*
X49362549Y-70663375D01*
X49414725Y-70617618D01*
X49472734Y-70590568D01*
X49659139Y-70460047D01*
X49820047Y-70299139D01*
X49950568Y-70112734D01*
X50046739Y-69906496D01*
X50105635Y-69686692D01*
X50125468Y-69460000D01*
X50105635Y-69233308D01*
X50066002Y-69085395D01*
X57033651Y-69085395D01*
X57051952Y-69294581D01*
X57053826Y-69305213D01*
X57108178Y-69508056D01*
X57111864Y-69518180D01*
X57200609Y-69708496D01*
X57206008Y-69717848D01*
X57240470Y-69767065D01*
X57248579Y-69774496D01*
X57257862Y-69768582D01*
X57934903Y-69091542D01*
X57941567Y-69080000D01*
X58658431Y-69080000D01*
X58665095Y-69091542D01*
X59342136Y-69768582D01*
X59351419Y-69774496D01*
X59359528Y-69767064D01*
X59393989Y-69717851D01*
X59399391Y-69708494D01*
X59488135Y-69518180D01*
X59491821Y-69508056D01*
X59546173Y-69305213D01*
X59548047Y-69294581D01*
X59566349Y-69085395D01*
X82433651Y-69085395D01*
X82451952Y-69294581D01*
X82453826Y-69305213D01*
X82508178Y-69508056D01*
X82511864Y-69518180D01*
X82600609Y-69708496D01*
X82606008Y-69717848D01*
X82640470Y-69767065D01*
X82648579Y-69774496D01*
X82657862Y-69768582D01*
X83334903Y-69091541D01*
X83341567Y-69079999D01*
X84058431Y-69079999D01*
X84065095Y-69091541D01*
X84742136Y-69768582D01*
X84751419Y-69774496D01*
X84759528Y-69767064D01*
X84793989Y-69717851D01*
X84799391Y-69708494D01*
X84888135Y-69518180D01*
X84891821Y-69508056D01*
X84946173Y-69305213D01*
X84948047Y-69294581D01*
X84966349Y-69085395D01*
X84966349Y-69074605D01*
X84948047Y-68865418D01*
X84946173Y-68854786D01*
X84891822Y-68651949D01*
X84888134Y-68641815D01*
X84799388Y-68451500D01*
X84793990Y-68442150D01*
X84759529Y-68392935D01*
X84751418Y-68385502D01*
X84742139Y-68391413D01*
X84065095Y-69068456D01*
X84058431Y-69079999D01*
X83341567Y-69079999D01*
X83334903Y-69068456D01*
X82657859Y-68391413D01*
X82648581Y-68385502D01*
X82640468Y-68392936D01*
X82606006Y-68442154D01*
X82600612Y-68451498D01*
X82511865Y-68641815D01*
X82508177Y-68651949D01*
X82453826Y-68854786D01*
X82451952Y-68865418D01*
X82433651Y-69074605D01*
X82433651Y-69085395D01*
X59566349Y-69085395D01*
X59566349Y-69074605D01*
X59548047Y-68865418D01*
X59546173Y-68854786D01*
X59491822Y-68651949D01*
X59488134Y-68641815D01*
X59399388Y-68451500D01*
X59393990Y-68442150D01*
X59359529Y-68392935D01*
X59351418Y-68385502D01*
X59342139Y-68391413D01*
X58665095Y-69068457D01*
X58658431Y-69080000D01*
X57941567Y-69080000D01*
X57934903Y-69068457D01*
X57257859Y-68391413D01*
X57248581Y-68385502D01*
X57240468Y-68392936D01*
X57206006Y-68442154D01*
X57200612Y-68451498D01*
X57111865Y-68641815D01*
X57108177Y-68651949D01*
X57053826Y-68854786D01*
X57051952Y-68865418D01*
X57033651Y-69074605D01*
X57033651Y-69085395D01*
X50066002Y-69085395D01*
X50048141Y-69018736D01*
X50048140Y-69018734D01*
X50046739Y-69013504D01*
X49950568Y-68807266D01*
X49820047Y-68620861D01*
X49659139Y-68459953D01*
X49472734Y-68329432D01*
X49414724Y-68302381D01*
X49362549Y-68256625D01*
X49343130Y-68190000D01*
X49362549Y-68123375D01*
X49414725Y-68077618D01*
X49472734Y-68050568D01*
X49659139Y-67920047D01*
X49820047Y-67759139D01*
X49950568Y-67572734D01*
X50046739Y-67366496D01*
X50105635Y-67146692D01*
X50125468Y-66920000D01*
X50105635Y-66693308D01*
X50066002Y-66545395D01*
X50064556Y-66540000D01*
X57032677Y-66540000D01*
X57033149Y-66545395D01*
X57051457Y-66754669D01*
X57051458Y-66754676D01*
X57051930Y-66760068D01*
X57053329Y-66765289D01*
X57053331Y-66765300D01*
X57107706Y-66968228D01*
X57107708Y-66968235D01*
X57109106Y-66973450D01*
X57111392Y-66978352D01*
X57192325Y-67151916D01*
X57202466Y-67173662D01*
X57205566Y-67178090D01*
X57205570Y-67178096D01*
X57309173Y-67326056D01*
X57329174Y-67354620D01*
X57485380Y-67510826D01*
X57566780Y-67567823D01*
X57661903Y-67634429D01*
X57661906Y-67634430D01*
X57666338Y-67637534D01*
X57795781Y-67697894D01*
X57847956Y-67743649D01*
X57867376Y-67810274D01*
X57847957Y-67876899D01*
X57795782Y-67922657D01*
X57671494Y-67980614D01*
X57662154Y-67986006D01*
X57612936Y-68020468D01*
X57605502Y-68028581D01*
X57611413Y-68037859D01*
X58288457Y-68714903D01*
X58300000Y-68721567D01*
X58311542Y-68714903D01*
X58988582Y-68037862D01*
X58994496Y-68028579D01*
X58987065Y-68020470D01*
X58937848Y-67986008D01*
X58928496Y-67980609D01*
X58804218Y-67922658D01*
X58752042Y-67876901D01*
X58732622Y-67810276D01*
X58752042Y-67743651D01*
X58804216Y-67697895D01*
X58933662Y-67637534D01*
X59114620Y-67510826D01*
X59270826Y-67354620D01*
X59397534Y-67173662D01*
X59490894Y-66973450D01*
X59548070Y-66760068D01*
X59567323Y-66540000D01*
X82432677Y-66540000D01*
X82433149Y-66545395D01*
X82451457Y-66754669D01*
X82451458Y-66754676D01*
X82451930Y-66760068D01*
X82453329Y-66765289D01*
X82453331Y-66765300D01*
X82507706Y-66968228D01*
X82507708Y-66968235D01*
X82509106Y-66973450D01*
X82511392Y-66978352D01*
X82592325Y-67151916D01*
X82602466Y-67173662D01*
X82605566Y-67178090D01*
X82605570Y-67178096D01*
X82709173Y-67326056D01*
X82729174Y-67354620D01*
X82885380Y-67510826D01*
X82966780Y-67567823D01*
X83061903Y-67634429D01*
X83061906Y-67634430D01*
X83066338Y-67637534D01*
X83195781Y-67697894D01*
X83247956Y-67743649D01*
X83267376Y-67810274D01*
X83247957Y-67876899D01*
X83195782Y-67922657D01*
X83071494Y-67980614D01*
X83062154Y-67986006D01*
X83012936Y-68020468D01*
X83005502Y-68028581D01*
X83011413Y-68037859D01*
X83688456Y-68714903D01*
X83699999Y-68721567D01*
X83711541Y-68714903D01*
X84388582Y-68037862D01*
X84394496Y-68028579D01*
X84387065Y-68020470D01*
X84337848Y-67986008D01*
X84328496Y-67980609D01*
X84204218Y-67922658D01*
X84152042Y-67876901D01*
X84132622Y-67810276D01*
X84152042Y-67743651D01*
X84204216Y-67697895D01*
X84333662Y-67637534D01*
X84514620Y-67510826D01*
X84670826Y-67354620D01*
X84797534Y-67173662D01*
X84890894Y-66973450D01*
X84948070Y-66760068D01*
X84967323Y-66540000D01*
X84948070Y-66319932D01*
X84890894Y-66106550D01*
X84797534Y-65906339D01*
X84670826Y-65725380D01*
X84514620Y-65569174D01*
X84469553Y-65537618D01*
X84338096Y-65445570D01*
X84338090Y-65445566D01*
X84333662Y-65442466D01*
X84328757Y-65440178D01*
X84328754Y-65440177D01*
X84270876Y-65413188D01*
X84204808Y-65382381D01*
X84152634Y-65336625D01*
X84133214Y-65270000D01*
X84152634Y-65203375D01*
X84204808Y-65157618D01*
X84333662Y-65097534D01*
X84514620Y-64970826D01*
X84670826Y-64814620D01*
X84797534Y-64633662D01*
X84890894Y-64433450D01*
X84948070Y-64220068D01*
X84967323Y-64000000D01*
X84948070Y-63779932D01*
X84890894Y-63566550D01*
X84797534Y-63366339D01*
X84670826Y-63185380D01*
X84514620Y-63029174D01*
X84486056Y-63009173D01*
X84338096Y-62905570D01*
X84338090Y-62905566D01*
X84333662Y-62902466D01*
X84328760Y-62900180D01*
X84328758Y-62900179D01*
X84204809Y-62842381D01*
X84152633Y-62796624D01*
X84133214Y-62729998D01*
X84152634Y-62663373D01*
X84204806Y-62617620D01*
X84333662Y-62557534D01*
X84514620Y-62430826D01*
X84670826Y-62274620D01*
X84797534Y-62093662D01*
X84890894Y-61893450D01*
X84948070Y-61680068D01*
X84967323Y-61460000D01*
X84948070Y-61239932D01*
X84890894Y-61026550D01*
X84797534Y-60826339D01*
X84670826Y-60645380D01*
X84514620Y-60489174D01*
X84485229Y-60468594D01*
X84338096Y-60365570D01*
X84338090Y-60365566D01*
X84333662Y-60362466D01*
X84328757Y-60360178D01*
X84328754Y-60360177D01*
X84270876Y-60333188D01*
X84204808Y-60302381D01*
X84152634Y-60256625D01*
X84133214Y-60190000D01*
X84152634Y-60123375D01*
X84204808Y-60077618D01*
X84333662Y-60017534D01*
X84514620Y-59890826D01*
X84670826Y-59734620D01*
X84797534Y-59553662D01*
X84890894Y-59353450D01*
X84948070Y-59140068D01*
X84967323Y-58920000D01*
X84948070Y-58699932D01*
X84890894Y-58486550D01*
X84872216Y-58446496D01*
X84828234Y-58352176D01*
X84797534Y-58286339D01*
X84670826Y-58105380D01*
X84514620Y-57949174D01*
X84463221Y-57913184D01*
X84338096Y-57825570D01*
X84338090Y-57825566D01*
X84333662Y-57822466D01*
X84328757Y-57820178D01*
X84328754Y-57820177D01*
X84270876Y-57793188D01*
X84204808Y-57762381D01*
X84152634Y-57716625D01*
X84133214Y-57650000D01*
X84152634Y-57583375D01*
X84204808Y-57537618D01*
X84333662Y-57477534D01*
X84514620Y-57350826D01*
X84670826Y-57194620D01*
X84797534Y-57013662D01*
X84890894Y-56813450D01*
X84948070Y-56600068D01*
X84967323Y-56380000D01*
X84948070Y-56159932D01*
X84890894Y-55946550D01*
X84797534Y-55746339D01*
X84670826Y-55565380D01*
X84514620Y-55409174D01*
X84486056Y-55389173D01*
X84338096Y-55285570D01*
X84338090Y-55285566D01*
X84333662Y-55282466D01*
X84328757Y-55280178D01*
X84328754Y-55280177D01*
X84270876Y-55253188D01*
X84204808Y-55222381D01*
X84152634Y-55176625D01*
X84133214Y-55110000D01*
X84152634Y-55043375D01*
X84204808Y-54997618D01*
X84333662Y-54937534D01*
X84514620Y-54810826D01*
X84670826Y-54654620D01*
X84797534Y-54473662D01*
X84890894Y-54273450D01*
X84948070Y-54060068D01*
X84967323Y-53840000D01*
X84948070Y-53619932D01*
X84890894Y-53406550D01*
X84797534Y-53206339D01*
X84670826Y-53025380D01*
X84514620Y-52869174D01*
X84486056Y-52849173D01*
X84338096Y-52745570D01*
X84338090Y-52745566D01*
X84333662Y-52742466D01*
X84328757Y-52740178D01*
X84328754Y-52740177D01*
X84270876Y-52713188D01*
X84204808Y-52682381D01*
X84152634Y-52636625D01*
X84133214Y-52570000D01*
X84152634Y-52503375D01*
X84204808Y-52457618D01*
X84333662Y-52397534D01*
X84514620Y-52270826D01*
X84670826Y-52114620D01*
X84797534Y-51933662D01*
X84890894Y-51733450D01*
X84948070Y-51520068D01*
X84967323Y-51300000D01*
X84948070Y-51079932D01*
X84890894Y-50866550D01*
X84797534Y-50666339D01*
X84670826Y-50485380D01*
X84514620Y-50329174D01*
X84486056Y-50309173D01*
X84338096Y-50205570D01*
X84338090Y-50205566D01*
X84333662Y-50202466D01*
X84328757Y-50200178D01*
X84328754Y-50200177D01*
X84270876Y-50173188D01*
X84204808Y-50142381D01*
X84152634Y-50096625D01*
X84133214Y-50030000D01*
X84152634Y-49963375D01*
X84204808Y-49917618D01*
X84333662Y-49857534D01*
X84514620Y-49730826D01*
X84670826Y-49574620D01*
X84797534Y-49393662D01*
X84890894Y-49193450D01*
X84948070Y-48980068D01*
X84967323Y-48760000D01*
X84948070Y-48539932D01*
X84890894Y-48326550D01*
X84872216Y-48286496D01*
X84844329Y-48226692D01*
X84797534Y-48126339D01*
X84670826Y-47945380D01*
X84514620Y-47789174D01*
X84453745Y-47746549D01*
X84338096Y-47665570D01*
X84338090Y-47665566D01*
X84333662Y-47662466D01*
X84328757Y-47660178D01*
X84328754Y-47660177D01*
X84270876Y-47633188D01*
X84204808Y-47602381D01*
X84152634Y-47556625D01*
X84133214Y-47490000D01*
X84152634Y-47423375D01*
X84204808Y-47377618D01*
X84333662Y-47317534D01*
X84514620Y-47190826D01*
X84670826Y-47034620D01*
X84797534Y-46853662D01*
X84890894Y-46653450D01*
X84948070Y-46440068D01*
X84967323Y-46220000D01*
X84948070Y-45999932D01*
X84890894Y-45786550D01*
X84797534Y-45586339D01*
X84670826Y-45405380D01*
X84514620Y-45249174D01*
X84486056Y-45229173D01*
X84338096Y-45125570D01*
X84338090Y-45125566D01*
X84333662Y-45122466D01*
X84328757Y-45120178D01*
X84328754Y-45120177D01*
X84270876Y-45093188D01*
X84204808Y-45062381D01*
X84152634Y-45016625D01*
X84133214Y-44950000D01*
X84152634Y-44883375D01*
X84204808Y-44837618D01*
X84333662Y-44777534D01*
X84514620Y-44650826D01*
X84670826Y-44494620D01*
X84797534Y-44313662D01*
X84890894Y-44113450D01*
X84948070Y-43900068D01*
X84967323Y-43680000D01*
X84948070Y-43459932D01*
X84941213Y-43434343D01*
X84929989Y-43392454D01*
X84890894Y-43246550D01*
X84797534Y-43046339D01*
X84670826Y-42865380D01*
X84514620Y-42709174D01*
X84486056Y-42689173D01*
X84338096Y-42585570D01*
X84338090Y-42585566D01*
X84333662Y-42582466D01*
X84328760Y-42580180D01*
X84328758Y-42580179D01*
X84204809Y-42522381D01*
X84152633Y-42476624D01*
X84133214Y-42409998D01*
X84152634Y-42343373D01*
X84204806Y-42297620D01*
X84333662Y-42237534D01*
X84514620Y-42110826D01*
X84670826Y-41954620D01*
X84797534Y-41773662D01*
X84890894Y-41573450D01*
X84948070Y-41360068D01*
X84967323Y-41140000D01*
X84948070Y-40919932D01*
X84890894Y-40706550D01*
X84881843Y-40687141D01*
X84856328Y-40632423D01*
X84797534Y-40506339D01*
X84670826Y-40325380D01*
X84514620Y-40169174D01*
X84483769Y-40147572D01*
X84338096Y-40045570D01*
X84338090Y-40045566D01*
X84333662Y-40042466D01*
X84328757Y-40040178D01*
X84328754Y-40040177D01*
X84252522Y-40004630D01*
X84204808Y-39982381D01*
X84152634Y-39936625D01*
X84133214Y-39870000D01*
X84152634Y-39803375D01*
X84204808Y-39757618D01*
X84333662Y-39697534D01*
X84514620Y-39570826D01*
X84670826Y-39414620D01*
X84797534Y-39233662D01*
X84890894Y-39033450D01*
X84948070Y-38820068D01*
X84967323Y-38600000D01*
X84948070Y-38379932D01*
X84944759Y-38367577D01*
X84923544Y-38288400D01*
X84890894Y-38166550D01*
X84797534Y-37966339D01*
X84670826Y-37785380D01*
X84514620Y-37629174D01*
X84486056Y-37609173D01*
X84338096Y-37505570D01*
X84338090Y-37505566D01*
X84333662Y-37502466D01*
X84328757Y-37500178D01*
X84328754Y-37500177D01*
X84270876Y-37473188D01*
X84204808Y-37442381D01*
X84152634Y-37396625D01*
X84133214Y-37330000D01*
X84152634Y-37263375D01*
X84204808Y-37217618D01*
X84333662Y-37157534D01*
X84514620Y-37030826D01*
X84670826Y-36874620D01*
X84797534Y-36693662D01*
X84890894Y-36493450D01*
X84948070Y-36280068D01*
X84967323Y-36060000D01*
X84948070Y-35839932D01*
X84890894Y-35626550D01*
X84797534Y-35426339D01*
X84670826Y-35245380D01*
X84514620Y-35089174D01*
X84456629Y-35048568D01*
X84338096Y-34965570D01*
X84338090Y-34965566D01*
X84333662Y-34962466D01*
X84328757Y-34960178D01*
X84328754Y-34960177D01*
X84197972Y-34899193D01*
X84133450Y-34869106D01*
X84128235Y-34867708D01*
X84128228Y-34867706D01*
X83925300Y-34813331D01*
X83925289Y-34813329D01*
X83920068Y-34811930D01*
X83914676Y-34811458D01*
X83914669Y-34811457D01*
X83705395Y-34793149D01*
X83700000Y-34792677D01*
X83694605Y-34793149D01*
X83485330Y-34811457D01*
X83485321Y-34811458D01*
X83479932Y-34811930D01*
X83474711Y-34813328D01*
X83474699Y-34813331D01*
X83271777Y-34867705D01*
X83271772Y-34867706D01*
X83266550Y-34869106D01*
X83261654Y-34871388D01*
X83261643Y-34871393D01*
X83071249Y-34960176D01*
X83071245Y-34960178D01*
X83066339Y-34962466D01*
X83061906Y-34965569D01*
X83061899Y-34965574D01*
X82889815Y-35086068D01*
X82889810Y-35086071D01*
X82885380Y-35089174D01*
X82881556Y-35092997D01*
X82881550Y-35093003D01*
X82733003Y-35241550D01*
X82732997Y-35241556D01*
X82729174Y-35245380D01*
X82726071Y-35249810D01*
X82726068Y-35249815D01*
X82605574Y-35421899D01*
X82605569Y-35421906D01*
X82602466Y-35426339D01*
X82600178Y-35431245D01*
X82600176Y-35431249D01*
X82511393Y-35621643D01*
X82511388Y-35621654D01*
X82509106Y-35626550D01*
X82507706Y-35631772D01*
X82507705Y-35631777D01*
X82453331Y-35834699D01*
X82453328Y-35834711D01*
X82451930Y-35839932D01*
X82451458Y-35845321D01*
X82451457Y-35845330D01*
X82433386Y-36051890D01*
X82432677Y-36060000D01*
X82433149Y-36065395D01*
X82451457Y-36274669D01*
X82451458Y-36274676D01*
X82451930Y-36280068D01*
X82453329Y-36285289D01*
X82453331Y-36285300D01*
X82507706Y-36488228D01*
X82507708Y-36488235D01*
X82509106Y-36493450D01*
X82602466Y-36693662D01*
X82605566Y-36698090D01*
X82605570Y-36698096D01*
X82709173Y-36846056D01*
X82729174Y-36874620D01*
X82885380Y-37030826D01*
X82933230Y-37064331D01*
X83061903Y-37154429D01*
X83061906Y-37154430D01*
X83066338Y-37157534D01*
X83195189Y-37217618D01*
X83247364Y-37263373D01*
X83266784Y-37329998D01*
X83247365Y-37396623D01*
X83195190Y-37442381D01*
X83071245Y-37500178D01*
X83071242Y-37500179D01*
X83066339Y-37502466D01*
X83061906Y-37505569D01*
X83061899Y-37505574D01*
X82889815Y-37626068D01*
X82889810Y-37626071D01*
X82885380Y-37629174D01*
X82881556Y-37632997D01*
X82881550Y-37633003D01*
X82733003Y-37781550D01*
X82732997Y-37781556D01*
X82729174Y-37785380D01*
X82726071Y-37789810D01*
X82726068Y-37789815D01*
X82605574Y-37961899D01*
X82605569Y-37961906D01*
X82602466Y-37966339D01*
X82600178Y-37971245D01*
X82600176Y-37971249D01*
X82511393Y-38161643D01*
X82511388Y-38161654D01*
X82509106Y-38166550D01*
X82507706Y-38171772D01*
X82507705Y-38171777D01*
X82453331Y-38374699D01*
X82453328Y-38374711D01*
X82451930Y-38379932D01*
X82451458Y-38385321D01*
X82451457Y-38385330D01*
X82433589Y-38589572D01*
X82432677Y-38600000D01*
X82433149Y-38605395D01*
X82451457Y-38814669D01*
X82451458Y-38814676D01*
X82451930Y-38820068D01*
X82453329Y-38825289D01*
X82453331Y-38825300D01*
X82507706Y-39028228D01*
X82507708Y-39028235D01*
X82509106Y-39033450D01*
X82539193Y-39097972D01*
X82559521Y-39141567D01*
X82602466Y-39233662D01*
X82605566Y-39238090D01*
X82605570Y-39238096D01*
X82626623Y-39268162D01*
X82729174Y-39414620D01*
X82885380Y-39570826D01*
X82975859Y-39634180D01*
X83061903Y-39694429D01*
X83061906Y-39694430D01*
X83066338Y-39697534D01*
X83195189Y-39757618D01*
X83247364Y-39803373D01*
X83266784Y-39869998D01*
X83247365Y-39936623D01*
X83195190Y-39982381D01*
X83071245Y-40040178D01*
X83071242Y-40040179D01*
X83066339Y-40042466D01*
X83061906Y-40045569D01*
X83061899Y-40045574D01*
X82889815Y-40166068D01*
X82889810Y-40166071D01*
X82885380Y-40169174D01*
X82881556Y-40172997D01*
X82881550Y-40173003D01*
X82733003Y-40321550D01*
X82732997Y-40321556D01*
X82729174Y-40325380D01*
X82726071Y-40329810D01*
X82726068Y-40329815D01*
X82605574Y-40501899D01*
X82605569Y-40501906D01*
X82602466Y-40506339D01*
X82600178Y-40511245D01*
X82600176Y-40511249D01*
X82511393Y-40701643D01*
X82511388Y-40701654D01*
X82509106Y-40706550D01*
X82507706Y-40711772D01*
X82507705Y-40711777D01*
X82453331Y-40914699D01*
X82453328Y-40914711D01*
X82451930Y-40919932D01*
X82451458Y-40925321D01*
X82451457Y-40925330D01*
X82435895Y-41103219D01*
X82432677Y-41140000D01*
X82433149Y-41145395D01*
X82451457Y-41354669D01*
X82451458Y-41354676D01*
X82451930Y-41360068D01*
X82453329Y-41365289D01*
X82453331Y-41365300D01*
X82507706Y-41568228D01*
X82507708Y-41568235D01*
X82509106Y-41573450D01*
X82511392Y-41578352D01*
X82591109Y-41749308D01*
X82602466Y-41773662D01*
X82605566Y-41778090D01*
X82605570Y-41778096D01*
X82709173Y-41926056D01*
X82729174Y-41954620D01*
X82885380Y-42110826D01*
X82948510Y-42155030D01*
X83061903Y-42234429D01*
X83061906Y-42234430D01*
X83066338Y-42237534D01*
X83195189Y-42297618D01*
X83247364Y-42343373D01*
X83266784Y-42409998D01*
X83247365Y-42476623D01*
X83195190Y-42522381D01*
X83071245Y-42580178D01*
X83071242Y-42580179D01*
X83066339Y-42582466D01*
X83061906Y-42585569D01*
X83061899Y-42585574D01*
X82889815Y-42706068D01*
X82889810Y-42706071D01*
X82885380Y-42709174D01*
X82881556Y-42712997D01*
X82881550Y-42713003D01*
X82733003Y-42861550D01*
X82732997Y-42861556D01*
X82729174Y-42865380D01*
X82726071Y-42869810D01*
X82726068Y-42869815D01*
X82605574Y-43041899D01*
X82605569Y-43041906D01*
X82602466Y-43046339D01*
X82600178Y-43051245D01*
X82600176Y-43051249D01*
X82511393Y-43241643D01*
X82511388Y-43241654D01*
X82509106Y-43246550D01*
X82507706Y-43251772D01*
X82507705Y-43251777D01*
X82453331Y-43454699D01*
X82453328Y-43454711D01*
X82451930Y-43459932D01*
X82451458Y-43465321D01*
X82451457Y-43465330D01*
X82436592Y-43635246D01*
X82432677Y-43680000D01*
X82433149Y-43685395D01*
X82451457Y-43894669D01*
X82451458Y-43894676D01*
X82451930Y-43900068D01*
X82453329Y-43905289D01*
X82453331Y-43905300D01*
X82507706Y-44108228D01*
X82507708Y-44108235D01*
X82509106Y-44113450D01*
X82511392Y-44118352D01*
X82583648Y-44273308D01*
X82602466Y-44313662D01*
X82605566Y-44318090D01*
X82605570Y-44318096D01*
X82709173Y-44466056D01*
X82729174Y-44494620D01*
X82885380Y-44650826D01*
X82975859Y-44714180D01*
X83061903Y-44774429D01*
X83061906Y-44774430D01*
X83066338Y-44777534D01*
X83195189Y-44837618D01*
X83247364Y-44883373D01*
X83266784Y-44949998D01*
X83247365Y-45016623D01*
X83195190Y-45062381D01*
X83071245Y-45120178D01*
X83071242Y-45120179D01*
X83066339Y-45122466D01*
X83061906Y-45125569D01*
X83061899Y-45125574D01*
X82889815Y-45246068D01*
X82889810Y-45246071D01*
X82885380Y-45249174D01*
X82881556Y-45252997D01*
X82881550Y-45253003D01*
X82733003Y-45401550D01*
X82732997Y-45401556D01*
X82729174Y-45405380D01*
X82726071Y-45409810D01*
X82726068Y-45409815D01*
X82605574Y-45581899D01*
X82605569Y-45581906D01*
X82602466Y-45586339D01*
X82600178Y-45591245D01*
X82600176Y-45591249D01*
X82511393Y-45781643D01*
X82511388Y-45781654D01*
X82509106Y-45786550D01*
X82507706Y-45791772D01*
X82507705Y-45791777D01*
X82453331Y-45994699D01*
X82453328Y-45994711D01*
X82451930Y-45999932D01*
X82451458Y-46005321D01*
X82451457Y-46005330D01*
X82433386Y-46211890D01*
X82432677Y-46220000D01*
X82433149Y-46225395D01*
X82451457Y-46434669D01*
X82451458Y-46434676D01*
X82451930Y-46440068D01*
X82453329Y-46445289D01*
X82453331Y-46445300D01*
X82507706Y-46648228D01*
X82507708Y-46648235D01*
X82509106Y-46653450D01*
X82511392Y-46658352D01*
X82564974Y-46773261D01*
X82602466Y-46853662D01*
X82605566Y-46858090D01*
X82605570Y-46858096D01*
X82615983Y-46872967D01*
X82729174Y-47034620D01*
X82885380Y-47190826D01*
X82975858Y-47254179D01*
X83061903Y-47314429D01*
X83061906Y-47314430D01*
X83066338Y-47317534D01*
X83195189Y-47377618D01*
X83247364Y-47423373D01*
X83266784Y-47489998D01*
X83247365Y-47556623D01*
X83195190Y-47602381D01*
X83071245Y-47660178D01*
X83071242Y-47660179D01*
X83066339Y-47662466D01*
X83061906Y-47665569D01*
X83061899Y-47665574D01*
X82889815Y-47786068D01*
X82889810Y-47786071D01*
X82885380Y-47789174D01*
X82881556Y-47792997D01*
X82881550Y-47793003D01*
X82733003Y-47941550D01*
X82732997Y-47941556D01*
X82729174Y-47945380D01*
X82726071Y-47949810D01*
X82726068Y-47949815D01*
X82605574Y-48121899D01*
X82605569Y-48121906D01*
X82602466Y-48126339D01*
X82600178Y-48131245D01*
X82600176Y-48131249D01*
X82511393Y-48321643D01*
X82511388Y-48321654D01*
X82509106Y-48326550D01*
X82507706Y-48331772D01*
X82507705Y-48331777D01*
X82453331Y-48534699D01*
X82453328Y-48534711D01*
X82451930Y-48539932D01*
X82451458Y-48545321D01*
X82451457Y-48545330D01*
X82441673Y-48657173D01*
X82432677Y-48760000D01*
X82433149Y-48765395D01*
X82451457Y-48974669D01*
X82451458Y-48974676D01*
X82451930Y-48980068D01*
X82453329Y-48985289D01*
X82453331Y-48985300D01*
X82507706Y-49188228D01*
X82507708Y-49188235D01*
X82509106Y-49193450D01*
X82511392Y-49198352D01*
X82561340Y-49305468D01*
X82602466Y-49393662D01*
X82605566Y-49398090D01*
X82605570Y-49398096D01*
X82709173Y-49546056D01*
X82729174Y-49574620D01*
X82885380Y-49730826D01*
X82975858Y-49794179D01*
X83061903Y-49854429D01*
X83061906Y-49854430D01*
X83066338Y-49857534D01*
X83195189Y-49917618D01*
X83247364Y-49963373D01*
X83266784Y-50029998D01*
X83247365Y-50096623D01*
X83195190Y-50142381D01*
X83071245Y-50200178D01*
X83071242Y-50200179D01*
X83066339Y-50202466D01*
X83061906Y-50205569D01*
X83061899Y-50205574D01*
X82889815Y-50326068D01*
X82889810Y-50326071D01*
X82885380Y-50329174D01*
X82881556Y-50332997D01*
X82881550Y-50333003D01*
X82733003Y-50481550D01*
X82732997Y-50481556D01*
X82729174Y-50485380D01*
X82726071Y-50489810D01*
X82726068Y-50489815D01*
X82605574Y-50661899D01*
X82605569Y-50661906D01*
X82602466Y-50666339D01*
X82600178Y-50671245D01*
X82600176Y-50671249D01*
X82511393Y-50861643D01*
X82511388Y-50861654D01*
X82509106Y-50866550D01*
X82507706Y-50871772D01*
X82507705Y-50871777D01*
X82453331Y-51074699D01*
X82453328Y-51074711D01*
X82451930Y-51079932D01*
X82451458Y-51085321D01*
X82451457Y-51085330D01*
X82449566Y-51106948D01*
X82432677Y-51300000D01*
X82433149Y-51305395D01*
X82451457Y-51514669D01*
X82451458Y-51514676D01*
X82451930Y-51520068D01*
X82453329Y-51525289D01*
X82453331Y-51525300D01*
X82507706Y-51728228D01*
X82507708Y-51728235D01*
X82509106Y-51733450D01*
X82602466Y-51933662D01*
X82605566Y-51938090D01*
X82605570Y-51938096D01*
X82709173Y-52086056D01*
X82729174Y-52114620D01*
X82885380Y-52270826D01*
X82975859Y-52334180D01*
X83061903Y-52394429D01*
X83061906Y-52394430D01*
X83066338Y-52397534D01*
X83195189Y-52457618D01*
X83247364Y-52503373D01*
X83266784Y-52569998D01*
X83247365Y-52636623D01*
X83195190Y-52682381D01*
X83071245Y-52740178D01*
X83071242Y-52740179D01*
X83066339Y-52742466D01*
X83061906Y-52745569D01*
X83061899Y-52745574D01*
X82889815Y-52866068D01*
X82889810Y-52866071D01*
X82885380Y-52869174D01*
X82881556Y-52872997D01*
X82881550Y-52873003D01*
X82733003Y-53021550D01*
X82732997Y-53021556D01*
X82729174Y-53025380D01*
X82726071Y-53029810D01*
X82726068Y-53029815D01*
X82605574Y-53201899D01*
X82605569Y-53201906D01*
X82602466Y-53206339D01*
X82600178Y-53211245D01*
X82600176Y-53211249D01*
X82511393Y-53401643D01*
X82511388Y-53401654D01*
X82509106Y-53406550D01*
X82507706Y-53411772D01*
X82507705Y-53411777D01*
X82453331Y-53614699D01*
X82453328Y-53614711D01*
X82451930Y-53619932D01*
X82451458Y-53625321D01*
X82451457Y-53625330D01*
X82438040Y-53778698D01*
X82432677Y-53840000D01*
X82433149Y-53845395D01*
X82451457Y-54054669D01*
X82451458Y-54054676D01*
X82451930Y-54060068D01*
X82453329Y-54065289D01*
X82453331Y-54065300D01*
X82507706Y-54268228D01*
X82507708Y-54268235D01*
X82509106Y-54273450D01*
X82602466Y-54473662D01*
X82605566Y-54478090D01*
X82605570Y-54478096D01*
X82709173Y-54626056D01*
X82729174Y-54654620D01*
X82885380Y-54810826D01*
X82931284Y-54842968D01*
X83061903Y-54934429D01*
X83061906Y-54934430D01*
X83066338Y-54937534D01*
X83195189Y-54997618D01*
X83247364Y-55043373D01*
X83266784Y-55109998D01*
X83247365Y-55176623D01*
X83195190Y-55222381D01*
X83071245Y-55280178D01*
X83071242Y-55280179D01*
X83066339Y-55282466D01*
X83061906Y-55285569D01*
X83061899Y-55285574D01*
X82889815Y-55406068D01*
X82889810Y-55406071D01*
X82885380Y-55409174D01*
X82881556Y-55412997D01*
X82881550Y-55413003D01*
X82733003Y-55561550D01*
X82732997Y-55561556D01*
X82729174Y-55565380D01*
X82726071Y-55569810D01*
X82726068Y-55569815D01*
X82605574Y-55741899D01*
X82605569Y-55741906D01*
X82602466Y-55746339D01*
X82600178Y-55751245D01*
X82600176Y-55751249D01*
X82511393Y-55941643D01*
X82511388Y-55941654D01*
X82509106Y-55946550D01*
X82507706Y-55951772D01*
X82507705Y-55951777D01*
X82453331Y-56154699D01*
X82453328Y-56154711D01*
X82451930Y-56159932D01*
X82451458Y-56165321D01*
X82451457Y-56165330D01*
X82433386Y-56371890D01*
X82432677Y-56380000D01*
X82433149Y-56385395D01*
X82451457Y-56594669D01*
X82451458Y-56594676D01*
X82451930Y-56600068D01*
X82453329Y-56605289D01*
X82453331Y-56605300D01*
X82507706Y-56808228D01*
X82507708Y-56808235D01*
X82509106Y-56813450D01*
X82602466Y-57013662D01*
X82605566Y-57018090D01*
X82605570Y-57018096D01*
X82702854Y-57157031D01*
X82729174Y-57194620D01*
X82885380Y-57350826D01*
X82975858Y-57414179D01*
X83061903Y-57474429D01*
X83061906Y-57474430D01*
X83066338Y-57477534D01*
X83195189Y-57537618D01*
X83247364Y-57583373D01*
X83266784Y-57649998D01*
X83247365Y-57716623D01*
X83195190Y-57762381D01*
X83071245Y-57820178D01*
X83071242Y-57820179D01*
X83066339Y-57822466D01*
X83061906Y-57825569D01*
X83061899Y-57825574D01*
X82889815Y-57946068D01*
X82889810Y-57946071D01*
X82885380Y-57949174D01*
X82881556Y-57952997D01*
X82881550Y-57953003D01*
X82733003Y-58101550D01*
X82732997Y-58101556D01*
X82729174Y-58105380D01*
X82726071Y-58109810D01*
X82726068Y-58109815D01*
X82605574Y-58281899D01*
X82605569Y-58281906D01*
X82602466Y-58286339D01*
X82600178Y-58291245D01*
X82600176Y-58291249D01*
X82511393Y-58481643D01*
X82511388Y-58481654D01*
X82509106Y-58486550D01*
X82507706Y-58491772D01*
X82507705Y-58491777D01*
X82453331Y-58694699D01*
X82453328Y-58694711D01*
X82451930Y-58699932D01*
X82451458Y-58705321D01*
X82451457Y-58705330D01*
X82443072Y-58801180D01*
X82432677Y-58920000D01*
X82433149Y-58925395D01*
X82451457Y-59134669D01*
X82451458Y-59134676D01*
X82451930Y-59140068D01*
X82453329Y-59145289D01*
X82453331Y-59145300D01*
X82507706Y-59348228D01*
X82507708Y-59348235D01*
X82509106Y-59353450D01*
X82602466Y-59553662D01*
X82605566Y-59558090D01*
X82605570Y-59558096D01*
X82668398Y-59647823D01*
X82729174Y-59734620D01*
X82885380Y-59890826D01*
X82922542Y-59916847D01*
X83061903Y-60014429D01*
X83061906Y-60014430D01*
X83066338Y-60017534D01*
X83195189Y-60077618D01*
X83247364Y-60123373D01*
X83266784Y-60189998D01*
X83247365Y-60256623D01*
X83195190Y-60302381D01*
X83071245Y-60360178D01*
X83071242Y-60360179D01*
X83066339Y-60362466D01*
X83061906Y-60365569D01*
X83061899Y-60365574D01*
X82889815Y-60486068D01*
X82889810Y-60486071D01*
X82885380Y-60489174D01*
X82881556Y-60492997D01*
X82881550Y-60493003D01*
X82733003Y-60641550D01*
X82732997Y-60641556D01*
X82729174Y-60645380D01*
X82726071Y-60649810D01*
X82726068Y-60649815D01*
X82605574Y-60821899D01*
X82605569Y-60821906D01*
X82602466Y-60826339D01*
X82600178Y-60831245D01*
X82600176Y-60831249D01*
X82511393Y-61021643D01*
X82511388Y-61021654D01*
X82509106Y-61026550D01*
X82507706Y-61031772D01*
X82507705Y-61031777D01*
X82453331Y-61234699D01*
X82453328Y-61234711D01*
X82451930Y-61239932D01*
X82451458Y-61245321D01*
X82451457Y-61245330D01*
X82441315Y-61361263D01*
X82432677Y-61460000D01*
X82433149Y-61465395D01*
X82451457Y-61674669D01*
X82451458Y-61674676D01*
X82451930Y-61680068D01*
X82453329Y-61685289D01*
X82453331Y-61685300D01*
X82507706Y-61888228D01*
X82507708Y-61888235D01*
X82509106Y-61893450D01*
X82602466Y-62093662D01*
X82605566Y-62098090D01*
X82605570Y-62098096D01*
X82679890Y-62204235D01*
X82729174Y-62274620D01*
X82885380Y-62430826D01*
X82975859Y-62494180D01*
X83061903Y-62554429D01*
X83061906Y-62554430D01*
X83066338Y-62557534D01*
X83195189Y-62617618D01*
X83247364Y-62663373D01*
X83266784Y-62729998D01*
X83247365Y-62796623D01*
X83195190Y-62842381D01*
X83071245Y-62900178D01*
X83071242Y-62900179D01*
X83066339Y-62902466D01*
X83061906Y-62905569D01*
X83061899Y-62905574D01*
X82889815Y-63026068D01*
X82889810Y-63026071D01*
X82885380Y-63029174D01*
X82881556Y-63032997D01*
X82881550Y-63033003D01*
X82733003Y-63181550D01*
X82732997Y-63181556D01*
X82729174Y-63185380D01*
X82726071Y-63189810D01*
X82726068Y-63189815D01*
X82605574Y-63361899D01*
X82605569Y-63361906D01*
X82602466Y-63366339D01*
X82600178Y-63371245D01*
X82600176Y-63371249D01*
X82511393Y-63561643D01*
X82511388Y-63561654D01*
X82509106Y-63566550D01*
X82507706Y-63571772D01*
X82507705Y-63571777D01*
X82453331Y-63774699D01*
X82453328Y-63774711D01*
X82451930Y-63779932D01*
X82451458Y-63785321D01*
X82451457Y-63785330D01*
X82438037Y-63938736D01*
X82432677Y-64000000D01*
X82433149Y-64005395D01*
X82451457Y-64214669D01*
X82451458Y-64214676D01*
X82451930Y-64220068D01*
X82453329Y-64225289D01*
X82453331Y-64225300D01*
X82507706Y-64428228D01*
X82507708Y-64428235D01*
X82509106Y-64433450D01*
X82511392Y-64438352D01*
X82592325Y-64611916D01*
X82602466Y-64633662D01*
X82605566Y-64638090D01*
X82605570Y-64638096D01*
X82688778Y-64756928D01*
X82729174Y-64814620D01*
X82885380Y-64970826D01*
X82945244Y-65012743D01*
X83061903Y-65094429D01*
X83061906Y-65094430D01*
X83066338Y-65097534D01*
X83195189Y-65157618D01*
X83247364Y-65203373D01*
X83266784Y-65269998D01*
X83247365Y-65336623D01*
X83195190Y-65382381D01*
X83071245Y-65440178D01*
X83071242Y-65440179D01*
X83066339Y-65442466D01*
X83061906Y-65445569D01*
X83061899Y-65445574D01*
X82889815Y-65566068D01*
X82889810Y-65566071D01*
X82885380Y-65569174D01*
X82881556Y-65572997D01*
X82881550Y-65573003D01*
X82733003Y-65721550D01*
X82732997Y-65721556D01*
X82729174Y-65725380D01*
X82726071Y-65729810D01*
X82726068Y-65729815D01*
X82605574Y-65901899D01*
X82605569Y-65901906D01*
X82602466Y-65906339D01*
X82600178Y-65911245D01*
X82600176Y-65911249D01*
X82511393Y-66101643D01*
X82511388Y-66101654D01*
X82509106Y-66106550D01*
X82507706Y-66111772D01*
X82507705Y-66111777D01*
X82453331Y-66314699D01*
X82453328Y-66314711D01*
X82451930Y-66319932D01*
X82451458Y-66325321D01*
X82451457Y-66325330D01*
X82438037Y-66478736D01*
X82432677Y-66540000D01*
X59567323Y-66540000D01*
X59548070Y-66319932D01*
X59490894Y-66106550D01*
X59397534Y-65906339D01*
X59270826Y-65725380D01*
X59114620Y-65569174D01*
X59069553Y-65537618D01*
X58938096Y-65445570D01*
X58938090Y-65445566D01*
X58933662Y-65442466D01*
X58928757Y-65440178D01*
X58928754Y-65440177D01*
X58870876Y-65413188D01*
X58804808Y-65382381D01*
X58752634Y-65336625D01*
X58733214Y-65270000D01*
X58752634Y-65203375D01*
X58804808Y-65157618D01*
X58933662Y-65097534D01*
X59114620Y-64970826D01*
X59270826Y-64814620D01*
X59397534Y-64633662D01*
X59490894Y-64433450D01*
X59548070Y-64220068D01*
X59567323Y-64000000D01*
X59548070Y-63779932D01*
X59490894Y-63566550D01*
X59397534Y-63366339D01*
X59270826Y-63185380D01*
X59114620Y-63029174D01*
X59086056Y-63009173D01*
X58938096Y-62905570D01*
X58938090Y-62905566D01*
X58933662Y-62902466D01*
X58928760Y-62900180D01*
X58928758Y-62900179D01*
X58804809Y-62842381D01*
X58752633Y-62796624D01*
X58733214Y-62729998D01*
X58752634Y-62663373D01*
X58804806Y-62617620D01*
X58933662Y-62557534D01*
X59114620Y-62430826D01*
X59270826Y-62274620D01*
X59397534Y-62093662D01*
X59490894Y-61893450D01*
X59548070Y-61680068D01*
X59567323Y-61460000D01*
X59548070Y-61239932D01*
X59490894Y-61026550D01*
X59397534Y-60826339D01*
X59270826Y-60645380D01*
X59114620Y-60489174D01*
X59085229Y-60468594D01*
X58938096Y-60365570D01*
X58938090Y-60365566D01*
X58933662Y-60362466D01*
X58928757Y-60360178D01*
X58928754Y-60360177D01*
X58870876Y-60333188D01*
X58804808Y-60302381D01*
X58752634Y-60256625D01*
X58733214Y-60190000D01*
X58752634Y-60123375D01*
X58804808Y-60077618D01*
X58933662Y-60017534D01*
X59114620Y-59890826D01*
X59270826Y-59734620D01*
X59397534Y-59553662D01*
X59490894Y-59353450D01*
X59548070Y-59140068D01*
X59567323Y-58920000D01*
X59548070Y-58699932D01*
X59490894Y-58486550D01*
X59472216Y-58446496D01*
X59428234Y-58352176D01*
X59397534Y-58286339D01*
X59270826Y-58105380D01*
X59114620Y-57949174D01*
X59063221Y-57913184D01*
X58938096Y-57825570D01*
X58938090Y-57825566D01*
X58933662Y-57822466D01*
X58928757Y-57820178D01*
X58928754Y-57820177D01*
X58870876Y-57793188D01*
X58804808Y-57762381D01*
X58752634Y-57716625D01*
X58733214Y-57650000D01*
X58752634Y-57583375D01*
X58804808Y-57537618D01*
X58933662Y-57477534D01*
X59114620Y-57350826D01*
X59270826Y-57194620D01*
X59397534Y-57013662D01*
X59490894Y-56813450D01*
X59548070Y-56600068D01*
X59567323Y-56380000D01*
X59548070Y-56159932D01*
X59490894Y-55946550D01*
X59397534Y-55746339D01*
X59270826Y-55565380D01*
X59114620Y-55409174D01*
X59086056Y-55389173D01*
X58938096Y-55285570D01*
X58938090Y-55285566D01*
X58933662Y-55282466D01*
X58928757Y-55280178D01*
X58928754Y-55280177D01*
X58870876Y-55253188D01*
X58804808Y-55222381D01*
X58752634Y-55176625D01*
X58733214Y-55110000D01*
X58752634Y-55043375D01*
X58804808Y-54997618D01*
X58933662Y-54937534D01*
X59114620Y-54810826D01*
X59270826Y-54654620D01*
X59397534Y-54473662D01*
X59490894Y-54273450D01*
X59548070Y-54060068D01*
X59567323Y-53840000D01*
X59548070Y-53619932D01*
X59490894Y-53406550D01*
X59397534Y-53206339D01*
X59270826Y-53025380D01*
X59114620Y-52869174D01*
X59086056Y-52849173D01*
X58938096Y-52745570D01*
X58938090Y-52745566D01*
X58933662Y-52742466D01*
X58928757Y-52740178D01*
X58928754Y-52740177D01*
X58870876Y-52713188D01*
X58804808Y-52682381D01*
X58752634Y-52636625D01*
X58733214Y-52570000D01*
X58752634Y-52503375D01*
X58804808Y-52457618D01*
X58933662Y-52397534D01*
X59114620Y-52270826D01*
X59270826Y-52114620D01*
X59397534Y-51933662D01*
X59490894Y-51733450D01*
X59548070Y-51520068D01*
X59567323Y-51300000D01*
X59548070Y-51079932D01*
X59490894Y-50866550D01*
X59397534Y-50666339D01*
X59270826Y-50485380D01*
X59114620Y-50329174D01*
X59086056Y-50309173D01*
X58938096Y-50205570D01*
X58938090Y-50205566D01*
X58933662Y-50202466D01*
X58928757Y-50200178D01*
X58928754Y-50200177D01*
X58870876Y-50173188D01*
X58804808Y-50142381D01*
X58752634Y-50096625D01*
X58733214Y-50030000D01*
X58752634Y-49963375D01*
X58804808Y-49917618D01*
X58933662Y-49857534D01*
X59114620Y-49730826D01*
X59270826Y-49574620D01*
X59397534Y-49393662D01*
X59490894Y-49193450D01*
X59548070Y-48980068D01*
X59567323Y-48760000D01*
X59548070Y-48539932D01*
X59490894Y-48326550D01*
X59472216Y-48286496D01*
X59444329Y-48226692D01*
X59397534Y-48126339D01*
X59270826Y-47945380D01*
X59114620Y-47789174D01*
X59053745Y-47746549D01*
X58938096Y-47665570D01*
X58938090Y-47665566D01*
X58933662Y-47662466D01*
X58928757Y-47660178D01*
X58928754Y-47660177D01*
X58870876Y-47633188D01*
X58804808Y-47602381D01*
X58752634Y-47556625D01*
X58733214Y-47490000D01*
X58752634Y-47423375D01*
X58804808Y-47377618D01*
X58933662Y-47317534D01*
X59114620Y-47190826D01*
X59270826Y-47034620D01*
X59397534Y-46853662D01*
X59490894Y-46653450D01*
X59548070Y-46440068D01*
X59567323Y-46220000D01*
X59548070Y-45999932D01*
X59490894Y-45786550D01*
X59397534Y-45586339D01*
X59270826Y-45405380D01*
X59114620Y-45249174D01*
X59086056Y-45229173D01*
X58938096Y-45125570D01*
X58938090Y-45125566D01*
X58933662Y-45122466D01*
X58928757Y-45120178D01*
X58928754Y-45120177D01*
X58870876Y-45093188D01*
X58804808Y-45062381D01*
X58752634Y-45016625D01*
X58733214Y-44950000D01*
X58752634Y-44883375D01*
X58804808Y-44837618D01*
X58933662Y-44777534D01*
X59114620Y-44650826D01*
X59270826Y-44494620D01*
X59397534Y-44313662D01*
X59490894Y-44113450D01*
X59548070Y-43900068D01*
X59567323Y-43680000D01*
X59548070Y-43459932D01*
X59541213Y-43434343D01*
X59529989Y-43392454D01*
X59490894Y-43246550D01*
X59397534Y-43046339D01*
X59270826Y-42865380D01*
X59114620Y-42709174D01*
X59086056Y-42689173D01*
X58938096Y-42585570D01*
X58938090Y-42585566D01*
X58933662Y-42582466D01*
X58928760Y-42580180D01*
X58928758Y-42580179D01*
X58804809Y-42522381D01*
X58752633Y-42476624D01*
X58733214Y-42409998D01*
X58752634Y-42343373D01*
X58804806Y-42297620D01*
X58933662Y-42237534D01*
X59114620Y-42110826D01*
X59270826Y-41954620D01*
X59397534Y-41773662D01*
X59490894Y-41573450D01*
X59548070Y-41360068D01*
X59567323Y-41140000D01*
X59548070Y-40919932D01*
X59490894Y-40706550D01*
X59481843Y-40687141D01*
X59456328Y-40632423D01*
X59397534Y-40506339D01*
X59270826Y-40325380D01*
X59114620Y-40169174D01*
X59083769Y-40147572D01*
X58938096Y-40045570D01*
X58938090Y-40045566D01*
X58933662Y-40042466D01*
X58928757Y-40040178D01*
X58928754Y-40040177D01*
X58852522Y-40004630D01*
X58804808Y-39982381D01*
X58752634Y-39936625D01*
X58733214Y-39870000D01*
X58752634Y-39803375D01*
X58804808Y-39757618D01*
X58933662Y-39697534D01*
X59114620Y-39570826D01*
X59270826Y-39414620D01*
X59397534Y-39233662D01*
X59490894Y-39033450D01*
X59548070Y-38820068D01*
X59567323Y-38600000D01*
X59548070Y-38379932D01*
X59544759Y-38367577D01*
X59523544Y-38288400D01*
X59490894Y-38166550D01*
X59397534Y-37966339D01*
X59270826Y-37785380D01*
X59114620Y-37629174D01*
X58998796Y-37548073D01*
X58958470Y-37500857D01*
X58946090Y-37440009D01*
X58964762Y-37380789D01*
X59009804Y-37338046D01*
X59069919Y-37322499D01*
X59109872Y-37322499D01*
X59169483Y-37316091D01*
X59304331Y-37265796D01*
X59419546Y-37179546D01*
X59505796Y-37064331D01*
X59556091Y-36929483D01*
X59562500Y-36869873D01*
X59562499Y-35250128D01*
X59556091Y-35190517D01*
X59505796Y-35055669D01*
X59419546Y-34940454D01*
X59324237Y-34869106D01*
X59311431Y-34859519D01*
X59311430Y-34859518D01*
X59304331Y-34854204D01*
X59194745Y-34813331D01*
X59176752Y-34806620D01*
X59176750Y-34806619D01*
X59169483Y-34803909D01*
X59161770Y-34803079D01*
X59161767Y-34803079D01*
X59113180Y-34797855D01*
X59113169Y-34797854D01*
X59109873Y-34797500D01*
X59106550Y-34797500D01*
X57493439Y-34797500D01*
X57493420Y-34797500D01*
X57490128Y-34797501D01*
X57486850Y-34797853D01*
X57486838Y-34797854D01*
X57438231Y-34803079D01*
X57438225Y-34803080D01*
X57430517Y-34803909D01*
X57423252Y-34806618D01*
X57423246Y-34806620D01*
X57303980Y-34851104D01*
X57303978Y-34851104D01*
X57295669Y-34854204D01*
X57288572Y-34859516D01*
X57288568Y-34859519D01*
X57187550Y-34935141D01*
X57187546Y-34935144D01*
X57180454Y-34940454D01*
X57175144Y-34947546D01*
X57175141Y-34947550D01*
X57099519Y-35048568D01*
X57099516Y-35048572D01*
X57094204Y-35055669D01*
X57091104Y-35063978D01*
X57091104Y-35063980D01*
X57046620Y-35183247D01*
X57046619Y-35183250D01*
X57043909Y-35190517D01*
X57043079Y-35198227D01*
X57043079Y-35198232D01*
X57037855Y-35246819D01*
X57037854Y-35246831D01*
X57037500Y-35250127D01*
X57037500Y-35253448D01*
X57037500Y-35253449D01*
X57037500Y-36866560D01*
X57037500Y-36866578D01*
X57037501Y-36869872D01*
X57037853Y-36873150D01*
X57037854Y-36873161D01*
X57043079Y-36921768D01*
X57043080Y-36921773D01*
X57043909Y-36929483D01*
X57046619Y-36936749D01*
X57046620Y-36936753D01*
X57080217Y-37026831D01*
X57094204Y-37064331D01*
X57099518Y-37071430D01*
X57099519Y-37071431D01*
X57165688Y-37159822D01*
X57180454Y-37179546D01*
X57295669Y-37265796D01*
X57430517Y-37316091D01*
X57490127Y-37322500D01*
X57530079Y-37322499D01*
X57590193Y-37338045D01*
X57635236Y-37380787D01*
X57653909Y-37440008D01*
X57641530Y-37500856D01*
X57601203Y-37548074D01*
X57489816Y-37626068D01*
X57485380Y-37629174D01*
X57481556Y-37632997D01*
X57481550Y-37633003D01*
X57333003Y-37781550D01*
X57332997Y-37781556D01*
X57329174Y-37785380D01*
X57326071Y-37789810D01*
X57326068Y-37789815D01*
X57205574Y-37961899D01*
X57205569Y-37961906D01*
X57202466Y-37966339D01*
X57200178Y-37971245D01*
X57200176Y-37971249D01*
X57111393Y-38161643D01*
X57111388Y-38161654D01*
X57109106Y-38166550D01*
X57107706Y-38171772D01*
X57107705Y-38171777D01*
X57053331Y-38374699D01*
X57053328Y-38374711D01*
X57051930Y-38379932D01*
X57051458Y-38385321D01*
X57051457Y-38385330D01*
X57033589Y-38589572D01*
X57032677Y-38600000D01*
X57033149Y-38605395D01*
X57051457Y-38814669D01*
X57051458Y-38814676D01*
X57051930Y-38820068D01*
X57053329Y-38825289D01*
X57053331Y-38825300D01*
X57107706Y-39028228D01*
X57107708Y-39028235D01*
X57109106Y-39033450D01*
X57139193Y-39097972D01*
X57159521Y-39141567D01*
X57202466Y-39233662D01*
X57205566Y-39238090D01*
X57205570Y-39238096D01*
X57226623Y-39268162D01*
X57329174Y-39414620D01*
X57485380Y-39570826D01*
X57575859Y-39634180D01*
X57661903Y-39694429D01*
X57661906Y-39694430D01*
X57666338Y-39697534D01*
X57795189Y-39757618D01*
X57847364Y-39803373D01*
X57866784Y-39869998D01*
X57847365Y-39936623D01*
X57795190Y-39982381D01*
X57671245Y-40040178D01*
X57671242Y-40040179D01*
X57666339Y-40042466D01*
X57661906Y-40045569D01*
X57661899Y-40045574D01*
X57489815Y-40166068D01*
X57489810Y-40166071D01*
X57485380Y-40169174D01*
X57481556Y-40172997D01*
X57481550Y-40173003D01*
X57333003Y-40321550D01*
X57332997Y-40321556D01*
X57329174Y-40325380D01*
X57326071Y-40329810D01*
X57326068Y-40329815D01*
X57205574Y-40501899D01*
X57205569Y-40501906D01*
X57202466Y-40506339D01*
X57200178Y-40511245D01*
X57200176Y-40511249D01*
X57111393Y-40701643D01*
X57111388Y-40701654D01*
X57109106Y-40706550D01*
X57107706Y-40711772D01*
X57107705Y-40711777D01*
X57053331Y-40914699D01*
X57053328Y-40914711D01*
X57051930Y-40919932D01*
X57051458Y-40925321D01*
X57051457Y-40925330D01*
X57035895Y-41103219D01*
X57032677Y-41140000D01*
X57033149Y-41145395D01*
X57051457Y-41354669D01*
X57051458Y-41354676D01*
X57051930Y-41360068D01*
X57053329Y-41365289D01*
X57053331Y-41365300D01*
X57107706Y-41568228D01*
X57107708Y-41568235D01*
X57109106Y-41573450D01*
X57111392Y-41578352D01*
X57191109Y-41749308D01*
X57202466Y-41773662D01*
X57205566Y-41778090D01*
X57205570Y-41778096D01*
X57309173Y-41926056D01*
X57329174Y-41954620D01*
X57485380Y-42110826D01*
X57548510Y-42155030D01*
X57661903Y-42234429D01*
X57661906Y-42234430D01*
X57666338Y-42237534D01*
X57795189Y-42297618D01*
X57847364Y-42343373D01*
X57866784Y-42409998D01*
X57847365Y-42476623D01*
X57795190Y-42522381D01*
X57671245Y-42580178D01*
X57671242Y-42580179D01*
X57666339Y-42582466D01*
X57661906Y-42585569D01*
X57661899Y-42585574D01*
X57489815Y-42706068D01*
X57489810Y-42706071D01*
X57485380Y-42709174D01*
X57481556Y-42712997D01*
X57481550Y-42713003D01*
X57333003Y-42861550D01*
X57332997Y-42861556D01*
X57329174Y-42865380D01*
X57326071Y-42869810D01*
X57326068Y-42869815D01*
X57205574Y-43041899D01*
X57205569Y-43041906D01*
X57202466Y-43046339D01*
X57200178Y-43051245D01*
X57200176Y-43051249D01*
X57111393Y-43241643D01*
X57111388Y-43241654D01*
X57109106Y-43246550D01*
X57107706Y-43251772D01*
X57107705Y-43251777D01*
X57053331Y-43454699D01*
X57053328Y-43454711D01*
X57051930Y-43459932D01*
X57051458Y-43465321D01*
X57051457Y-43465330D01*
X57036592Y-43635246D01*
X57032677Y-43680000D01*
X57033149Y-43685395D01*
X57051457Y-43894669D01*
X57051458Y-43894676D01*
X57051930Y-43900068D01*
X57053329Y-43905289D01*
X57053331Y-43905300D01*
X57107706Y-44108228D01*
X57107708Y-44108235D01*
X57109106Y-44113450D01*
X57111392Y-44118352D01*
X57183648Y-44273308D01*
X57202466Y-44313662D01*
X57205566Y-44318090D01*
X57205570Y-44318096D01*
X57309173Y-44466056D01*
X57329174Y-44494620D01*
X57485380Y-44650826D01*
X57575859Y-44714180D01*
X57661903Y-44774429D01*
X57661906Y-44774430D01*
X57666338Y-44777534D01*
X57795189Y-44837618D01*
X57847364Y-44883373D01*
X57866784Y-44949998D01*
X57847365Y-45016623D01*
X57795190Y-45062381D01*
X57671245Y-45120178D01*
X57671242Y-45120179D01*
X57666339Y-45122466D01*
X57661906Y-45125569D01*
X57661899Y-45125574D01*
X57489815Y-45246068D01*
X57489810Y-45246071D01*
X57485380Y-45249174D01*
X57481556Y-45252997D01*
X57481550Y-45253003D01*
X57333003Y-45401550D01*
X57332997Y-45401556D01*
X57329174Y-45405380D01*
X57326071Y-45409810D01*
X57326068Y-45409815D01*
X57205574Y-45581899D01*
X57205569Y-45581906D01*
X57202466Y-45586339D01*
X57200178Y-45591245D01*
X57200176Y-45591249D01*
X57111393Y-45781643D01*
X57111388Y-45781654D01*
X57109106Y-45786550D01*
X57107706Y-45791772D01*
X57107705Y-45791777D01*
X57053331Y-45994699D01*
X57053328Y-45994711D01*
X57051930Y-45999932D01*
X57051458Y-46005321D01*
X57051457Y-46005330D01*
X57033386Y-46211890D01*
X57032677Y-46220000D01*
X57033149Y-46225395D01*
X57051457Y-46434669D01*
X57051458Y-46434676D01*
X57051930Y-46440068D01*
X57053329Y-46445289D01*
X57053331Y-46445300D01*
X57107706Y-46648228D01*
X57107708Y-46648235D01*
X57109106Y-46653450D01*
X57111392Y-46658352D01*
X57164974Y-46773261D01*
X57202466Y-46853662D01*
X57205566Y-46858090D01*
X57205570Y-46858096D01*
X57215983Y-46872967D01*
X57329174Y-47034620D01*
X57485380Y-47190826D01*
X57575858Y-47254179D01*
X57661903Y-47314429D01*
X57661906Y-47314430D01*
X57666338Y-47317534D01*
X57795189Y-47377618D01*
X57847364Y-47423373D01*
X57866784Y-47489998D01*
X57847365Y-47556623D01*
X57795190Y-47602381D01*
X57671245Y-47660178D01*
X57671242Y-47660179D01*
X57666339Y-47662466D01*
X57661906Y-47665569D01*
X57661899Y-47665574D01*
X57489815Y-47786068D01*
X57489810Y-47786071D01*
X57485380Y-47789174D01*
X57481556Y-47792997D01*
X57481550Y-47793003D01*
X57333003Y-47941550D01*
X57332997Y-47941556D01*
X57329174Y-47945380D01*
X57326071Y-47949810D01*
X57326068Y-47949815D01*
X57205574Y-48121899D01*
X57205569Y-48121906D01*
X57202466Y-48126339D01*
X57200178Y-48131245D01*
X57200176Y-48131249D01*
X57111393Y-48321643D01*
X57111388Y-48321654D01*
X57109106Y-48326550D01*
X57107706Y-48331772D01*
X57107705Y-48331777D01*
X57053331Y-48534699D01*
X57053328Y-48534711D01*
X57051930Y-48539932D01*
X57051458Y-48545321D01*
X57051457Y-48545330D01*
X57041673Y-48657173D01*
X57032677Y-48760000D01*
X57033149Y-48765395D01*
X57051457Y-48974669D01*
X57051458Y-48974676D01*
X57051930Y-48980068D01*
X57053329Y-48985289D01*
X57053331Y-48985300D01*
X57107706Y-49188228D01*
X57107708Y-49188235D01*
X57109106Y-49193450D01*
X57111392Y-49198352D01*
X57161340Y-49305468D01*
X57202466Y-49393662D01*
X57205566Y-49398090D01*
X57205570Y-49398096D01*
X57309173Y-49546056D01*
X57329174Y-49574620D01*
X57485380Y-49730826D01*
X57575858Y-49794179D01*
X57661903Y-49854429D01*
X57661906Y-49854430D01*
X57666338Y-49857534D01*
X57795189Y-49917618D01*
X57847364Y-49963373D01*
X57866784Y-50029998D01*
X57847365Y-50096623D01*
X57795190Y-50142381D01*
X57671245Y-50200178D01*
X57671242Y-50200179D01*
X57666339Y-50202466D01*
X57661906Y-50205569D01*
X57661899Y-50205574D01*
X57489815Y-50326068D01*
X57489810Y-50326071D01*
X57485380Y-50329174D01*
X57481556Y-50332997D01*
X57481550Y-50333003D01*
X57333003Y-50481550D01*
X57332997Y-50481556D01*
X57329174Y-50485380D01*
X57326071Y-50489810D01*
X57326068Y-50489815D01*
X57205574Y-50661899D01*
X57205569Y-50661906D01*
X57202466Y-50666339D01*
X57200178Y-50671245D01*
X57200176Y-50671249D01*
X57111393Y-50861643D01*
X57111388Y-50861654D01*
X57109106Y-50866550D01*
X57107706Y-50871772D01*
X57107705Y-50871777D01*
X57053331Y-51074699D01*
X57053328Y-51074711D01*
X57051930Y-51079932D01*
X57051458Y-51085321D01*
X57051457Y-51085330D01*
X57049566Y-51106948D01*
X57032677Y-51300000D01*
X57033149Y-51305395D01*
X57051457Y-51514669D01*
X57051458Y-51514676D01*
X57051930Y-51520068D01*
X57053329Y-51525289D01*
X57053331Y-51525300D01*
X57107706Y-51728228D01*
X57107708Y-51728235D01*
X57109106Y-51733450D01*
X57202466Y-51933662D01*
X57205566Y-51938090D01*
X57205570Y-51938096D01*
X57309173Y-52086056D01*
X57329174Y-52114620D01*
X57485380Y-52270826D01*
X57575859Y-52334180D01*
X57661903Y-52394429D01*
X57661906Y-52394430D01*
X57666338Y-52397534D01*
X57795189Y-52457618D01*
X57847364Y-52503373D01*
X57866784Y-52569998D01*
X57847365Y-52636623D01*
X57795190Y-52682381D01*
X57671245Y-52740178D01*
X57671242Y-52740179D01*
X57666339Y-52742466D01*
X57661906Y-52745569D01*
X57661899Y-52745574D01*
X57489815Y-52866068D01*
X57489810Y-52866071D01*
X57485380Y-52869174D01*
X57481556Y-52872997D01*
X57481550Y-52873003D01*
X57333003Y-53021550D01*
X57332997Y-53021556D01*
X57329174Y-53025380D01*
X57326071Y-53029810D01*
X57326068Y-53029815D01*
X57205574Y-53201899D01*
X57205569Y-53201906D01*
X57202466Y-53206339D01*
X57200178Y-53211245D01*
X57200176Y-53211249D01*
X57111393Y-53401643D01*
X57111388Y-53401654D01*
X57109106Y-53406550D01*
X57107706Y-53411772D01*
X57107705Y-53411777D01*
X57053331Y-53614699D01*
X57053328Y-53614711D01*
X57051930Y-53619932D01*
X57051458Y-53625321D01*
X57051457Y-53625330D01*
X57038040Y-53778698D01*
X57032677Y-53840000D01*
X57033149Y-53845395D01*
X57051457Y-54054669D01*
X57051458Y-54054676D01*
X57051930Y-54060068D01*
X57053329Y-54065289D01*
X57053331Y-54065300D01*
X57107706Y-54268228D01*
X57107708Y-54268235D01*
X57109106Y-54273450D01*
X57202466Y-54473662D01*
X57205566Y-54478090D01*
X57205570Y-54478096D01*
X57309173Y-54626056D01*
X57329174Y-54654620D01*
X57485380Y-54810826D01*
X57531284Y-54842968D01*
X57661903Y-54934429D01*
X57661906Y-54934430D01*
X57666338Y-54937534D01*
X57795189Y-54997618D01*
X57847364Y-55043373D01*
X57866784Y-55109998D01*
X57847365Y-55176623D01*
X57795190Y-55222381D01*
X57671245Y-55280178D01*
X57671242Y-55280179D01*
X57666339Y-55282466D01*
X57661906Y-55285569D01*
X57661899Y-55285574D01*
X57489815Y-55406068D01*
X57489810Y-55406071D01*
X57485380Y-55409174D01*
X57481556Y-55412997D01*
X57481550Y-55413003D01*
X57333003Y-55561550D01*
X57332997Y-55561556D01*
X57329174Y-55565380D01*
X57326071Y-55569810D01*
X57326068Y-55569815D01*
X57205574Y-55741899D01*
X57205569Y-55741906D01*
X57202466Y-55746339D01*
X57200178Y-55751245D01*
X57200176Y-55751249D01*
X57111393Y-55941643D01*
X57111388Y-55941654D01*
X57109106Y-55946550D01*
X57107706Y-55951772D01*
X57107705Y-55951777D01*
X57053331Y-56154699D01*
X57053328Y-56154711D01*
X57051930Y-56159932D01*
X57051458Y-56165321D01*
X57051457Y-56165330D01*
X57033386Y-56371890D01*
X57032677Y-56380000D01*
X57033149Y-56385395D01*
X57051457Y-56594669D01*
X57051458Y-56594676D01*
X57051930Y-56600068D01*
X57053329Y-56605289D01*
X57053331Y-56605300D01*
X57107706Y-56808228D01*
X57107708Y-56808235D01*
X57109106Y-56813450D01*
X57202466Y-57013662D01*
X57205566Y-57018090D01*
X57205570Y-57018096D01*
X57302854Y-57157031D01*
X57329174Y-57194620D01*
X57485380Y-57350826D01*
X57575858Y-57414179D01*
X57661903Y-57474429D01*
X57661906Y-57474430D01*
X57666338Y-57477534D01*
X57795189Y-57537618D01*
X57847364Y-57583373D01*
X57866784Y-57649998D01*
X57847365Y-57716623D01*
X57795190Y-57762381D01*
X57671245Y-57820178D01*
X57671242Y-57820179D01*
X57666339Y-57822466D01*
X57661906Y-57825569D01*
X57661899Y-57825574D01*
X57489815Y-57946068D01*
X57489810Y-57946071D01*
X57485380Y-57949174D01*
X57481556Y-57952997D01*
X57481550Y-57953003D01*
X57333003Y-58101550D01*
X57332997Y-58101556D01*
X57329174Y-58105380D01*
X57326071Y-58109810D01*
X57326068Y-58109815D01*
X57205574Y-58281899D01*
X57205569Y-58281906D01*
X57202466Y-58286339D01*
X57200178Y-58291245D01*
X57200176Y-58291249D01*
X57111393Y-58481643D01*
X57111388Y-58481654D01*
X57109106Y-58486550D01*
X57107706Y-58491772D01*
X57107705Y-58491777D01*
X57053331Y-58694699D01*
X57053328Y-58694711D01*
X57051930Y-58699932D01*
X57051458Y-58705321D01*
X57051457Y-58705330D01*
X57043072Y-58801180D01*
X57032677Y-58920000D01*
X57033149Y-58925395D01*
X57051457Y-59134669D01*
X57051458Y-59134676D01*
X57051930Y-59140068D01*
X57053329Y-59145289D01*
X57053331Y-59145300D01*
X57107706Y-59348228D01*
X57107708Y-59348235D01*
X57109106Y-59353450D01*
X57202466Y-59553662D01*
X57205566Y-59558090D01*
X57205570Y-59558096D01*
X57268398Y-59647823D01*
X57329174Y-59734620D01*
X57485380Y-59890826D01*
X57522542Y-59916847D01*
X57661903Y-60014429D01*
X57661906Y-60014430D01*
X57666338Y-60017534D01*
X57795189Y-60077618D01*
X57847364Y-60123373D01*
X57866784Y-60189998D01*
X57847365Y-60256623D01*
X57795190Y-60302381D01*
X57671245Y-60360178D01*
X57671242Y-60360179D01*
X57666339Y-60362466D01*
X57661906Y-60365569D01*
X57661899Y-60365574D01*
X57489815Y-60486068D01*
X57489810Y-60486071D01*
X57485380Y-60489174D01*
X57481556Y-60492997D01*
X57481550Y-60493003D01*
X57333003Y-60641550D01*
X57332997Y-60641556D01*
X57329174Y-60645380D01*
X57326071Y-60649810D01*
X57326068Y-60649815D01*
X57205574Y-60821899D01*
X57205569Y-60821906D01*
X57202466Y-60826339D01*
X57200178Y-60831245D01*
X57200176Y-60831249D01*
X57111393Y-61021643D01*
X57111388Y-61021654D01*
X57109106Y-61026550D01*
X57107706Y-61031772D01*
X57107705Y-61031777D01*
X57053331Y-61234699D01*
X57053328Y-61234711D01*
X57051930Y-61239932D01*
X57051458Y-61245321D01*
X57051457Y-61245330D01*
X57041315Y-61361263D01*
X57032677Y-61460000D01*
X57033149Y-61465395D01*
X57051457Y-61674669D01*
X57051458Y-61674676D01*
X57051930Y-61680068D01*
X57053329Y-61685289D01*
X57053331Y-61685300D01*
X57107706Y-61888228D01*
X57107708Y-61888235D01*
X57109106Y-61893450D01*
X57202466Y-62093662D01*
X57205566Y-62098090D01*
X57205570Y-62098096D01*
X57279890Y-62204235D01*
X57329174Y-62274620D01*
X57485380Y-62430826D01*
X57575859Y-62494180D01*
X57661903Y-62554429D01*
X57661906Y-62554430D01*
X57666338Y-62557534D01*
X57795189Y-62617618D01*
X57847364Y-62663373D01*
X57866784Y-62729998D01*
X57847365Y-62796623D01*
X57795190Y-62842381D01*
X57671245Y-62900178D01*
X57671242Y-62900179D01*
X57666339Y-62902466D01*
X57661906Y-62905569D01*
X57661899Y-62905574D01*
X57489815Y-63026068D01*
X57489810Y-63026071D01*
X57485380Y-63029174D01*
X57481556Y-63032997D01*
X57481550Y-63033003D01*
X57333003Y-63181550D01*
X57332997Y-63181556D01*
X57329174Y-63185380D01*
X57326071Y-63189810D01*
X57326068Y-63189815D01*
X57205574Y-63361899D01*
X57205569Y-63361906D01*
X57202466Y-63366339D01*
X57200178Y-63371245D01*
X57200176Y-63371249D01*
X57111393Y-63561643D01*
X57111388Y-63561654D01*
X57109106Y-63566550D01*
X57107706Y-63571772D01*
X57107705Y-63571777D01*
X57053331Y-63774699D01*
X57053328Y-63774711D01*
X57051930Y-63779932D01*
X57051458Y-63785321D01*
X57051457Y-63785330D01*
X57038037Y-63938736D01*
X57032677Y-64000000D01*
X57033149Y-64005395D01*
X57051457Y-64214669D01*
X57051458Y-64214676D01*
X57051930Y-64220068D01*
X57053329Y-64225289D01*
X57053331Y-64225300D01*
X57107706Y-64428228D01*
X57107708Y-64428235D01*
X57109106Y-64433450D01*
X57111392Y-64438352D01*
X57192325Y-64611916D01*
X57202466Y-64633662D01*
X57205566Y-64638090D01*
X57205570Y-64638096D01*
X57288778Y-64756928D01*
X57329174Y-64814620D01*
X57485380Y-64970826D01*
X57545244Y-65012743D01*
X57661903Y-65094429D01*
X57661906Y-65094430D01*
X57666338Y-65097534D01*
X57795189Y-65157618D01*
X57847364Y-65203373D01*
X57866784Y-65269998D01*
X57847365Y-65336623D01*
X57795190Y-65382381D01*
X57671245Y-65440178D01*
X57671242Y-65440179D01*
X57666339Y-65442466D01*
X57661906Y-65445569D01*
X57661899Y-65445574D01*
X57489815Y-65566068D01*
X57489810Y-65566071D01*
X57485380Y-65569174D01*
X57481556Y-65572997D01*
X57481550Y-65573003D01*
X57333003Y-65721550D01*
X57332997Y-65721556D01*
X57329174Y-65725380D01*
X57326071Y-65729810D01*
X57326068Y-65729815D01*
X57205574Y-65901899D01*
X57205569Y-65901906D01*
X57202466Y-65906339D01*
X57200178Y-65911245D01*
X57200176Y-65911249D01*
X57111393Y-66101643D01*
X57111388Y-66101654D01*
X57109106Y-66106550D01*
X57107706Y-66111772D01*
X57107705Y-66111777D01*
X57053331Y-66314699D01*
X57053328Y-66314711D01*
X57051930Y-66319932D01*
X57051458Y-66325321D01*
X57051457Y-66325330D01*
X57038037Y-66478736D01*
X57032677Y-66540000D01*
X50064556Y-66540000D01*
X50048141Y-66478736D01*
X50048140Y-66478734D01*
X50046739Y-66473504D01*
X49950568Y-66267266D01*
X49820047Y-66080861D01*
X49659139Y-65919953D01*
X49472734Y-65789432D01*
X49414724Y-65762381D01*
X49362549Y-65716625D01*
X49343130Y-65650000D01*
X49362549Y-65583375D01*
X49414725Y-65537618D01*
X49472734Y-65510568D01*
X49659139Y-65380047D01*
X49820047Y-65219139D01*
X49950568Y-65032734D01*
X50046739Y-64826496D01*
X50105635Y-64606692D01*
X50125468Y-64380000D01*
X50105635Y-64153308D01*
X50066002Y-64005395D01*
X50048141Y-63938736D01*
X50048140Y-63938734D01*
X50046739Y-63933504D01*
X49950568Y-63727266D01*
X49820047Y-63540861D01*
X49659139Y-63379953D01*
X49472734Y-63249432D01*
X49266496Y-63153261D01*
X49261271Y-63151861D01*
X49261263Y-63151858D01*
X49051916Y-63095764D01*
X49051907Y-63095762D01*
X49046692Y-63094365D01*
X49041304Y-63093893D01*
X49041301Y-63093893D01*
X48825395Y-63075004D01*
X48820000Y-63074532D01*
X48814605Y-63075004D01*
X48598698Y-63093893D01*
X48598693Y-63093893D01*
X48593308Y-63094365D01*
X48588094Y-63095762D01*
X48588083Y-63095764D01*
X48378736Y-63151858D01*
X48378724Y-63151862D01*
X48373504Y-63153261D01*
X48368599Y-63155547D01*
X48368594Y-63155550D01*
X48172176Y-63247142D01*
X48172172Y-63247144D01*
X48167266Y-63249432D01*
X48162833Y-63252535D01*
X48162826Y-63252540D01*
X47985296Y-63376847D01*
X47985291Y-63376850D01*
X47980861Y-63379953D01*
X47977037Y-63383776D01*
X47977031Y-63383782D01*
X47823782Y-63537031D01*
X47823776Y-63537037D01*
X47819953Y-63540861D01*
X47816850Y-63545291D01*
X47816847Y-63545296D01*
X47692540Y-63722826D01*
X47692535Y-63722833D01*
X47689432Y-63727266D01*
X47687144Y-63732172D01*
X47687142Y-63732176D01*
X47595550Y-63928594D01*
X47595547Y-63928599D01*
X47593261Y-63933504D01*
X47591862Y-63938724D01*
X47591858Y-63938736D01*
X47535764Y-64148083D01*
X47535762Y-64148094D01*
X47534365Y-64153308D01*
X47533893Y-64158693D01*
X47533893Y-64158698D01*
X47515004Y-64374605D01*
X47514532Y-64380000D01*
X47515004Y-64385395D01*
X47525030Y-64500000D01*
X47534365Y-64606692D01*
X47535762Y-64611907D01*
X47535764Y-64611916D01*
X47591858Y-64821263D01*
X47591861Y-64821271D01*
X47593261Y-64826496D01*
X47689432Y-65032734D01*
X47819953Y-65219139D01*
X47980861Y-65380047D01*
X48167266Y-65510568D01*
X48172172Y-65512855D01*
X48172176Y-65512858D01*
X48225274Y-65537618D01*
X48277450Y-65583375D01*
X48296869Y-65650000D01*
X48277450Y-65716625D01*
X48225274Y-65762382D01*
X48172176Y-65787141D01*
X48172163Y-65787148D01*
X48167266Y-65789432D01*
X48162833Y-65792535D01*
X48162826Y-65792540D01*
X47985296Y-65916847D01*
X47985294Y-65916849D01*
X47980861Y-65919953D01*
X47977037Y-65923776D01*
X47977031Y-65923782D01*
X47823782Y-66077031D01*
X47823776Y-66077037D01*
X47819953Y-66080861D01*
X47816850Y-66085291D01*
X47816847Y-66085296D01*
X47692540Y-66262826D01*
X47692535Y-66262833D01*
X47689432Y-66267266D01*
X47687144Y-66272172D01*
X47687142Y-66272176D01*
X47595550Y-66468594D01*
X47595547Y-66468599D01*
X47593261Y-66473504D01*
X47591862Y-66478724D01*
X47591858Y-66478736D01*
X47535764Y-66688083D01*
X47535762Y-66688094D01*
X47534365Y-66693308D01*
X47533893Y-66698693D01*
X47533893Y-66698698D01*
X47515004Y-66914605D01*
X47514532Y-66920000D01*
X47534365Y-67146692D01*
X47535762Y-67151907D01*
X47535764Y-67151916D01*
X47591858Y-67361263D01*
X47591861Y-67361271D01*
X47593261Y-67366496D01*
X47689432Y-67572734D01*
X47819953Y-67759139D01*
X47980861Y-67920047D01*
X48167266Y-68050568D01*
X48172172Y-68052855D01*
X48172176Y-68052858D01*
X48225274Y-68077618D01*
X48277450Y-68123375D01*
X48296869Y-68190000D01*
X48277450Y-68256625D01*
X48225274Y-68302382D01*
X48172176Y-68327141D01*
X48172163Y-68327148D01*
X48167266Y-68329432D01*
X48162833Y-68332535D01*
X48162826Y-68332540D01*
X47985296Y-68456847D01*
X47985291Y-68456850D01*
X47980861Y-68459953D01*
X47977037Y-68463776D01*
X47977031Y-68463782D01*
X47823782Y-68617031D01*
X47823776Y-68617037D01*
X47819953Y-68620861D01*
X47816850Y-68625291D01*
X47816847Y-68625296D01*
X47692540Y-68802826D01*
X47692535Y-68802833D01*
X47689432Y-68807266D01*
X47687144Y-68812172D01*
X47687142Y-68812176D01*
X47595550Y-69008594D01*
X47595547Y-69008599D01*
X47593261Y-69013504D01*
X47591862Y-69018724D01*
X47591858Y-69018736D01*
X47535764Y-69228083D01*
X47535762Y-69228094D01*
X47534365Y-69233308D01*
X47514532Y-69460000D01*
X47534365Y-69686692D01*
X47535762Y-69691907D01*
X47535764Y-69691916D01*
X47591858Y-69901263D01*
X47591861Y-69901271D01*
X47593261Y-69906496D01*
X47595549Y-69911403D01*
X47595550Y-69911405D01*
X47614732Y-69952540D01*
X47689432Y-70112734D01*
X47692539Y-70117171D01*
X47692540Y-70117173D01*
X47732323Y-70173989D01*
X47819953Y-70299139D01*
X47980861Y-70460047D01*
X48167266Y-70590568D01*
X48172172Y-70592855D01*
X48172176Y-70592858D01*
X48225274Y-70617618D01*
X48277450Y-70663375D01*
X48296869Y-70730000D01*
X48277450Y-70796625D01*
X48225274Y-70842382D01*
X48172176Y-70867141D01*
X48172163Y-70867148D01*
X48167266Y-70869432D01*
X48162833Y-70872535D01*
X48162826Y-70872540D01*
X47985296Y-70996847D01*
X47985291Y-70996850D01*
X47980861Y-70999953D01*
X47977037Y-71003776D01*
X47977031Y-71003782D01*
X47823782Y-71157031D01*
X47823776Y-71157037D01*
X47819953Y-71160861D01*
X47816850Y-71165291D01*
X47816847Y-71165296D01*
X47692540Y-71342826D01*
X47692535Y-71342833D01*
X47689432Y-71347266D01*
X47687144Y-71352172D01*
X47687142Y-71352176D01*
X47595550Y-71548594D01*
X47595547Y-71548599D01*
X47593261Y-71553504D01*
X47591862Y-71558724D01*
X47591858Y-71558736D01*
X47535764Y-71768083D01*
X47535762Y-71768094D01*
X47534365Y-71773308D01*
X47533893Y-71778693D01*
X47533893Y-71778698D01*
X47521606Y-71919139D01*
X47514532Y-72000000D01*
X24000500Y-72000000D01*
X24000500Y-70794578D01*
X29249500Y-70794578D01*
X29249501Y-70797872D01*
X29249853Y-70801150D01*
X29249854Y-70801161D01*
X29255079Y-70849768D01*
X29255080Y-70849773D01*
X29255909Y-70857483D01*
X29258619Y-70864749D01*
X29258620Y-70864753D01*
X29261684Y-70872967D01*
X29306204Y-70992331D01*
X29392454Y-71107546D01*
X29507669Y-71193796D01*
X29642517Y-71244091D01*
X29702127Y-71250500D01*
X32297872Y-71250499D01*
X32357483Y-71244091D01*
X32492331Y-71193796D01*
X32607546Y-71107546D01*
X32693796Y-70992331D01*
X32744091Y-70857483D01*
X32750500Y-70797873D01*
X32750499Y-69460000D01*
X39894532Y-69460000D01*
X39914365Y-69686692D01*
X39915762Y-69691907D01*
X39915764Y-69691916D01*
X39971858Y-69901263D01*
X39971861Y-69901271D01*
X39973261Y-69906496D01*
X39975549Y-69911403D01*
X39975550Y-69911405D01*
X39994732Y-69952540D01*
X40069432Y-70112734D01*
X40072539Y-70117171D01*
X40072540Y-70117173D01*
X40112323Y-70173989D01*
X40199953Y-70299139D01*
X40360861Y-70460047D01*
X40547266Y-70590568D01*
X40552175Y-70592857D01*
X40552180Y-70592860D01*
X40605864Y-70617893D01*
X40658040Y-70663649D01*
X40677460Y-70730274D01*
X40658041Y-70796899D01*
X40605866Y-70842657D01*
X40552416Y-70867581D01*
X40543087Y-70872967D01*
X40365618Y-70997232D01*
X40357352Y-71004169D01*
X40204169Y-71157352D01*
X40197232Y-71165618D01*
X40072967Y-71343087D01*
X40067579Y-71352419D01*
X39976022Y-71548765D01*
X39972330Y-71558907D01*
X39924820Y-71736219D01*
X39924452Y-71747448D01*
X39935395Y-71750000D01*
X42464605Y-71750000D01*
X42475547Y-71747448D01*
X42475179Y-71736219D01*
X42427669Y-71558907D01*
X42423977Y-71548765D01*
X42332420Y-71352419D01*
X42327032Y-71343087D01*
X42202767Y-71165618D01*
X42195830Y-71157352D01*
X42042647Y-71004169D01*
X42034381Y-70997232D01*
X41856912Y-70872967D01*
X41847579Y-70867579D01*
X41794134Y-70842657D01*
X41741958Y-70796899D01*
X41722539Y-70730274D01*
X41741959Y-70663649D01*
X41794131Y-70617894D01*
X41852734Y-70590568D01*
X42039139Y-70460047D01*
X42200047Y-70299139D01*
X42330568Y-70112734D01*
X42426739Y-69906496D01*
X42485635Y-69686692D01*
X42505468Y-69460000D01*
X42485635Y-69233308D01*
X42446002Y-69085395D01*
X42428141Y-69018736D01*
X42428140Y-69018734D01*
X42426739Y-69013504D01*
X42330568Y-68807266D01*
X42200047Y-68620861D01*
X42039139Y-68459953D01*
X41852734Y-68329432D01*
X41794724Y-68302381D01*
X41742549Y-68256625D01*
X41723130Y-68190000D01*
X41742549Y-68123375D01*
X41794725Y-68077618D01*
X41852734Y-68050568D01*
X42039139Y-67920047D01*
X42200047Y-67759139D01*
X42330568Y-67572734D01*
X42426739Y-67366496D01*
X42485635Y-67146692D01*
X42505468Y-66920000D01*
X42485635Y-66693308D01*
X42446002Y-66545395D01*
X42428141Y-66478736D01*
X42428140Y-66478734D01*
X42426739Y-66473504D01*
X42330568Y-66267266D01*
X42200047Y-66080861D01*
X42039139Y-65919953D01*
X42014535Y-65902725D01*
X41975398Y-65857883D01*
X41961665Y-65799969D01*
X41976499Y-65742328D01*
X42016485Y-65698239D01*
X42072406Y-65677861D01*
X42107483Y-65674091D01*
X42242331Y-65623796D01*
X42357546Y-65537546D01*
X42443796Y-65422331D01*
X42494091Y-65287483D01*
X42500500Y-65227873D01*
X42500499Y-63532128D01*
X42494091Y-63472517D01*
X42443796Y-63337669D01*
X42357546Y-63222454D01*
X42302905Y-63181550D01*
X42249431Y-63141519D01*
X42249430Y-63141518D01*
X42242331Y-63136204D01*
X42130155Y-63094365D01*
X42114752Y-63088620D01*
X42114750Y-63088619D01*
X42107483Y-63085909D01*
X42099770Y-63085079D01*
X42099767Y-63085079D01*
X42051180Y-63079855D01*
X42051169Y-63079854D01*
X42047873Y-63079500D01*
X42044550Y-63079500D01*
X40355439Y-63079500D01*
X40355420Y-63079500D01*
X40352128Y-63079501D01*
X40348850Y-63079853D01*
X40348838Y-63079854D01*
X40300231Y-63085079D01*
X40300225Y-63085080D01*
X40292517Y-63085909D01*
X40285252Y-63088618D01*
X40285246Y-63088620D01*
X40165980Y-63133104D01*
X40165978Y-63133104D01*
X40157669Y-63136204D01*
X40150572Y-63141516D01*
X40150568Y-63141519D01*
X40049550Y-63217141D01*
X40049546Y-63217144D01*
X40042454Y-63222454D01*
X40037144Y-63229546D01*
X40037141Y-63229550D01*
X39961519Y-63330568D01*
X39961516Y-63330572D01*
X39956204Y-63337669D01*
X39953104Y-63345978D01*
X39953104Y-63345980D01*
X39908620Y-63465247D01*
X39908619Y-63465250D01*
X39905909Y-63472517D01*
X39905079Y-63480227D01*
X39905079Y-63480232D01*
X39899855Y-63528819D01*
X39899854Y-63528831D01*
X39899500Y-63532127D01*
X39899500Y-63535448D01*
X39899500Y-63535449D01*
X39899500Y-65224560D01*
X39899500Y-65224578D01*
X39899501Y-65227872D01*
X39899853Y-65231150D01*
X39899854Y-65231161D01*
X39905079Y-65279768D01*
X39905080Y-65279773D01*
X39905909Y-65287483D01*
X39908619Y-65294749D01*
X39908620Y-65294753D01*
X39928893Y-65349106D01*
X39956204Y-65422331D01*
X39961518Y-65429430D01*
X39961519Y-65429431D01*
X40023972Y-65512858D01*
X40042454Y-65537546D01*
X40157669Y-65623796D01*
X40292517Y-65674091D01*
X40327599Y-65677862D01*
X40383516Y-65698240D01*
X40423500Y-65742328D01*
X40438334Y-65799969D01*
X40424601Y-65857882D01*
X40385465Y-65902725D01*
X40373292Y-65911249D01*
X40360861Y-65919953D01*
X40357037Y-65923776D01*
X40357031Y-65923782D01*
X40203782Y-66077031D01*
X40203776Y-66077037D01*
X40199953Y-66080861D01*
X40196850Y-66085291D01*
X40196847Y-66085296D01*
X40072540Y-66262826D01*
X40072535Y-66262833D01*
X40069432Y-66267266D01*
X40067144Y-66272172D01*
X40067142Y-66272176D01*
X39975550Y-66468594D01*
X39975547Y-66468599D01*
X39973261Y-66473504D01*
X39971862Y-66478724D01*
X39971858Y-66478736D01*
X39915764Y-66688083D01*
X39915762Y-66688094D01*
X39914365Y-66693308D01*
X39913893Y-66698693D01*
X39913893Y-66698698D01*
X39895004Y-66914605D01*
X39894532Y-66920000D01*
X39914365Y-67146692D01*
X39915762Y-67151907D01*
X39915764Y-67151916D01*
X39971858Y-67361263D01*
X39971861Y-67361271D01*
X39973261Y-67366496D01*
X40069432Y-67572734D01*
X40199953Y-67759139D01*
X40360861Y-67920047D01*
X40547266Y-68050568D01*
X40552172Y-68052855D01*
X40552176Y-68052858D01*
X40605274Y-68077618D01*
X40657450Y-68123375D01*
X40676869Y-68190000D01*
X40657450Y-68256625D01*
X40605274Y-68302382D01*
X40552176Y-68327141D01*
X40552163Y-68327148D01*
X40547266Y-68329432D01*
X40542833Y-68332535D01*
X40542826Y-68332540D01*
X40365296Y-68456847D01*
X40365291Y-68456850D01*
X40360861Y-68459953D01*
X40357037Y-68463776D01*
X40357031Y-68463782D01*
X40203782Y-68617031D01*
X40203776Y-68617037D01*
X40199953Y-68620861D01*
X40196850Y-68625291D01*
X40196847Y-68625296D01*
X40072540Y-68802826D01*
X40072535Y-68802833D01*
X40069432Y-68807266D01*
X40067144Y-68812172D01*
X40067142Y-68812176D01*
X39975550Y-69008594D01*
X39975547Y-69008599D01*
X39973261Y-69013504D01*
X39971862Y-69018724D01*
X39971858Y-69018736D01*
X39915764Y-69228083D01*
X39915762Y-69228094D01*
X39914365Y-69233308D01*
X39894532Y-69460000D01*
X32750499Y-69460000D01*
X32750499Y-68202128D01*
X32744091Y-68142517D01*
X32693796Y-68007669D01*
X32607546Y-67892454D01*
X32492331Y-67806204D01*
X32421965Y-67779959D01*
X32364752Y-67758620D01*
X32364750Y-67758619D01*
X32357483Y-67755909D01*
X32349770Y-67755079D01*
X32349767Y-67755079D01*
X32301180Y-67749855D01*
X32301169Y-67749854D01*
X32297873Y-67749500D01*
X32294550Y-67749500D01*
X29705439Y-67749500D01*
X29705420Y-67749500D01*
X29702128Y-67749501D01*
X29698850Y-67749853D01*
X29698838Y-67749854D01*
X29650231Y-67755079D01*
X29650225Y-67755080D01*
X29642517Y-67755909D01*
X29635252Y-67758618D01*
X29635246Y-67758620D01*
X29515980Y-67803104D01*
X29515978Y-67803104D01*
X29507669Y-67806204D01*
X29500572Y-67811516D01*
X29500568Y-67811519D01*
X29399550Y-67887141D01*
X29399546Y-67887144D01*
X29392454Y-67892454D01*
X29387144Y-67899546D01*
X29387141Y-67899550D01*
X29311519Y-68000568D01*
X29311516Y-68000572D01*
X29306204Y-68007669D01*
X29303104Y-68015978D01*
X29303104Y-68015980D01*
X29258620Y-68135247D01*
X29258619Y-68135250D01*
X29255909Y-68142517D01*
X29255079Y-68150227D01*
X29255079Y-68150232D01*
X29249855Y-68198819D01*
X29249854Y-68198831D01*
X29249500Y-68202127D01*
X29249500Y-68205448D01*
X29249500Y-68205449D01*
X29249500Y-70794560D01*
X29249500Y-70794578D01*
X24000500Y-70794578D01*
X24000500Y-65902368D01*
X29954586Y-65902368D01*
X29962133Y-65910425D01*
X30118711Y-66017178D01*
X30126732Y-66021809D01*
X30354681Y-66131584D01*
X30363291Y-66134964D01*
X30605065Y-66209541D01*
X30614081Y-66211599D01*
X30864270Y-66249308D01*
X30873493Y-66250000D01*
X31126507Y-66250000D01*
X31135729Y-66249308D01*
X31385918Y-66211599D01*
X31394934Y-66209541D01*
X31636708Y-66134964D01*
X31645318Y-66131584D01*
X31873267Y-66021810D01*
X31881295Y-66017174D01*
X32037863Y-65910427D01*
X32045411Y-65902368D01*
X32039494Y-65893048D01*
X31011542Y-64865095D01*
X31000000Y-64858431D01*
X30988457Y-64865095D01*
X29960502Y-65893050D01*
X29954586Y-65902368D01*
X24000500Y-65902368D01*
X24000500Y-64504630D01*
X29245440Y-64504630D01*
X29264347Y-64756928D01*
X29265725Y-64766076D01*
X29322026Y-65012743D01*
X29324755Y-65021591D01*
X29417185Y-65257101D01*
X29421204Y-65265447D01*
X29547707Y-65484555D01*
X29552920Y-65492200D01*
X29586959Y-65534885D01*
X29598194Y-65542856D01*
X29610252Y-65536192D01*
X30634903Y-64511542D01*
X30641567Y-64500000D01*
X31358431Y-64500000D01*
X31365095Y-64511542D01*
X32389746Y-65536192D01*
X32401803Y-65542856D01*
X32413040Y-65534884D01*
X32447080Y-65492199D01*
X32452290Y-65484557D01*
X32578795Y-65265447D01*
X32582814Y-65257101D01*
X32675244Y-65021591D01*
X32677973Y-65012743D01*
X32734274Y-64766076D01*
X32735652Y-64756928D01*
X32754560Y-64504630D01*
X32754560Y-64495370D01*
X32735652Y-64243071D01*
X32734274Y-64233923D01*
X32677973Y-63987256D01*
X32675244Y-63978408D01*
X32582814Y-63742898D01*
X32578795Y-63734552D01*
X32452292Y-63515444D01*
X32447079Y-63507799D01*
X32413040Y-63465115D01*
X32401803Y-63457142D01*
X32389746Y-63463806D01*
X31365095Y-64488457D01*
X31358431Y-64500000D01*
X30641567Y-64500000D01*
X30634903Y-64488457D01*
X29610253Y-63463807D01*
X29598194Y-63457143D01*
X29586958Y-63465115D01*
X29552916Y-63507804D01*
X29547710Y-63515440D01*
X29421204Y-63734552D01*
X29417185Y-63742898D01*
X29324755Y-63978408D01*
X29322026Y-63987256D01*
X29265725Y-64233923D01*
X29264347Y-64243071D01*
X29245440Y-64495370D01*
X29245440Y-64504630D01*
X24000500Y-64504630D01*
X24000500Y-63097630D01*
X29954586Y-63097630D01*
X29960502Y-63106948D01*
X30988457Y-64134903D01*
X30999999Y-64141567D01*
X31011542Y-64134903D01*
X32039496Y-63106948D01*
X32045412Y-63097630D01*
X32037865Y-63089572D01*
X31881289Y-62982821D01*
X31873268Y-62978190D01*
X31645318Y-62868415D01*
X31636708Y-62865035D01*
X31394934Y-62790458D01*
X31385918Y-62788400D01*
X31135729Y-62750691D01*
X31126507Y-62750000D01*
X30873493Y-62750000D01*
X30864270Y-62750691D01*
X30614081Y-62788400D01*
X30605065Y-62790458D01*
X30363291Y-62865035D01*
X30354681Y-62868415D01*
X30126731Y-62978191D01*
X30118709Y-62982822D01*
X29962133Y-63089572D01*
X29954586Y-63097630D01*
X24000500Y-63097630D01*
X24000500Y-60920000D01*
X52694532Y-60920000D01*
X52695004Y-60925395D01*
X52703424Y-61021643D01*
X52714365Y-61146692D01*
X52715762Y-61151907D01*
X52715764Y-61151916D01*
X52771858Y-61361263D01*
X52771861Y-61361271D01*
X52773261Y-61366496D01*
X52869432Y-61572734D01*
X52999953Y-61759139D01*
X53160861Y-61920047D01*
X53347266Y-62050568D01*
X53553504Y-62146739D01*
X53773308Y-62205635D01*
X54000000Y-62225468D01*
X54226692Y-62205635D01*
X54446496Y-62146739D01*
X54652734Y-62050568D01*
X54839139Y-61920047D01*
X55000047Y-61759139D01*
X55130568Y-61572734D01*
X55226739Y-61366496D01*
X55285635Y-61146692D01*
X55305468Y-60920000D01*
X55285635Y-60693308D01*
X55230938Y-60489174D01*
X55228141Y-60478736D01*
X55228140Y-60478734D01*
X55226739Y-60473504D01*
X55130568Y-60267266D01*
X55000047Y-60080861D01*
X54839139Y-59919953D01*
X54652734Y-59789432D01*
X54494981Y-59715870D01*
X54451405Y-59695550D01*
X54451403Y-59695549D01*
X54446496Y-59693261D01*
X54441271Y-59691861D01*
X54441263Y-59691858D01*
X54231916Y-59635764D01*
X54231907Y-59635762D01*
X54226692Y-59634365D01*
X54221304Y-59633893D01*
X54221301Y-59633893D01*
X54005395Y-59615004D01*
X54000000Y-59614532D01*
X53994605Y-59615004D01*
X53778698Y-59633893D01*
X53778693Y-59633893D01*
X53773308Y-59634365D01*
X53768094Y-59635762D01*
X53768083Y-59635764D01*
X53558736Y-59691858D01*
X53558724Y-59691862D01*
X53553504Y-59693261D01*
X53548599Y-59695547D01*
X53548594Y-59695550D01*
X53352176Y-59787142D01*
X53352172Y-59787144D01*
X53347266Y-59789432D01*
X53342833Y-59792535D01*
X53342826Y-59792540D01*
X53165296Y-59916847D01*
X53165291Y-59916850D01*
X53160861Y-59919953D01*
X53157037Y-59923776D01*
X53157031Y-59923782D01*
X53003782Y-60077031D01*
X53003776Y-60077037D01*
X52999953Y-60080861D01*
X52996850Y-60085291D01*
X52996847Y-60085296D01*
X52872540Y-60262826D01*
X52872535Y-60262833D01*
X52869432Y-60267266D01*
X52867144Y-60272172D01*
X52867142Y-60272176D01*
X52775550Y-60468594D01*
X52775547Y-60468599D01*
X52773261Y-60473504D01*
X52771862Y-60478724D01*
X52771858Y-60478736D01*
X52715764Y-60688083D01*
X52715762Y-60688094D01*
X52714365Y-60693308D01*
X52694532Y-60920000D01*
X24000500Y-60920000D01*
X24000500Y-60078703D01*
X45278217Y-60078703D01*
X45285650Y-60086814D01*
X45343077Y-60127025D01*
X45352427Y-60132423D01*
X45548768Y-60223979D01*
X45558902Y-60227667D01*
X45768162Y-60283739D01*
X45778793Y-60285613D01*
X45994605Y-60304494D01*
X46005395Y-60304494D01*
X46221206Y-60285613D01*
X46231837Y-60283739D01*
X46441097Y-60227667D01*
X46451231Y-60223979D01*
X46647575Y-60132422D01*
X46656920Y-60127026D01*
X46714348Y-60086814D01*
X46721780Y-60078703D01*
X46715867Y-60069421D01*
X46011542Y-59365095D01*
X46000000Y-59358431D01*
X45988457Y-59365095D01*
X45284128Y-60069424D01*
X45278217Y-60078703D01*
X24000500Y-60078703D01*
X24000500Y-58794578D01*
X29249500Y-58794578D01*
X29249501Y-58797872D01*
X29249853Y-58801150D01*
X29249854Y-58801161D01*
X29255079Y-58849768D01*
X29255080Y-58849773D01*
X29255909Y-58857483D01*
X29258619Y-58864749D01*
X29258620Y-58864753D01*
X29292217Y-58954831D01*
X29306204Y-58992331D01*
X29392454Y-59107546D01*
X29507669Y-59193796D01*
X29642517Y-59244091D01*
X29702127Y-59250500D01*
X32297872Y-59250499D01*
X32357483Y-59244091D01*
X32492331Y-59193796D01*
X32607546Y-59107546D01*
X32684016Y-59005395D01*
X44695506Y-59005395D01*
X44714386Y-59221206D01*
X44716260Y-59231837D01*
X44772332Y-59441097D01*
X44776020Y-59451231D01*
X44867576Y-59647572D01*
X44872974Y-59656922D01*
X44913184Y-59714348D01*
X44921295Y-59721781D01*
X44930574Y-59715870D01*
X45634903Y-59011541D01*
X45641567Y-58999999D01*
X46358431Y-58999999D01*
X46365095Y-59011541D01*
X47069421Y-59715867D01*
X47078703Y-59721780D01*
X47086814Y-59714348D01*
X47127026Y-59656920D01*
X47132422Y-59647575D01*
X47223979Y-59451231D01*
X47227667Y-59441097D01*
X47283739Y-59231837D01*
X47285613Y-59221206D01*
X47304494Y-59005395D01*
X47304494Y-59000000D01*
X49694532Y-59000000D01*
X49714365Y-59226692D01*
X49715762Y-59231907D01*
X49715764Y-59231916D01*
X49771858Y-59441263D01*
X49771861Y-59441271D01*
X49773261Y-59446496D01*
X49869432Y-59652734D01*
X49999953Y-59839139D01*
X50160861Y-60000047D01*
X50347266Y-60130568D01*
X50553504Y-60226739D01*
X50558734Y-60228140D01*
X50558736Y-60228141D01*
X50723078Y-60272176D01*
X50773308Y-60285635D01*
X51000000Y-60305468D01*
X51226692Y-60285635D01*
X51446496Y-60226739D01*
X51652734Y-60130568D01*
X51839139Y-60000047D01*
X52000047Y-59839139D01*
X52130568Y-59652734D01*
X52226739Y-59446496D01*
X52285635Y-59226692D01*
X52305468Y-59000000D01*
X52285635Y-58773308D01*
X52254517Y-58657173D01*
X52228141Y-58558736D01*
X52228140Y-58558734D01*
X52226739Y-58553504D01*
X52130568Y-58347266D01*
X52000047Y-58160861D01*
X51839186Y-58000000D01*
X52694532Y-58000000D01*
X52695004Y-58005395D01*
X52708993Y-58165296D01*
X52714365Y-58226692D01*
X52715762Y-58231907D01*
X52715764Y-58231916D01*
X52771858Y-58441263D01*
X52771861Y-58441271D01*
X52773261Y-58446496D01*
X52869432Y-58652734D01*
X52872539Y-58657171D01*
X52872540Y-58657173D01*
X52950255Y-58768162D01*
X52999953Y-58839139D01*
X53160861Y-59000047D01*
X53347266Y-59130568D01*
X53553504Y-59226739D01*
X53558734Y-59228140D01*
X53558736Y-59228141D01*
X53768083Y-59284235D01*
X53773308Y-59285635D01*
X54000000Y-59305468D01*
X54226692Y-59285635D01*
X54446496Y-59226739D01*
X54652734Y-59130568D01*
X54839139Y-59000047D01*
X55000047Y-58839139D01*
X55130568Y-58652734D01*
X55226739Y-58446496D01*
X55285635Y-58226692D01*
X55305468Y-58000000D01*
X55285635Y-57773308D01*
X55226739Y-57553504D01*
X55130568Y-57347266D01*
X55000047Y-57160861D01*
X54839139Y-56999953D01*
X54652734Y-56869432D01*
X54532681Y-56813450D01*
X54451405Y-56775550D01*
X54451403Y-56775549D01*
X54446496Y-56773261D01*
X54441271Y-56771861D01*
X54441263Y-56771858D01*
X54231916Y-56715764D01*
X54231907Y-56715762D01*
X54226692Y-56714365D01*
X54221304Y-56713893D01*
X54221301Y-56713893D01*
X54005395Y-56695004D01*
X54000000Y-56694532D01*
X53994605Y-56695004D01*
X53778698Y-56713893D01*
X53778693Y-56713893D01*
X53773308Y-56714365D01*
X53768094Y-56715762D01*
X53768083Y-56715764D01*
X53558736Y-56771858D01*
X53558724Y-56771862D01*
X53553504Y-56773261D01*
X53548599Y-56775547D01*
X53548594Y-56775550D01*
X53352176Y-56867142D01*
X53352172Y-56867144D01*
X53347266Y-56869432D01*
X53342833Y-56872535D01*
X53342826Y-56872540D01*
X53165296Y-56996847D01*
X53165291Y-56996850D01*
X53160861Y-56999953D01*
X53157037Y-57003776D01*
X53157031Y-57003782D01*
X53003782Y-57157031D01*
X53003776Y-57157037D01*
X52999953Y-57160861D01*
X52996850Y-57165291D01*
X52996847Y-57165296D01*
X52872540Y-57342826D01*
X52872535Y-57342833D01*
X52869432Y-57347266D01*
X52867144Y-57352172D01*
X52867142Y-57352176D01*
X52775550Y-57548594D01*
X52775547Y-57548599D01*
X52773261Y-57553504D01*
X52771862Y-57558724D01*
X52771858Y-57558736D01*
X52715764Y-57768083D01*
X52715762Y-57768094D01*
X52714365Y-57773308D01*
X52713893Y-57778693D01*
X52713893Y-57778698D01*
X52702127Y-57913184D01*
X52694532Y-58000000D01*
X51839186Y-58000000D01*
X51839139Y-57999953D01*
X51715219Y-57913184D01*
X51657173Y-57872540D01*
X51657171Y-57872539D01*
X51652734Y-57869432D01*
X51446496Y-57773261D01*
X51441271Y-57771861D01*
X51441263Y-57771858D01*
X51231916Y-57715764D01*
X51231907Y-57715762D01*
X51226692Y-57714365D01*
X51221304Y-57713893D01*
X51221301Y-57713893D01*
X51005395Y-57695004D01*
X51000000Y-57694532D01*
X50994605Y-57695004D01*
X50778698Y-57713893D01*
X50778693Y-57713893D01*
X50773308Y-57714365D01*
X50768094Y-57715762D01*
X50768083Y-57715764D01*
X50558736Y-57771858D01*
X50558724Y-57771862D01*
X50553504Y-57773261D01*
X50548599Y-57775547D01*
X50548594Y-57775550D01*
X50352176Y-57867142D01*
X50352172Y-57867144D01*
X50347266Y-57869432D01*
X50342833Y-57872535D01*
X50342826Y-57872540D01*
X50165296Y-57996847D01*
X50165291Y-57996850D01*
X50160861Y-57999953D01*
X50157037Y-58003776D01*
X50157031Y-58003782D01*
X50003782Y-58157031D01*
X50003776Y-58157037D01*
X49999953Y-58160861D01*
X49996850Y-58165291D01*
X49996847Y-58165296D01*
X49872540Y-58342826D01*
X49872535Y-58342833D01*
X49869432Y-58347266D01*
X49867144Y-58352172D01*
X49867142Y-58352176D01*
X49775550Y-58548594D01*
X49775547Y-58548599D01*
X49773261Y-58553504D01*
X49771862Y-58558724D01*
X49771858Y-58558736D01*
X49715764Y-58768083D01*
X49715762Y-58768094D01*
X49714365Y-58773308D01*
X49713893Y-58778693D01*
X49713893Y-58778698D01*
X49702003Y-58914605D01*
X49694532Y-59000000D01*
X47304494Y-59000000D01*
X47304494Y-58994605D01*
X47285613Y-58778793D01*
X47283739Y-58768162D01*
X47227667Y-58558902D01*
X47223979Y-58548768D01*
X47132423Y-58352427D01*
X47127025Y-58343077D01*
X47086814Y-58285650D01*
X47078703Y-58278217D01*
X47069424Y-58284128D01*
X46365095Y-58988456D01*
X46358431Y-58999999D01*
X45641567Y-58999999D01*
X45634903Y-58988456D01*
X44930574Y-58284128D01*
X44921296Y-58278217D01*
X44913183Y-58285651D01*
X44872971Y-58343081D01*
X44867577Y-58352425D01*
X44776020Y-58548768D01*
X44772332Y-58558902D01*
X44716260Y-58768162D01*
X44714386Y-58778793D01*
X44695506Y-58994605D01*
X44695506Y-59005395D01*
X32684016Y-59005395D01*
X32693796Y-58992331D01*
X32744091Y-58857483D01*
X32750500Y-58797873D01*
X32750500Y-57921296D01*
X45278217Y-57921296D01*
X45284128Y-57930574D01*
X45988457Y-58634903D01*
X45999999Y-58641567D01*
X46011542Y-58634903D01*
X46715870Y-57930574D01*
X46721781Y-57921295D01*
X46714348Y-57913184D01*
X46656922Y-57872974D01*
X46647572Y-57867576D01*
X46451231Y-57776020D01*
X46441097Y-57772332D01*
X46231837Y-57716260D01*
X46221206Y-57714386D01*
X46005395Y-57695506D01*
X45994605Y-57695506D01*
X45778793Y-57714386D01*
X45768162Y-57716260D01*
X45558902Y-57772332D01*
X45548768Y-57776020D01*
X45352425Y-57867577D01*
X45343081Y-57872971D01*
X45285651Y-57913183D01*
X45278217Y-57921296D01*
X32750500Y-57921296D01*
X32750499Y-56202128D01*
X32744091Y-56142517D01*
X32693796Y-56007669D01*
X32607546Y-55892454D01*
X32492331Y-55806204D01*
X32357483Y-55755909D01*
X32349770Y-55755079D01*
X32349767Y-55755079D01*
X32301180Y-55749855D01*
X32301169Y-55749854D01*
X32297873Y-55749500D01*
X32294550Y-55749500D01*
X29705439Y-55749500D01*
X29705420Y-55749500D01*
X29702128Y-55749501D01*
X29698850Y-55749853D01*
X29698838Y-55749854D01*
X29650231Y-55755079D01*
X29650225Y-55755080D01*
X29642517Y-55755909D01*
X29635252Y-55758618D01*
X29635246Y-55758620D01*
X29515980Y-55803104D01*
X29515978Y-55803104D01*
X29507669Y-55806204D01*
X29500572Y-55811516D01*
X29500568Y-55811519D01*
X29399550Y-55887141D01*
X29399546Y-55887144D01*
X29392454Y-55892454D01*
X29387144Y-55899546D01*
X29387141Y-55899550D01*
X29311519Y-56000568D01*
X29311516Y-56000572D01*
X29306204Y-56007669D01*
X29303104Y-56015978D01*
X29303104Y-56015980D01*
X29258620Y-56135247D01*
X29258619Y-56135250D01*
X29255909Y-56142517D01*
X29255079Y-56150227D01*
X29255079Y-56150232D01*
X29249855Y-56198819D01*
X29249854Y-56198831D01*
X29249500Y-56202127D01*
X29249500Y-56205448D01*
X29249500Y-56205449D01*
X29249500Y-58794560D01*
X29249500Y-58794578D01*
X24000500Y-58794578D01*
X24000500Y-53902368D01*
X29954586Y-53902368D01*
X29962133Y-53910425D01*
X30118711Y-54017178D01*
X30126732Y-54021809D01*
X30354681Y-54131584D01*
X30363291Y-54134964D01*
X30605065Y-54209541D01*
X30614081Y-54211599D01*
X30864270Y-54249308D01*
X30873493Y-54250000D01*
X31126507Y-54250000D01*
X31135729Y-54249308D01*
X31385918Y-54211599D01*
X31394934Y-54209541D01*
X31636708Y-54134964D01*
X31645318Y-54131584D01*
X31873267Y-54021810D01*
X31881295Y-54017174D01*
X31906484Y-54000000D01*
X38534532Y-54000000D01*
X38535004Y-54005395D01*
X38553044Y-54211599D01*
X38554365Y-54226692D01*
X38555762Y-54231907D01*
X38555764Y-54231916D01*
X38611858Y-54441263D01*
X38611861Y-54441271D01*
X38613261Y-54446496D01*
X38709432Y-54652734D01*
X38712539Y-54657171D01*
X38712540Y-54657173D01*
X38796600Y-54777224D01*
X38839953Y-54839139D01*
X39000861Y-55000047D01*
X39187266Y-55130568D01*
X39393504Y-55226739D01*
X39613308Y-55285635D01*
X39840000Y-55305468D01*
X40066692Y-55285635D01*
X40286496Y-55226739D01*
X40492734Y-55130568D01*
X40679139Y-55000047D01*
X40840047Y-54839139D01*
X40970568Y-54652734D01*
X41066739Y-54446496D01*
X41125635Y-54226692D01*
X41145468Y-54000000D01*
X48694532Y-54000000D01*
X48695004Y-54005395D01*
X48713044Y-54211599D01*
X48714365Y-54226692D01*
X48715762Y-54231907D01*
X48715764Y-54231916D01*
X48771858Y-54441263D01*
X48771861Y-54441271D01*
X48773261Y-54446496D01*
X48869432Y-54652734D01*
X48872539Y-54657171D01*
X48872540Y-54657173D01*
X48956600Y-54777224D01*
X48999953Y-54839139D01*
X49160861Y-55000047D01*
X49347266Y-55130568D01*
X49553504Y-55226739D01*
X49773308Y-55285635D01*
X50000000Y-55305468D01*
X50226692Y-55285635D01*
X50446496Y-55226739D01*
X50652734Y-55130568D01*
X50839139Y-55000047D01*
X51000047Y-54839139D01*
X51130568Y-54652734D01*
X51226739Y-54446496D01*
X51285635Y-54226692D01*
X51305468Y-54000000D01*
X51285635Y-53773308D01*
X51226739Y-53553504D01*
X51130568Y-53347266D01*
X51000047Y-53160861D01*
X50839139Y-52999953D01*
X50652734Y-52869432D01*
X50446496Y-52773261D01*
X50441271Y-52771861D01*
X50441263Y-52771858D01*
X50231916Y-52715764D01*
X50231907Y-52715762D01*
X50226692Y-52714365D01*
X50221304Y-52713893D01*
X50221301Y-52713893D01*
X50005395Y-52695004D01*
X50000000Y-52694532D01*
X49994605Y-52695004D01*
X49778698Y-52713893D01*
X49778693Y-52713893D01*
X49773308Y-52714365D01*
X49768094Y-52715762D01*
X49768083Y-52715764D01*
X49558736Y-52771858D01*
X49558724Y-52771862D01*
X49553504Y-52773261D01*
X49548599Y-52775547D01*
X49548594Y-52775550D01*
X49352176Y-52867142D01*
X49352172Y-52867144D01*
X49347266Y-52869432D01*
X49342833Y-52872535D01*
X49342826Y-52872540D01*
X49165296Y-52996847D01*
X49165291Y-52996850D01*
X49160861Y-52999953D01*
X49157037Y-53003776D01*
X49157031Y-53003782D01*
X49003782Y-53157031D01*
X49003776Y-53157037D01*
X48999953Y-53160861D01*
X48996850Y-53165291D01*
X48996847Y-53165296D01*
X48872540Y-53342826D01*
X48872535Y-53342833D01*
X48869432Y-53347266D01*
X48867144Y-53352172D01*
X48867142Y-53352176D01*
X48775550Y-53548594D01*
X48775547Y-53548599D01*
X48773261Y-53553504D01*
X48771862Y-53558724D01*
X48771858Y-53558736D01*
X48715764Y-53768083D01*
X48715762Y-53768094D01*
X48714365Y-53773308D01*
X48713893Y-53778693D01*
X48713893Y-53778698D01*
X48695004Y-53994605D01*
X48694532Y-54000000D01*
X41145468Y-54000000D01*
X41125635Y-53773308D01*
X41066739Y-53553504D01*
X40970568Y-53347266D01*
X40840047Y-53160861D01*
X40679139Y-52999953D01*
X40492734Y-52869432D01*
X40286496Y-52773261D01*
X40281271Y-52771861D01*
X40281263Y-52771858D01*
X40071916Y-52715764D01*
X40071907Y-52715762D01*
X40066692Y-52714365D01*
X40061304Y-52713893D01*
X40061301Y-52713893D01*
X39845395Y-52695004D01*
X39840000Y-52694532D01*
X39834605Y-52695004D01*
X39618698Y-52713893D01*
X39618693Y-52713893D01*
X39613308Y-52714365D01*
X39608094Y-52715762D01*
X39608083Y-52715764D01*
X39398736Y-52771858D01*
X39398724Y-52771862D01*
X39393504Y-52773261D01*
X39388599Y-52775547D01*
X39388594Y-52775550D01*
X39192176Y-52867142D01*
X39192172Y-52867144D01*
X39187266Y-52869432D01*
X39182833Y-52872535D01*
X39182826Y-52872540D01*
X39005296Y-52996847D01*
X39005291Y-52996850D01*
X39000861Y-52999953D01*
X38997037Y-53003776D01*
X38997031Y-53003782D01*
X38843782Y-53157031D01*
X38843776Y-53157037D01*
X38839953Y-53160861D01*
X38836850Y-53165291D01*
X38836847Y-53165296D01*
X38712540Y-53342826D01*
X38712535Y-53342833D01*
X38709432Y-53347266D01*
X38707144Y-53352172D01*
X38707142Y-53352176D01*
X38615550Y-53548594D01*
X38615547Y-53548599D01*
X38613261Y-53553504D01*
X38611862Y-53558724D01*
X38611858Y-53558736D01*
X38555764Y-53768083D01*
X38555762Y-53768094D01*
X38554365Y-53773308D01*
X38553893Y-53778693D01*
X38553893Y-53778698D01*
X38535004Y-53994605D01*
X38534532Y-54000000D01*
X31906484Y-54000000D01*
X32037863Y-53910427D01*
X32045411Y-53902368D01*
X32039494Y-53893048D01*
X31011542Y-52865095D01*
X31000000Y-52858431D01*
X30988457Y-52865095D01*
X29960502Y-53893050D01*
X29954586Y-53902368D01*
X24000500Y-53902368D01*
X24000500Y-52504630D01*
X29245440Y-52504630D01*
X29264347Y-52756928D01*
X29265725Y-52766076D01*
X29322026Y-53012743D01*
X29324755Y-53021591D01*
X29417185Y-53257101D01*
X29421204Y-53265447D01*
X29547707Y-53484555D01*
X29552920Y-53492200D01*
X29586959Y-53534885D01*
X29598194Y-53542856D01*
X29610252Y-53536192D01*
X30634903Y-52511542D01*
X30641567Y-52500000D01*
X31358431Y-52500000D01*
X31365095Y-52511542D01*
X32389746Y-53536192D01*
X32401803Y-53542856D01*
X32413040Y-53534884D01*
X32447080Y-53492199D01*
X32452290Y-53484557D01*
X32578795Y-53265447D01*
X32582814Y-53257101D01*
X32675244Y-53021591D01*
X32677973Y-53012743D01*
X32734274Y-52766076D01*
X32735652Y-52756928D01*
X32754560Y-52504630D01*
X32754560Y-52495370D01*
X32735652Y-52243071D01*
X32734274Y-52233923D01*
X32677973Y-51987256D01*
X32675244Y-51978408D01*
X32582814Y-51742898D01*
X32578795Y-51734552D01*
X32452292Y-51515444D01*
X32447079Y-51507799D01*
X32413040Y-51465115D01*
X32401803Y-51457142D01*
X32389746Y-51463806D01*
X31365095Y-52488457D01*
X31358431Y-52500000D01*
X30641567Y-52500000D01*
X30634903Y-52488457D01*
X29610253Y-51463807D01*
X29598194Y-51457143D01*
X29586958Y-51465115D01*
X29552916Y-51507804D01*
X29547710Y-51515440D01*
X29421204Y-51734552D01*
X29417185Y-51742898D01*
X29324755Y-51978408D01*
X29322026Y-51987256D01*
X29265725Y-52233923D01*
X29264347Y-52243071D01*
X29245440Y-52495370D01*
X29245440Y-52504630D01*
X24000500Y-52504630D01*
X24000500Y-51097630D01*
X29954586Y-51097630D01*
X29960502Y-51106948D01*
X30988456Y-52134903D01*
X30999999Y-52141567D01*
X31011541Y-52134903D01*
X32039494Y-51106950D01*
X32045411Y-51097630D01*
X32037865Y-51089572D01*
X31881289Y-50982821D01*
X31873268Y-50978190D01*
X31645318Y-50868415D01*
X31636708Y-50865035D01*
X31394934Y-50790458D01*
X31385918Y-50788400D01*
X31135729Y-50750691D01*
X31126507Y-50750000D01*
X30873493Y-50750000D01*
X30864270Y-50750691D01*
X30614081Y-50788400D01*
X30605065Y-50790458D01*
X30363291Y-50865035D01*
X30354681Y-50868415D01*
X30126731Y-50978191D01*
X30118709Y-50982822D01*
X29962133Y-51089572D01*
X29954586Y-51097630D01*
X24000500Y-51097630D01*
X24000500Y-48000000D01*
X38614532Y-48000000D01*
X38634365Y-48226692D01*
X38635762Y-48231907D01*
X38635764Y-48231916D01*
X38691858Y-48441263D01*
X38691861Y-48441271D01*
X38693261Y-48446496D01*
X38789432Y-48652734D01*
X38919953Y-48839139D01*
X39080861Y-49000047D01*
X39267266Y-49130568D01*
X39473504Y-49226739D01*
X39478734Y-49228140D01*
X39478736Y-49228141D01*
X39654285Y-49275179D01*
X39693308Y-49285635D01*
X39920000Y-49305468D01*
X40146692Y-49285635D01*
X40366496Y-49226739D01*
X40572734Y-49130568D01*
X40759139Y-49000047D01*
X40920047Y-48839139D01*
X41050568Y-48652734D01*
X41146739Y-48446496D01*
X41198706Y-48252551D01*
X48804452Y-48252551D01*
X48804820Y-48263780D01*
X48852330Y-48441092D01*
X48856022Y-48451234D01*
X48947579Y-48647580D01*
X48952967Y-48656912D01*
X49077232Y-48834381D01*
X49084169Y-48842647D01*
X49237352Y-48995830D01*
X49245618Y-49002767D01*
X49423087Y-49127032D01*
X49432419Y-49132420D01*
X49628765Y-49223977D01*
X49638907Y-49227669D01*
X49816219Y-49275179D01*
X49827448Y-49275547D01*
X49830000Y-49264605D01*
X50330000Y-49264605D01*
X50332551Y-49275547D01*
X50343780Y-49275179D01*
X50521092Y-49227669D01*
X50531234Y-49223977D01*
X50727580Y-49132420D01*
X50736912Y-49127032D01*
X50914381Y-49002767D01*
X50922647Y-48995830D01*
X51075830Y-48842647D01*
X51082767Y-48834381D01*
X51207032Y-48656912D01*
X51212420Y-48647580D01*
X51303977Y-48451234D01*
X51307669Y-48441092D01*
X51355179Y-48263780D01*
X51355547Y-48252551D01*
X51344605Y-48250000D01*
X50346326Y-48250000D01*
X50333450Y-48253450D01*
X50330000Y-48266326D01*
X50330000Y-49264605D01*
X49830000Y-49264605D01*
X49830000Y-48266326D01*
X49826549Y-48253450D01*
X49813674Y-48250000D01*
X48815395Y-48250000D01*
X48804452Y-48252551D01*
X41198706Y-48252551D01*
X41205635Y-48226692D01*
X41225468Y-48000000D01*
X41211470Y-47840000D01*
X52694532Y-47840000D01*
X52695004Y-47845395D01*
X52704139Y-47949815D01*
X52714365Y-48066692D01*
X52715762Y-48071907D01*
X52715764Y-48071916D01*
X52771858Y-48281263D01*
X52771861Y-48281271D01*
X52773261Y-48286496D01*
X52869432Y-48492734D01*
X52999953Y-48679139D01*
X53160861Y-48840047D01*
X53347266Y-48970568D01*
X53553504Y-49066739D01*
X53773308Y-49125635D01*
X54000000Y-49145468D01*
X54226692Y-49125635D01*
X54446496Y-49066739D01*
X54652734Y-48970568D01*
X54839139Y-48840047D01*
X55000047Y-48679139D01*
X55130568Y-48492734D01*
X55226739Y-48286496D01*
X55285635Y-48066692D01*
X55305468Y-47840000D01*
X55285635Y-47613308D01*
X55226739Y-47393504D01*
X55130568Y-47187266D01*
X55000047Y-47000861D01*
X54839139Y-46839953D01*
X54743892Y-46773261D01*
X54657173Y-46712540D01*
X54657171Y-46712539D01*
X54652734Y-46709432D01*
X54532681Y-46653450D01*
X54451405Y-46615550D01*
X54451403Y-46615549D01*
X54446496Y-46613261D01*
X54441271Y-46611861D01*
X54441263Y-46611858D01*
X54231916Y-46555764D01*
X54231907Y-46555762D01*
X54226692Y-46554365D01*
X54221304Y-46553893D01*
X54221301Y-46553893D01*
X54005395Y-46535004D01*
X54000000Y-46534532D01*
X53994605Y-46535004D01*
X53778698Y-46553893D01*
X53778693Y-46553893D01*
X53773308Y-46554365D01*
X53768094Y-46555762D01*
X53768083Y-46555764D01*
X53558736Y-46611858D01*
X53558724Y-46611862D01*
X53553504Y-46613261D01*
X53548599Y-46615547D01*
X53548594Y-46615550D01*
X53352176Y-46707142D01*
X53352172Y-46707144D01*
X53347266Y-46709432D01*
X53342833Y-46712535D01*
X53342826Y-46712540D01*
X53165296Y-46836847D01*
X53165291Y-46836850D01*
X53160861Y-46839953D01*
X53157037Y-46843776D01*
X53157031Y-46843782D01*
X53003782Y-46997031D01*
X53003776Y-46997037D01*
X52999953Y-47000861D01*
X52996850Y-47005291D01*
X52996847Y-47005296D01*
X52872540Y-47182826D01*
X52872535Y-47182833D01*
X52869432Y-47187266D01*
X52867144Y-47192172D01*
X52867142Y-47192176D01*
X52775550Y-47388594D01*
X52775547Y-47388599D01*
X52773261Y-47393504D01*
X52771862Y-47398724D01*
X52771858Y-47398736D01*
X52715764Y-47608083D01*
X52715762Y-47608094D01*
X52714365Y-47613308D01*
X52713893Y-47618693D01*
X52713893Y-47618698D01*
X52702708Y-47746549D01*
X52694532Y-47840000D01*
X41211470Y-47840000D01*
X41205635Y-47773308D01*
X41198706Y-47747448D01*
X48804452Y-47747448D01*
X48815395Y-47750000D01*
X49813674Y-47750000D01*
X49826549Y-47746549D01*
X49830000Y-47733674D01*
X50330000Y-47733674D01*
X50333450Y-47746549D01*
X50346326Y-47750000D01*
X51344605Y-47750000D01*
X51355547Y-47747448D01*
X51355179Y-47736219D01*
X51307669Y-47558907D01*
X51303977Y-47548765D01*
X51212420Y-47352419D01*
X51207032Y-47343087D01*
X51082767Y-47165618D01*
X51075830Y-47157352D01*
X50922647Y-47004169D01*
X50914381Y-46997232D01*
X50736912Y-46872967D01*
X50727580Y-46867579D01*
X50531234Y-46776022D01*
X50521092Y-46772330D01*
X50343780Y-46724820D01*
X50332551Y-46724452D01*
X50330000Y-46735395D01*
X50330000Y-47733674D01*
X49830000Y-47733674D01*
X49830000Y-46735395D01*
X49827448Y-46724452D01*
X49816219Y-46724820D01*
X49638907Y-46772330D01*
X49628765Y-46776022D01*
X49432419Y-46867579D01*
X49423087Y-46872967D01*
X49245618Y-46997232D01*
X49237352Y-47004169D01*
X49084169Y-47157352D01*
X49077232Y-47165618D01*
X48952967Y-47343087D01*
X48947579Y-47352419D01*
X48856022Y-47548765D01*
X48852330Y-47558907D01*
X48804820Y-47736219D01*
X48804452Y-47747448D01*
X41198706Y-47747448D01*
X41159836Y-47602382D01*
X41148141Y-47558736D01*
X41148140Y-47558734D01*
X41146739Y-47553504D01*
X41050568Y-47347266D01*
X40920047Y-47160861D01*
X40759139Y-46999953D01*
X40572734Y-46869432D01*
X40366496Y-46773261D01*
X40361271Y-46771861D01*
X40361263Y-46771858D01*
X40151916Y-46715764D01*
X40151907Y-46715762D01*
X40146692Y-46714365D01*
X40141304Y-46713893D01*
X40141301Y-46713893D01*
X39925395Y-46695004D01*
X39920000Y-46694532D01*
X39914605Y-46695004D01*
X39698698Y-46713893D01*
X39698693Y-46713893D01*
X39693308Y-46714365D01*
X39688094Y-46715762D01*
X39688083Y-46715764D01*
X39478736Y-46771858D01*
X39478724Y-46771862D01*
X39473504Y-46773261D01*
X39468599Y-46775547D01*
X39468594Y-46775550D01*
X39272176Y-46867142D01*
X39272172Y-46867144D01*
X39267266Y-46869432D01*
X39262833Y-46872535D01*
X39262826Y-46872540D01*
X39085296Y-46996847D01*
X39085291Y-46996850D01*
X39080861Y-46999953D01*
X39077037Y-47003776D01*
X39077031Y-47003782D01*
X38923782Y-47157031D01*
X38923776Y-47157037D01*
X38919953Y-47160861D01*
X38916850Y-47165291D01*
X38916847Y-47165296D01*
X38792540Y-47342826D01*
X38792535Y-47342833D01*
X38789432Y-47347266D01*
X38787144Y-47352172D01*
X38787142Y-47352176D01*
X38695550Y-47548594D01*
X38695547Y-47548599D01*
X38693261Y-47553504D01*
X38691862Y-47558724D01*
X38691858Y-47558736D01*
X38635764Y-47768083D01*
X38635762Y-47768094D01*
X38634365Y-47773308D01*
X38633893Y-47778693D01*
X38633893Y-47778698D01*
X38632642Y-47793003D01*
X38614532Y-48000000D01*
X24000500Y-48000000D01*
X24000500Y-46294578D01*
X29249500Y-46294578D01*
X29249501Y-46297872D01*
X29249853Y-46301150D01*
X29249854Y-46301161D01*
X29255079Y-46349768D01*
X29255080Y-46349773D01*
X29255909Y-46357483D01*
X29258619Y-46364749D01*
X29258620Y-46364753D01*
X29284697Y-46434669D01*
X29306204Y-46492331D01*
X29392454Y-46607546D01*
X29507669Y-46693796D01*
X29642517Y-46744091D01*
X29702127Y-46750500D01*
X32297872Y-46750499D01*
X32357483Y-46744091D01*
X32492331Y-46693796D01*
X32607546Y-46607546D01*
X32693796Y-46492331D01*
X32744091Y-46357483D01*
X32750500Y-46297873D01*
X32750499Y-44500000D01*
X36694532Y-44500000D01*
X36695004Y-44505395D01*
X36707727Y-44650826D01*
X36714365Y-44726692D01*
X36715762Y-44731907D01*
X36715764Y-44731916D01*
X36771858Y-44941263D01*
X36771861Y-44941271D01*
X36773261Y-44946496D01*
X36869432Y-45152734D01*
X36999953Y-45339139D01*
X37160861Y-45500047D01*
X37347266Y-45630568D01*
X37553504Y-45726739D01*
X37558734Y-45728140D01*
X37558736Y-45728141D01*
X37768083Y-45784235D01*
X37773308Y-45785635D01*
X38000000Y-45805468D01*
X38226692Y-45785635D01*
X38446496Y-45726739D01*
X38652734Y-45630568D01*
X38839139Y-45500047D01*
X39000047Y-45339139D01*
X39130568Y-45152734D01*
X39226739Y-44946496D01*
X39285635Y-44726692D01*
X39305468Y-44500000D01*
X50694532Y-44500000D01*
X50695004Y-44505395D01*
X50707727Y-44650826D01*
X50714365Y-44726692D01*
X50715762Y-44731907D01*
X50715764Y-44731916D01*
X50771858Y-44941263D01*
X50771861Y-44941271D01*
X50773261Y-44946496D01*
X50869432Y-45152734D01*
X50999953Y-45339139D01*
X51160861Y-45500047D01*
X51347266Y-45630568D01*
X51553504Y-45726739D01*
X51558734Y-45728140D01*
X51558736Y-45728141D01*
X51768083Y-45784235D01*
X51773308Y-45785635D01*
X52000000Y-45805468D01*
X52226692Y-45785635D01*
X52446496Y-45726739D01*
X52652734Y-45630568D01*
X52839139Y-45500047D01*
X53000047Y-45339139D01*
X53130568Y-45152734D01*
X53226739Y-44946496D01*
X53285635Y-44726692D01*
X53305468Y-44500000D01*
X53285635Y-44273308D01*
X53226739Y-44053504D01*
X53130568Y-43847266D01*
X53000047Y-43660861D01*
X52839139Y-43499953D01*
X52697031Y-43400449D01*
X52657173Y-43372540D01*
X52657171Y-43372539D01*
X52652734Y-43369432D01*
X52510494Y-43303104D01*
X52451405Y-43275550D01*
X52451403Y-43275549D01*
X52446496Y-43273261D01*
X52441271Y-43271861D01*
X52441263Y-43271858D01*
X52231916Y-43215764D01*
X52231907Y-43215762D01*
X52226692Y-43214365D01*
X52221304Y-43213893D01*
X52221301Y-43213893D01*
X52005395Y-43195004D01*
X52000000Y-43194532D01*
X51994605Y-43195004D01*
X51778698Y-43213893D01*
X51778693Y-43213893D01*
X51773308Y-43214365D01*
X51768094Y-43215762D01*
X51768083Y-43215764D01*
X51558736Y-43271858D01*
X51558724Y-43271862D01*
X51553504Y-43273261D01*
X51548599Y-43275547D01*
X51548594Y-43275550D01*
X51352176Y-43367142D01*
X51352172Y-43367144D01*
X51347266Y-43369432D01*
X51342833Y-43372535D01*
X51342826Y-43372540D01*
X51165296Y-43496847D01*
X51165291Y-43496850D01*
X51160861Y-43499953D01*
X51157037Y-43503776D01*
X51157031Y-43503782D01*
X51003782Y-43657031D01*
X51003776Y-43657037D01*
X50999953Y-43660861D01*
X50996850Y-43665291D01*
X50996847Y-43665296D01*
X50872540Y-43842826D01*
X50872535Y-43842833D01*
X50869432Y-43847266D01*
X50867144Y-43852172D01*
X50867142Y-43852176D01*
X50775550Y-44048594D01*
X50775547Y-44048599D01*
X50773261Y-44053504D01*
X50771862Y-44058724D01*
X50771858Y-44058736D01*
X50715764Y-44268083D01*
X50715762Y-44268094D01*
X50714365Y-44273308D01*
X50713893Y-44278693D01*
X50713893Y-44278698D01*
X50695391Y-44490184D01*
X50694532Y-44500000D01*
X39305468Y-44500000D01*
X39285635Y-44273308D01*
X39226739Y-44053504D01*
X39130568Y-43847266D01*
X39000047Y-43660861D01*
X38839139Y-43499953D01*
X38697031Y-43400449D01*
X38657173Y-43372540D01*
X38657171Y-43372539D01*
X38652734Y-43369432D01*
X38510494Y-43303104D01*
X38451405Y-43275550D01*
X38451403Y-43275549D01*
X38446496Y-43273261D01*
X38441271Y-43271861D01*
X38441263Y-43271858D01*
X38231916Y-43215764D01*
X38231907Y-43215762D01*
X38226692Y-43214365D01*
X38221304Y-43213893D01*
X38221301Y-43213893D01*
X38005395Y-43195004D01*
X38000000Y-43194532D01*
X37994605Y-43195004D01*
X37778698Y-43213893D01*
X37778693Y-43213893D01*
X37773308Y-43214365D01*
X37768094Y-43215762D01*
X37768083Y-43215764D01*
X37558736Y-43271858D01*
X37558724Y-43271862D01*
X37553504Y-43273261D01*
X37548599Y-43275547D01*
X37548594Y-43275550D01*
X37352176Y-43367142D01*
X37352172Y-43367144D01*
X37347266Y-43369432D01*
X37342833Y-43372535D01*
X37342826Y-43372540D01*
X37165296Y-43496847D01*
X37165291Y-43496850D01*
X37160861Y-43499953D01*
X37157037Y-43503776D01*
X37157031Y-43503782D01*
X37003782Y-43657031D01*
X37003776Y-43657037D01*
X36999953Y-43660861D01*
X36996850Y-43665291D01*
X36996847Y-43665296D01*
X36872540Y-43842826D01*
X36872535Y-43842833D01*
X36869432Y-43847266D01*
X36867144Y-43852172D01*
X36867142Y-43852176D01*
X36775550Y-44048594D01*
X36775547Y-44048599D01*
X36773261Y-44053504D01*
X36771862Y-44058724D01*
X36771858Y-44058736D01*
X36715764Y-44268083D01*
X36715762Y-44268094D01*
X36714365Y-44273308D01*
X36713893Y-44278693D01*
X36713893Y-44278698D01*
X36695391Y-44490184D01*
X36694532Y-44500000D01*
X32750499Y-44500000D01*
X32750499Y-43702128D01*
X32744091Y-43642517D01*
X32693796Y-43507669D01*
X32607546Y-43392454D01*
X32580944Y-43372540D01*
X32499431Y-43311519D01*
X32499430Y-43311518D01*
X32492331Y-43306204D01*
X32357483Y-43255909D01*
X32349770Y-43255079D01*
X32349767Y-43255079D01*
X32301180Y-43249855D01*
X32301169Y-43249854D01*
X32297873Y-43249500D01*
X32294550Y-43249500D01*
X29705439Y-43249500D01*
X29705420Y-43249500D01*
X29702128Y-43249501D01*
X29698850Y-43249853D01*
X29698838Y-43249854D01*
X29650231Y-43255079D01*
X29650225Y-43255080D01*
X29642517Y-43255909D01*
X29635252Y-43258618D01*
X29635246Y-43258620D01*
X29515980Y-43303104D01*
X29515978Y-43303104D01*
X29507669Y-43306204D01*
X29500572Y-43311516D01*
X29500568Y-43311519D01*
X29399550Y-43387141D01*
X29399546Y-43387144D01*
X29392454Y-43392454D01*
X29387144Y-43399546D01*
X29387141Y-43399550D01*
X29311519Y-43500568D01*
X29311516Y-43500572D01*
X29306204Y-43507669D01*
X29303104Y-43515978D01*
X29303104Y-43515980D01*
X29258620Y-43635247D01*
X29258619Y-43635250D01*
X29255909Y-43642517D01*
X29255079Y-43650227D01*
X29255079Y-43650232D01*
X29249855Y-43698819D01*
X29249854Y-43698831D01*
X29249500Y-43702127D01*
X29249500Y-43705448D01*
X29249500Y-43705449D01*
X29249500Y-46294560D01*
X29249500Y-46294578D01*
X24000500Y-46294578D01*
X24000500Y-43094578D01*
X41007000Y-43094578D01*
X41007001Y-43097872D01*
X41007353Y-43101150D01*
X41007354Y-43101161D01*
X41012579Y-43149768D01*
X41012580Y-43149773D01*
X41013409Y-43157483D01*
X41016119Y-43164749D01*
X41016120Y-43164753D01*
X41035146Y-43215764D01*
X41063704Y-43292331D01*
X41069018Y-43299430D01*
X41069019Y-43299431D01*
X41119707Y-43367142D01*
X41149954Y-43407546D01*
X41265169Y-43493796D01*
X41400017Y-43544091D01*
X41459627Y-43550500D01*
X43460372Y-43550499D01*
X43519983Y-43544091D01*
X43654831Y-43493796D01*
X43770046Y-43407546D01*
X43856296Y-43292331D01*
X43867908Y-43261195D01*
X43900019Y-43213379D01*
X43950273Y-43185228D01*
X44007823Y-43182820D01*
X44060253Y-43206675D01*
X44198787Y-43314501D01*
X44207345Y-43320093D01*
X44410031Y-43429780D01*
X44419386Y-43433883D01*
X44637357Y-43508713D01*
X44647268Y-43511224D01*
X44736679Y-43526144D01*
X44747636Y-43525577D01*
X44750000Y-43514860D01*
X45250000Y-43514860D01*
X45252363Y-43525577D01*
X45263320Y-43526144D01*
X45352731Y-43511224D01*
X45362642Y-43508713D01*
X45580613Y-43433883D01*
X45589968Y-43429780D01*
X45792654Y-43320093D01*
X45801212Y-43314501D01*
X45983081Y-43172946D01*
X45990591Y-43166033D01*
X46146679Y-42996477D01*
X46152960Y-42988407D01*
X46165891Y-42968615D01*
X46210683Y-42927381D01*
X46269701Y-42912435D01*
X46328719Y-42927381D01*
X46373510Y-42968614D01*
X46386644Y-42988717D01*
X46389449Y-42993010D01*
X46392914Y-42996774D01*
X46392918Y-42996779D01*
X46482932Y-43094560D01*
X46552537Y-43170171D01*
X46556583Y-43173320D01*
X46556584Y-43173321D01*
X46608051Y-43213379D01*
X46742561Y-43318072D01*
X46954336Y-43432679D01*
X47182087Y-43510866D01*
X47419601Y-43550500D01*
X47655266Y-43550500D01*
X47660399Y-43550500D01*
X47897913Y-43510866D01*
X48125664Y-43432679D01*
X48337439Y-43318072D01*
X48527463Y-43170171D01*
X48690551Y-42993010D01*
X48822255Y-42791422D01*
X48918983Y-42570905D01*
X48978095Y-42337476D01*
X48993000Y-42157600D01*
X48993000Y-41942400D01*
X48978095Y-41762524D01*
X48918983Y-41529095D01*
X48822255Y-41308578D01*
X48706488Y-41131384D01*
X48693352Y-41111277D01*
X48693350Y-41111275D01*
X48690551Y-41106990D01*
X48687083Y-41103223D01*
X48687081Y-41103220D01*
X48539143Y-40942517D01*
X48527463Y-40929829D01*
X48514747Y-40919932D01*
X48341485Y-40785077D01*
X48341484Y-40785076D01*
X48337439Y-40781928D01*
X48230359Y-40723979D01*
X48130168Y-40669758D01*
X48130163Y-40669756D01*
X48125664Y-40667321D01*
X48120818Y-40665657D01*
X48120815Y-40665656D01*
X47902766Y-40590800D01*
X47902765Y-40590799D01*
X47897913Y-40589134D01*
X47892863Y-40588291D01*
X47892854Y-40588289D01*
X47835408Y-40578703D01*
X51278217Y-40578703D01*
X51285650Y-40586814D01*
X51343077Y-40627025D01*
X51352427Y-40632423D01*
X51548768Y-40723979D01*
X51558902Y-40727667D01*
X51768162Y-40783739D01*
X51778793Y-40785613D01*
X51994605Y-40804494D01*
X52005395Y-40804494D01*
X52221206Y-40785613D01*
X52231837Y-40783739D01*
X52441097Y-40727667D01*
X52451231Y-40723979D01*
X52647575Y-40632422D01*
X52656920Y-40627026D01*
X52714348Y-40586814D01*
X52721780Y-40578703D01*
X52715867Y-40569421D01*
X52011542Y-39865095D01*
X52000000Y-39858431D01*
X51988457Y-39865095D01*
X51284128Y-40569424D01*
X51278217Y-40578703D01*
X47835408Y-40578703D01*
X47665461Y-40550344D01*
X47665452Y-40550343D01*
X47660399Y-40549500D01*
X47419601Y-40549500D01*
X47414548Y-40550343D01*
X47414538Y-40550344D01*
X47187145Y-40588289D01*
X47187133Y-40588291D01*
X47182087Y-40589134D01*
X47177237Y-40590798D01*
X47177233Y-40590800D01*
X46959184Y-40665656D01*
X46959176Y-40665659D01*
X46954336Y-40667321D01*
X46949840Y-40669753D01*
X46949831Y-40669758D01*
X46747069Y-40779488D01*
X46747065Y-40779490D01*
X46742561Y-40781928D01*
X46738521Y-40785072D01*
X46738514Y-40785077D01*
X46556584Y-40926678D01*
X46556576Y-40926685D01*
X46552537Y-40929829D01*
X46549067Y-40933597D01*
X46549063Y-40933602D01*
X46392919Y-41103219D01*
X46392911Y-41103229D01*
X46389449Y-41106990D01*
X46386651Y-41111271D01*
X46386642Y-41111284D01*
X46373507Y-41131389D01*
X46328715Y-41172621D01*
X46269698Y-41187564D01*
X46210681Y-41172618D01*
X46165891Y-41131384D01*
X46152957Y-41111587D01*
X46146685Y-41103528D01*
X45990591Y-40933966D01*
X45983081Y-40927053D01*
X45801212Y-40785498D01*
X45792654Y-40779906D01*
X45589968Y-40670219D01*
X45580613Y-40666116D01*
X45362642Y-40591286D01*
X45352731Y-40588775D01*
X45263320Y-40573855D01*
X45252363Y-40574422D01*
X45250000Y-40585140D01*
X45250000Y-43514860D01*
X44750000Y-43514860D01*
X44750000Y-40585140D01*
X44747636Y-40574422D01*
X44736679Y-40573855D01*
X44647268Y-40588775D01*
X44637357Y-40591286D01*
X44419386Y-40666116D01*
X44410031Y-40670219D01*
X44207345Y-40779906D01*
X44198781Y-40785502D01*
X44060252Y-40893324D01*
X44007823Y-40917179D01*
X43950273Y-40914771D01*
X43900020Y-40886620D01*
X43867908Y-40838804D01*
X43856296Y-40807669D01*
X43770046Y-40692454D01*
X43654831Y-40606204D01*
X43519983Y-40555909D01*
X43512270Y-40555079D01*
X43512267Y-40555079D01*
X43463680Y-40549855D01*
X43463669Y-40549854D01*
X43460373Y-40549500D01*
X43457050Y-40549500D01*
X41462939Y-40549500D01*
X41462920Y-40549500D01*
X41459628Y-40549501D01*
X41456350Y-40549853D01*
X41456338Y-40549854D01*
X41407731Y-40555079D01*
X41407725Y-40555080D01*
X41400017Y-40555909D01*
X41392752Y-40558618D01*
X41392746Y-40558620D01*
X41273480Y-40603104D01*
X41273478Y-40603104D01*
X41265169Y-40606204D01*
X41258072Y-40611516D01*
X41258068Y-40611519D01*
X41157050Y-40687141D01*
X41157046Y-40687144D01*
X41149954Y-40692454D01*
X41144644Y-40699546D01*
X41144641Y-40699550D01*
X41069019Y-40800568D01*
X41069016Y-40800572D01*
X41063704Y-40807669D01*
X41060604Y-40815978D01*
X41060604Y-40815980D01*
X41016120Y-40935247D01*
X41016119Y-40935250D01*
X41013409Y-40942517D01*
X41012579Y-40950227D01*
X41012579Y-40950232D01*
X41007355Y-40998819D01*
X41007354Y-40998831D01*
X41007000Y-41002127D01*
X41007000Y-41005448D01*
X41007000Y-41005449D01*
X41007000Y-43094560D01*
X41007000Y-43094578D01*
X24000500Y-43094578D01*
X24000500Y-41402368D01*
X29954586Y-41402368D01*
X29962133Y-41410425D01*
X30118711Y-41517178D01*
X30126732Y-41521809D01*
X30354681Y-41631584D01*
X30363291Y-41634964D01*
X30605065Y-41709541D01*
X30614081Y-41711599D01*
X30864270Y-41749308D01*
X30873493Y-41750000D01*
X31126507Y-41750000D01*
X31135729Y-41749308D01*
X31385918Y-41711599D01*
X31394934Y-41709541D01*
X31636708Y-41634964D01*
X31645318Y-41631584D01*
X31873267Y-41521810D01*
X31881295Y-41517174D01*
X32037863Y-41410427D01*
X32045411Y-41402368D01*
X32039494Y-41393048D01*
X31011542Y-40365095D01*
X31000000Y-40358431D01*
X30988457Y-40365095D01*
X29960502Y-41393050D01*
X29954586Y-41402368D01*
X24000500Y-41402368D01*
X24000500Y-40004630D01*
X29245440Y-40004630D01*
X29264347Y-40256928D01*
X29265725Y-40266076D01*
X29322026Y-40512743D01*
X29324755Y-40521591D01*
X29417185Y-40757101D01*
X29421204Y-40765447D01*
X29547707Y-40984555D01*
X29552920Y-40992200D01*
X29586959Y-41034885D01*
X29598194Y-41042856D01*
X29610252Y-41036192D01*
X30634903Y-40011541D01*
X30641567Y-39999999D01*
X31358431Y-39999999D01*
X31365095Y-40011541D01*
X32389746Y-41036192D01*
X32401803Y-41042856D01*
X32413040Y-41034884D01*
X32447080Y-40992199D01*
X32452290Y-40984557D01*
X32578795Y-40765447D01*
X32582814Y-40757101D01*
X32652829Y-40578703D01*
X37278217Y-40578703D01*
X37285650Y-40586814D01*
X37343077Y-40627025D01*
X37352427Y-40632423D01*
X37548768Y-40723979D01*
X37558902Y-40727667D01*
X37768162Y-40783739D01*
X37778793Y-40785613D01*
X37994605Y-40804494D01*
X38005395Y-40804494D01*
X38221206Y-40785613D01*
X38231837Y-40783739D01*
X38441097Y-40727667D01*
X38451231Y-40723979D01*
X38647575Y-40632422D01*
X38656920Y-40627026D01*
X38714348Y-40586814D01*
X38721780Y-40578703D01*
X38715867Y-40569421D01*
X38011542Y-39865095D01*
X38000000Y-39858431D01*
X37988457Y-39865095D01*
X37284128Y-40569424D01*
X37278217Y-40578703D01*
X32652829Y-40578703D01*
X32675244Y-40521591D01*
X32677973Y-40512743D01*
X32734274Y-40266076D01*
X32735652Y-40256928D01*
X32754560Y-40004630D01*
X32754560Y-39995370D01*
X32735652Y-39743071D01*
X32734274Y-39733923D01*
X32682113Y-39505395D01*
X36695506Y-39505395D01*
X36714386Y-39721206D01*
X36716260Y-39731837D01*
X36772332Y-39941097D01*
X36776020Y-39951231D01*
X36867576Y-40147572D01*
X36872974Y-40156922D01*
X36913184Y-40214348D01*
X36921295Y-40221781D01*
X36930574Y-40215870D01*
X37634903Y-39511542D01*
X37641567Y-39500000D01*
X38358431Y-39500000D01*
X38365095Y-39511542D01*
X39069421Y-40215867D01*
X39078703Y-40221780D01*
X39086814Y-40214348D01*
X39127026Y-40156920D01*
X39132422Y-40147575D01*
X39223979Y-39951231D01*
X39227667Y-39941097D01*
X39283739Y-39731837D01*
X39285613Y-39721206D01*
X39304494Y-39505395D01*
X50695506Y-39505395D01*
X50714386Y-39721206D01*
X50716260Y-39731837D01*
X50772332Y-39941097D01*
X50776020Y-39951231D01*
X50867576Y-40147572D01*
X50872974Y-40156922D01*
X50913184Y-40214348D01*
X50921295Y-40221781D01*
X50930574Y-40215870D01*
X51634903Y-39511542D01*
X51641566Y-39500000D01*
X52358431Y-39500000D01*
X52365095Y-39511542D01*
X53069421Y-40215867D01*
X53078703Y-40221780D01*
X53086814Y-40214348D01*
X53127026Y-40156920D01*
X53132422Y-40147575D01*
X53223979Y-39951231D01*
X53227667Y-39941097D01*
X53283739Y-39731837D01*
X53285613Y-39721206D01*
X53304494Y-39505395D01*
X53304494Y-39494605D01*
X53285613Y-39278793D01*
X53283739Y-39268162D01*
X53227667Y-39058902D01*
X53223979Y-39048768D01*
X53132423Y-38852427D01*
X53127025Y-38843077D01*
X53086814Y-38785650D01*
X53078703Y-38778217D01*
X53069424Y-38784128D01*
X52365095Y-39488457D01*
X52358431Y-39500000D01*
X51641566Y-39500000D01*
X51641567Y-39499999D01*
X51634903Y-39488457D01*
X50930574Y-38784128D01*
X50921296Y-38778217D01*
X50913183Y-38785651D01*
X50872971Y-38843081D01*
X50867577Y-38852425D01*
X50776020Y-39048768D01*
X50772332Y-39058902D01*
X50716260Y-39268162D01*
X50714386Y-39278793D01*
X50695506Y-39494605D01*
X50695506Y-39505395D01*
X39304494Y-39505395D01*
X39304494Y-39494605D01*
X39285613Y-39278793D01*
X39283739Y-39268162D01*
X39227667Y-39058902D01*
X39223979Y-39048768D01*
X39132423Y-38852427D01*
X39127025Y-38843077D01*
X39086814Y-38785650D01*
X39078703Y-38778217D01*
X39069424Y-38784128D01*
X38365095Y-39488457D01*
X38358431Y-39500000D01*
X37641567Y-39500000D01*
X37634903Y-39488457D01*
X36930574Y-38784128D01*
X36921296Y-38778217D01*
X36913183Y-38785651D01*
X36872971Y-38843081D01*
X36867577Y-38852425D01*
X36776020Y-39048768D01*
X36772332Y-39058902D01*
X36716260Y-39268162D01*
X36714386Y-39278793D01*
X36695506Y-39494605D01*
X36695506Y-39505395D01*
X32682113Y-39505395D01*
X32677973Y-39487256D01*
X32675244Y-39478408D01*
X32582814Y-39242898D01*
X32578795Y-39234552D01*
X32452292Y-39015444D01*
X32447079Y-39007799D01*
X32413040Y-38965115D01*
X32401803Y-38957142D01*
X32389746Y-38963806D01*
X31365095Y-39988456D01*
X31358431Y-39999999D01*
X30641567Y-39999999D01*
X30634903Y-39988456D01*
X29610253Y-38963807D01*
X29598194Y-38957143D01*
X29586958Y-38965115D01*
X29552916Y-39007804D01*
X29547710Y-39015440D01*
X29421204Y-39234552D01*
X29417185Y-39242898D01*
X29324755Y-39478408D01*
X29322026Y-39487256D01*
X29265725Y-39733923D01*
X29264347Y-39743071D01*
X29245440Y-39995370D01*
X29245440Y-40004630D01*
X24000500Y-40004630D01*
X24000500Y-38597630D01*
X29954586Y-38597630D01*
X29960502Y-38606948D01*
X30988457Y-39634903D01*
X31000000Y-39641567D01*
X31011542Y-39634903D01*
X32039496Y-38606948D01*
X32045412Y-38597630D01*
X32037865Y-38589572D01*
X31881289Y-38482821D01*
X31873268Y-38478190D01*
X31755126Y-38421296D01*
X37278217Y-38421296D01*
X37284128Y-38430574D01*
X37988457Y-39134903D01*
X38000000Y-39141567D01*
X38011542Y-39134903D01*
X38715870Y-38430574D01*
X38721780Y-38421296D01*
X51278217Y-38421296D01*
X51284128Y-38430574D01*
X51988457Y-39134903D01*
X52000000Y-39141567D01*
X52011542Y-39134903D01*
X52715870Y-38430574D01*
X52721781Y-38421295D01*
X52714348Y-38413184D01*
X52656922Y-38372974D01*
X52647572Y-38367576D01*
X52451231Y-38276020D01*
X52441097Y-38272332D01*
X52231837Y-38216260D01*
X52221206Y-38214386D01*
X52005395Y-38195506D01*
X51994605Y-38195506D01*
X51778793Y-38214386D01*
X51768162Y-38216260D01*
X51558902Y-38272332D01*
X51548768Y-38276020D01*
X51352425Y-38367577D01*
X51343081Y-38372971D01*
X51285651Y-38413183D01*
X51278217Y-38421296D01*
X38721780Y-38421296D01*
X38721781Y-38421295D01*
X38714348Y-38413184D01*
X38656922Y-38372974D01*
X38647572Y-38367576D01*
X38451231Y-38276020D01*
X38441097Y-38272332D01*
X38231837Y-38216260D01*
X38221206Y-38214386D01*
X38005395Y-38195506D01*
X37994605Y-38195506D01*
X37778793Y-38214386D01*
X37768162Y-38216260D01*
X37558902Y-38272332D01*
X37548768Y-38276020D01*
X37352425Y-38367577D01*
X37343081Y-38372971D01*
X37285651Y-38413183D01*
X37278217Y-38421296D01*
X31755126Y-38421296D01*
X31645318Y-38368415D01*
X31636708Y-38365035D01*
X31394934Y-38290458D01*
X31385918Y-38288400D01*
X31135729Y-38250691D01*
X31126507Y-38250000D01*
X30873493Y-38250000D01*
X30864270Y-38250691D01*
X30614081Y-38288400D01*
X30605065Y-38290458D01*
X30363291Y-38365035D01*
X30354681Y-38368415D01*
X30126731Y-38478191D01*
X30118709Y-38482822D01*
X29962133Y-38589572D01*
X29954586Y-38597630D01*
X24000500Y-38597630D01*
X24000500Y-27922902D01*
X29595794Y-27922902D01*
X29595921Y-27926868D01*
X29595921Y-27926874D01*
X29603187Y-28153462D01*
X29605673Y-28230978D01*
X29606307Y-28234905D01*
X29606308Y-28234906D01*
X29649157Y-28499946D01*
X29654867Y-28535261D01*
X29742569Y-28830756D01*
X29744178Y-28834391D01*
X29744180Y-28834396D01*
X29865725Y-29108969D01*
X29865729Y-29108977D01*
X29867337Y-29112609D01*
X29869393Y-29116002D01*
X29869397Y-29116008D01*
X29948783Y-29246963D01*
X30027123Y-29376193D01*
X30219304Y-29617181D01*
X30440724Y-29831614D01*
X30443905Y-29833988D01*
X30566088Y-29925176D01*
X30687747Y-30015972D01*
X30691213Y-30017924D01*
X30825821Y-30093734D01*
X30956318Y-30167228D01*
X30960002Y-30168719D01*
X30960001Y-30168719D01*
X31238339Y-30281407D01*
X31238343Y-30281408D01*
X31242025Y-30282899D01*
X31540179Y-30361084D01*
X31845883Y-30400500D01*
X32074990Y-30400500D01*
X32076974Y-30400500D01*
X32307601Y-30385693D01*
X32610151Y-30326772D01*
X32902683Y-30229644D01*
X33180393Y-30095907D01*
X33438720Y-29927754D01*
X33673424Y-29727948D01*
X33880650Y-29499769D01*
X34056996Y-29246963D01*
X34199567Y-28973683D01*
X34306020Y-28684415D01*
X34374609Y-28383908D01*
X34404206Y-28077098D01*
X34403941Y-28068837D01*
X34399163Y-27919844D01*
X34394327Y-27769022D01*
X34345133Y-27464739D01*
X34257431Y-27169244D01*
X34132663Y-26887391D01*
X34127902Y-26879538D01*
X33974938Y-26627207D01*
X33972877Y-26623807D01*
X33780696Y-26382819D01*
X33643549Y-26250000D01*
X42744671Y-26250000D01*
X42744936Y-26254044D01*
X42746635Y-26279968D01*
X42746831Y-26292219D01*
X42745861Y-26321221D01*
X42745861Y-26321230D01*
X42745723Y-26325369D01*
X42746137Y-26329490D01*
X42746138Y-26329502D01*
X42756664Y-26434136D01*
X42757021Y-26438436D01*
X42761806Y-26511432D01*
X42763966Y-26544380D01*
X42764757Y-26548357D01*
X42764759Y-26548372D01*
X42770469Y-26577083D01*
X42772228Y-26588852D01*
X42775466Y-26621033D01*
X42775467Y-26621040D01*
X42775882Y-26625162D01*
X42776843Y-26629197D01*
X42776845Y-26629205D01*
X42800457Y-26728288D01*
X42801452Y-26732841D01*
X42810201Y-26776823D01*
X42821519Y-26833722D01*
X42822822Y-26837563D01*
X42822826Y-26837575D01*
X42833300Y-26868433D01*
X42836501Y-26879538D01*
X42844769Y-26914229D01*
X42844773Y-26914243D01*
X42845731Y-26918261D01*
X42847214Y-26922112D01*
X42847217Y-26922121D01*
X42882644Y-27014105D01*
X42884346Y-27018806D01*
X42890684Y-27037476D01*
X42909894Y-27094067D01*
X42916348Y-27113077D01*
X42918141Y-27116713D01*
X42918142Y-27116715D01*
X42934022Y-27148916D01*
X42938523Y-27159191D01*
X42952534Y-27195568D01*
X42954023Y-27199434D01*
X42956014Y-27203067D01*
X43001787Y-27286594D01*
X43004249Y-27291325D01*
X43046828Y-27377665D01*
X43049081Y-27381037D01*
X43049084Y-27381042D01*
X43070868Y-27413644D01*
X43076507Y-27422941D01*
X43098825Y-27463665D01*
X43101284Y-27467002D01*
X43101287Y-27467007D01*
X43155826Y-27541028D01*
X43159099Y-27545691D01*
X43210727Y-27622957D01*
X43213399Y-27626004D01*
X43213403Y-27626009D01*
X43241445Y-27657985D01*
X43248039Y-27666180D01*
X43277554Y-27706238D01*
X43280439Y-27709221D01*
X43342064Y-27772942D01*
X43346156Y-27777385D01*
X43384245Y-27820816D01*
X43405242Y-27844758D01*
X43408289Y-27847430D01*
X43408291Y-27847432D01*
X43442755Y-27877657D01*
X43450128Y-27884679D01*
X43481192Y-27916798D01*
X43487020Y-27922824D01*
X43496921Y-27930643D01*
X43557241Y-27978276D01*
X43562152Y-27982364D01*
X43627043Y-28039273D01*
X43671308Y-28068850D01*
X43679228Y-28074609D01*
X43723485Y-28109558D01*
X43727052Y-28111671D01*
X43727054Y-28111672D01*
X43797610Y-28153462D01*
X43803309Y-28157050D01*
X43865920Y-28198886D01*
X43872335Y-28203172D01*
X43875975Y-28204967D01*
X43923036Y-28228175D01*
X43931381Y-28232695D01*
X43982730Y-28263109D01*
X43986534Y-28264722D01*
X43986538Y-28264724D01*
X44059009Y-28295454D01*
X44065439Y-28298400D01*
X44136923Y-28333652D01*
X44193585Y-28352886D01*
X44202134Y-28356144D01*
X44260128Y-28380736D01*
X44334578Y-28401129D01*
X44336832Y-28401747D01*
X44343916Y-28403916D01*
X44416278Y-28428481D01*
X44478232Y-28440804D01*
X44486786Y-28442824D01*
X44550729Y-28460340D01*
X44626297Y-28470502D01*
X44633934Y-28471774D01*
X44705620Y-28486034D01*
X44709660Y-28486298D01*
X44709662Y-28486299D01*
X44716676Y-28486758D01*
X44771972Y-28490382D01*
X44780339Y-28491218D01*
X44849347Y-28500500D01*
X44922273Y-28500500D01*
X44930383Y-28500766D01*
X45000000Y-28505329D01*
X45072239Y-28500594D01*
X45074143Y-28500500D01*
X45075244Y-28500500D01*
X45148670Y-28495584D01*
X45148844Y-28495610D01*
X45148842Y-28495573D01*
X45148842Y-28495572D01*
X45294380Y-28486034D01*
X45295453Y-28485819D01*
X45295685Y-28485797D01*
X45296488Y-28485689D01*
X45300634Y-28485412D01*
X45443658Y-28456341D01*
X45583722Y-28428481D01*
X45586833Y-28427424D01*
X45591192Y-28426398D01*
X45591828Y-28426223D01*
X45595903Y-28425396D01*
X45730443Y-28378678D01*
X45731251Y-28378401D01*
X45802076Y-28354359D01*
X45863077Y-28333652D01*
X45866722Y-28331853D01*
X45870476Y-28330299D01*
X45870570Y-28330528D01*
X45872820Y-28329580D01*
X45872803Y-28329538D01*
X45876614Y-28327921D01*
X45880537Y-28326560D01*
X46004742Y-28263795D01*
X46005651Y-28263341D01*
X46127665Y-28203172D01*
X46131041Y-28200915D01*
X46134557Y-28198886D01*
X46134564Y-28198899D01*
X46143540Y-28193658D01*
X46149459Y-28190668D01*
X46261602Y-28113685D01*
X46262536Y-28113053D01*
X46372957Y-28039273D01*
X46378074Y-28034784D01*
X46389655Y-28025781D01*
X46397869Y-28020144D01*
X46496143Y-27931258D01*
X46497491Y-27930057D01*
X46505650Y-27922902D01*
X84595794Y-27922902D01*
X84595921Y-27926868D01*
X84595921Y-27926874D01*
X84603187Y-28153462D01*
X84605673Y-28230978D01*
X84606307Y-28234905D01*
X84606308Y-28234906D01*
X84649157Y-28499946D01*
X84654867Y-28535261D01*
X84742569Y-28830756D01*
X84744178Y-28834391D01*
X84744180Y-28834396D01*
X84865725Y-29108969D01*
X84865729Y-29108977D01*
X84867337Y-29112609D01*
X84869393Y-29116002D01*
X84869397Y-29116008D01*
X84948783Y-29246963D01*
X85027123Y-29376193D01*
X85219304Y-29617181D01*
X85440724Y-29831614D01*
X85443905Y-29833988D01*
X85566088Y-29925176D01*
X85687747Y-30015972D01*
X85691213Y-30017924D01*
X85825821Y-30093734D01*
X85956318Y-30167228D01*
X85960002Y-30168719D01*
X85960001Y-30168719D01*
X86238339Y-30281407D01*
X86238343Y-30281408D01*
X86242025Y-30282899D01*
X86540179Y-30361084D01*
X86845883Y-30400500D01*
X87074990Y-30400500D01*
X87076974Y-30400500D01*
X87307601Y-30385693D01*
X87610151Y-30326772D01*
X87902683Y-30229644D01*
X88180393Y-30095907D01*
X88438720Y-29927754D01*
X88673424Y-29727948D01*
X88880650Y-29499769D01*
X89056996Y-29246963D01*
X89199567Y-28973683D01*
X89306020Y-28684415D01*
X89374609Y-28383908D01*
X89404206Y-28077098D01*
X89403941Y-28068837D01*
X89399163Y-27919844D01*
X89394327Y-27769022D01*
X89345133Y-27464739D01*
X89257431Y-27169244D01*
X89132663Y-26887391D01*
X89127902Y-26879538D01*
X88974938Y-26627207D01*
X88972877Y-26623807D01*
X88780696Y-26382819D01*
X88570002Y-26178774D01*
X88562127Y-26171147D01*
X88562126Y-26171146D01*
X88559276Y-26168386D01*
X88519591Y-26138768D01*
X88315444Y-25986409D01*
X88315438Y-25986405D01*
X88312253Y-25984028D01*
X88308790Y-25982078D01*
X88308786Y-25982075D01*
X88047142Y-25834720D01*
X88047134Y-25834716D01*
X88043682Y-25832772D01*
X88040004Y-25831283D01*
X88039998Y-25831280D01*
X87761660Y-25718592D01*
X87761647Y-25718587D01*
X87757975Y-25717101D01*
X87754135Y-25716094D01*
X87754129Y-25716092D01*
X87463664Y-25639923D01*
X87463652Y-25639920D01*
X87459821Y-25638916D01*
X87455884Y-25638408D01*
X87455877Y-25638407D01*
X87158055Y-25600007D01*
X87158043Y-25600006D01*
X87154117Y-25599500D01*
X86923026Y-25599500D01*
X86921053Y-25599626D01*
X86921042Y-25599627D01*
X86696376Y-25614051D01*
X86696365Y-25614052D01*
X86692399Y-25614307D01*
X86688488Y-25615068D01*
X86688485Y-25615069D01*
X86393758Y-25672466D01*
X86393747Y-25672468D01*
X86389849Y-25673228D01*
X86386079Y-25674479D01*
X86386074Y-25674481D01*
X86101093Y-25769102D01*
X86101089Y-25769103D01*
X86097317Y-25770356D01*
X86093737Y-25772079D01*
X86093727Y-25772084D01*
X85823200Y-25902362D01*
X85823191Y-25902366D01*
X85819607Y-25904093D01*
X85816278Y-25906259D01*
X85816269Y-25906265D01*
X85564606Y-26070080D01*
X85564595Y-26070087D01*
X85561280Y-26072246D01*
X85558259Y-26074817D01*
X85558252Y-26074823D01*
X85329609Y-26269469D01*
X85329600Y-26269477D01*
X85326576Y-26272052D01*
X85323910Y-26274986D01*
X85323896Y-26275001D01*
X85122030Y-26497279D01*
X85122023Y-26497287D01*
X85119350Y-26500231D01*
X85117074Y-26503493D01*
X85117069Y-26503500D01*
X84945280Y-26749773D01*
X84945274Y-26749781D01*
X84943004Y-26753037D01*
X84941171Y-26756550D01*
X84941164Y-26756562D01*
X84802272Y-27022791D01*
X84802269Y-27022797D01*
X84800433Y-27026317D01*
X84799064Y-27030035D01*
X84799059Y-27030048D01*
X84728128Y-27222793D01*
X84693980Y-27315585D01*
X84693098Y-27319449D01*
X84693096Y-27319456D01*
X84626374Y-27611786D01*
X84625391Y-27616092D01*
X84625009Y-27620044D01*
X84625008Y-27620055D01*
X84599481Y-27884679D01*
X84595794Y-27922902D01*
X46505650Y-27922902D01*
X46594758Y-27844758D01*
X46601434Y-27837143D01*
X46611494Y-27826930D01*
X46621333Y-27818032D01*
X46704799Y-27719305D01*
X46706127Y-27717764D01*
X46789273Y-27622957D01*
X46796744Y-27611774D01*
X46805144Y-27600618D01*
X46815865Y-27587939D01*
X46883611Y-27481815D01*
X46884972Y-27479732D01*
X46953172Y-27377665D01*
X46960588Y-27362625D01*
X46967274Y-27350759D01*
X46977993Y-27333970D01*
X47029611Y-27222733D01*
X47030806Y-27220236D01*
X47083652Y-27113077D01*
X47090109Y-27094053D01*
X47095048Y-27081722D01*
X47103078Y-27064419D01*
X47103079Y-27064414D01*
X47104823Y-27060658D01*
X47140156Y-26946754D01*
X47141153Y-26943681D01*
X47178481Y-26833722D01*
X47183047Y-26810759D01*
X47186225Y-26798238D01*
X47194093Y-26772879D01*
X47213383Y-26658516D01*
X47214023Y-26655033D01*
X47236034Y-26544380D01*
X47237781Y-26517712D01*
X47239239Y-26505229D01*
X47244209Y-26475770D01*
X47247973Y-26363173D01*
X47248169Y-26359227D01*
X47250389Y-26325369D01*
X47255329Y-26250000D01*
X47253363Y-26220022D01*
X47253167Y-26207803D01*
X47254277Y-26174631D01*
X47243336Y-26065880D01*
X47242979Y-26061584D01*
X47240802Y-26028367D01*
X47236034Y-25955620D01*
X47229528Y-25922912D01*
X47227770Y-25911143D01*
X47224118Y-25874838D01*
X47199532Y-25771675D01*
X47198556Y-25767210D01*
X47180113Y-25674481D01*
X47179272Y-25670254D01*
X47179271Y-25670251D01*
X47178481Y-25666278D01*
X47166695Y-25631559D01*
X47163496Y-25620457D01*
X47161969Y-25614051D01*
X47154269Y-25581739D01*
X47117351Y-25485884D01*
X47115655Y-25481200D01*
X47092245Y-25412237D01*
X47083652Y-25386923D01*
X47065973Y-25351073D01*
X47061479Y-25340816D01*
X47045977Y-25300566D01*
X46998196Y-25213378D01*
X46995755Y-25208688D01*
X46953172Y-25122336D01*
X46950912Y-25118953D01*
X46950911Y-25118952D01*
X46929133Y-25086360D01*
X46923491Y-25077058D01*
X46922782Y-25075765D01*
X46901175Y-25036335D01*
X46844169Y-24958966D01*
X46840897Y-24954304D01*
X46789273Y-24877043D01*
X46758553Y-24842013D01*
X46751954Y-24833810D01*
X46724908Y-24797103D01*
X46724905Y-24797100D01*
X46722446Y-24793762D01*
X46657934Y-24727056D01*
X46653842Y-24722613D01*
X46606165Y-24668249D01*
X46594758Y-24655242D01*
X46591717Y-24652575D01*
X46591707Y-24652565D01*
X46557237Y-24622335D01*
X46549864Y-24615313D01*
X46515861Y-24580155D01*
X46512980Y-24577176D01*
X46509730Y-24574609D01*
X46509725Y-24574605D01*
X46442768Y-24521730D01*
X46437858Y-24517643D01*
X46376015Y-24463408D01*
X46376007Y-24463402D01*
X46372957Y-24460727D01*
X46369583Y-24458473D01*
X46369572Y-24458464D01*
X46328701Y-24431154D01*
X46320745Y-24425369D01*
X46279770Y-24393012D01*
X46279766Y-24393009D01*
X46276515Y-24390442D01*
X46272945Y-24388327D01*
X46272940Y-24388324D01*
X46202387Y-24346535D01*
X46196690Y-24342948D01*
X46131042Y-24299084D01*
X46131037Y-24299081D01*
X46127665Y-24296828D01*
X46124030Y-24295035D01*
X46124026Y-24295033D01*
X46076949Y-24271816D01*
X46068615Y-24267302D01*
X46017270Y-24236891D01*
X45940997Y-24204548D01*
X45934570Y-24201603D01*
X45866720Y-24168143D01*
X45866701Y-24168135D01*
X45863077Y-24166348D01*
X45859247Y-24165047D01*
X45859245Y-24165047D01*
X45806409Y-24147111D01*
X45797863Y-24143853D01*
X45743700Y-24120886D01*
X45743684Y-24120880D01*
X45739872Y-24119264D01*
X45735874Y-24118168D01*
X45735866Y-24118166D01*
X45663154Y-24098248D01*
X45656074Y-24096079D01*
X45583722Y-24071519D01*
X45579749Y-24070728D01*
X45579739Y-24070726D01*
X45521777Y-24059197D01*
X45513210Y-24057174D01*
X45453270Y-24040755D01*
X45453264Y-24040753D01*
X45449271Y-24039660D01*
X45445170Y-24039108D01*
X45445158Y-24039106D01*
X45373717Y-24029497D01*
X45366058Y-24028222D01*
X45298361Y-24014757D01*
X45298348Y-24014755D01*
X45294380Y-24013966D01*
X45290328Y-24013700D01*
X45290325Y-24013700D01*
X45228070Y-24009619D01*
X45219655Y-24008779D01*
X45154756Y-24000051D01*
X45154744Y-24000050D01*
X45150653Y-23999500D01*
X45146512Y-23999500D01*
X45077727Y-23999500D01*
X45069617Y-23999234D01*
X45004058Y-23994937D01*
X45000000Y-23994671D01*
X44927776Y-23999404D01*
X44925855Y-23999500D01*
X44924756Y-23999500D01*
X44922696Y-23999637D01*
X44922692Y-23999638D01*
X44851157Y-24004426D01*
X44850987Y-24004437D01*
X44708845Y-24013754D01*
X44708827Y-24013755D01*
X44705620Y-24013966D01*
X44704533Y-24014181D01*
X44704259Y-24014209D01*
X44703503Y-24014310D01*
X44699366Y-24014588D01*
X44695308Y-24015412D01*
X44695306Y-24015413D01*
X44556650Y-24043595D01*
X44556146Y-24043696D01*
X44420251Y-24070728D01*
X44420240Y-24070730D01*
X44416278Y-24071519D01*
X44413169Y-24072573D01*
X44408810Y-24073600D01*
X44408160Y-24073777D01*
X44404097Y-24074604D01*
X44400182Y-24075963D01*
X44400176Y-24075965D01*
X44269651Y-24121287D01*
X44268837Y-24121567D01*
X44140765Y-24165043D01*
X44140754Y-24165047D01*
X44136923Y-24166348D01*
X44133284Y-24168141D01*
X44129538Y-24169694D01*
X44129454Y-24169492D01*
X44127182Y-24170439D01*
X44127192Y-24170462D01*
X44123360Y-24172086D01*
X44119463Y-24173440D01*
X44115789Y-24175296D01*
X44115769Y-24175305D01*
X43995241Y-24236210D01*
X43994162Y-24236749D01*
X43989602Y-24238998D01*
X43872336Y-24296828D01*
X43868972Y-24299075D01*
X43865446Y-24301111D01*
X43865439Y-24301099D01*
X43856491Y-24306324D01*
X43854242Y-24307460D01*
X43854223Y-24307470D01*
X43850541Y-24309332D01*
X43847139Y-24311667D01*
X43847126Y-24311675D01*
X43738584Y-24386185D01*
X43737298Y-24387056D01*
X43630423Y-24458468D01*
X43630417Y-24458472D01*
X43627043Y-24460727D01*
X43623996Y-24463398D01*
X43623979Y-24463412D01*
X43621914Y-24465224D01*
X43610353Y-24474211D01*
X43605554Y-24477505D01*
X43605543Y-24477513D01*
X43602131Y-24479856D01*
X43599058Y-24482634D01*
X43599052Y-24482640D01*
X43503881Y-24568716D01*
X43502465Y-24569977D01*
X43408289Y-24652568D01*
X43408274Y-24652582D01*
X43405242Y-24655242D01*
X43402580Y-24658276D01*
X43402567Y-24658290D01*
X43398557Y-24662863D01*
X43388520Y-24673055D01*
X43381735Y-24679191D01*
X43381720Y-24679206D01*
X43378667Y-24681968D01*
X43376003Y-24685118D01*
X43375999Y-24685123D01*
X43295299Y-24780575D01*
X43293836Y-24782274D01*
X43213407Y-24873986D01*
X43213400Y-24873994D01*
X43210727Y-24877043D01*
X43208471Y-24880417D01*
X43208467Y-24880424D01*
X43203247Y-24888235D01*
X43194852Y-24899382D01*
X43186813Y-24908891D01*
X43186800Y-24908907D01*
X43184135Y-24912061D01*
X43181913Y-24915541D01*
X43181909Y-24915547D01*
X43116420Y-25018132D01*
X43115005Y-25020297D01*
X43049087Y-25118953D01*
X43049078Y-25118968D01*
X43046828Y-25122336D01*
X43045034Y-25125971D01*
X43045033Y-25125975D01*
X43039412Y-25137372D01*
X43032727Y-25149234D01*
X43024236Y-25162536D01*
X43024227Y-25162550D01*
X43022007Y-25166030D01*
X43020271Y-25169769D01*
X43020267Y-25169778D01*
X42970412Y-25277212D01*
X42969146Y-25279857D01*
X42936508Y-25346042D01*
X42916348Y-25386923D01*
X42915046Y-25390755D01*
X42915045Y-25390760D01*
X42909891Y-25405943D01*
X42904954Y-25418271D01*
X42896923Y-25435577D01*
X42896918Y-25435589D01*
X42895177Y-25439342D01*
X42893949Y-25443298D01*
X42893946Y-25443308D01*
X42859852Y-25553215D01*
X42858850Y-25556300D01*
X42821519Y-25666278D01*
X42820727Y-25670254D01*
X42820723Y-25670273D01*
X42816951Y-25689236D01*
X42813769Y-25701774D01*
X42808553Y-25718592D01*
X42805907Y-25727121D01*
X42805219Y-25731194D01*
X42805214Y-25731219D01*
X42786622Y-25841434D01*
X42785968Y-25844996D01*
X42764758Y-25951636D01*
X42763966Y-25955620D01*
X42763701Y-25959662D01*
X42763700Y-25959672D01*
X42762218Y-25982274D01*
X42760758Y-25994777D01*
X42756479Y-26020148D01*
X42755791Y-26024230D01*
X42755652Y-26028357D01*
X42755652Y-26028367D01*
X42752027Y-26136779D01*
X42751831Y-26140743D01*
X42749339Y-26178774D01*
X42744671Y-26250000D01*
X33643549Y-26250000D01*
X33570002Y-26178774D01*
X33562127Y-26171147D01*
X33562126Y-26171146D01*
X33559276Y-26168386D01*
X33519591Y-26138768D01*
X33315444Y-25986409D01*
X33315438Y-25986405D01*
X33312253Y-25984028D01*
X33308790Y-25982078D01*
X33308786Y-25982075D01*
X33047142Y-25834720D01*
X33047134Y-25834716D01*
X33043682Y-25832772D01*
X33040004Y-25831283D01*
X33039998Y-25831280D01*
X32761660Y-25718592D01*
X32761647Y-25718587D01*
X32757975Y-25717101D01*
X32754135Y-25716094D01*
X32754129Y-25716092D01*
X32463664Y-25639923D01*
X32463652Y-25639920D01*
X32459821Y-25638916D01*
X32455884Y-25638408D01*
X32455877Y-25638407D01*
X32158055Y-25600007D01*
X32158043Y-25600006D01*
X32154117Y-25599500D01*
X31923026Y-25599500D01*
X31921053Y-25599626D01*
X31921042Y-25599627D01*
X31696376Y-25614051D01*
X31696365Y-25614052D01*
X31692399Y-25614307D01*
X31688488Y-25615068D01*
X31688485Y-25615069D01*
X31393758Y-25672466D01*
X31393747Y-25672468D01*
X31389849Y-25673228D01*
X31386079Y-25674479D01*
X31386074Y-25674481D01*
X31101093Y-25769102D01*
X31101089Y-25769103D01*
X31097317Y-25770356D01*
X31093737Y-25772079D01*
X31093727Y-25772084D01*
X30823200Y-25902362D01*
X30823191Y-25902366D01*
X30819607Y-25904093D01*
X30816278Y-25906259D01*
X30816269Y-25906265D01*
X30564606Y-26070080D01*
X30564595Y-26070087D01*
X30561280Y-26072246D01*
X30558259Y-26074817D01*
X30558252Y-26074823D01*
X30329609Y-26269469D01*
X30329600Y-26269477D01*
X30326576Y-26272052D01*
X30323910Y-26274986D01*
X30323896Y-26275001D01*
X30122030Y-26497279D01*
X30122023Y-26497287D01*
X30119350Y-26500231D01*
X30117074Y-26503493D01*
X30117069Y-26503500D01*
X29945280Y-26749773D01*
X29945274Y-26749781D01*
X29943004Y-26753037D01*
X29941171Y-26756550D01*
X29941164Y-26756562D01*
X29802272Y-27022791D01*
X29802269Y-27022797D01*
X29800433Y-27026317D01*
X29799064Y-27030035D01*
X29799059Y-27030048D01*
X29728128Y-27222793D01*
X29693980Y-27315585D01*
X29693098Y-27319449D01*
X29693096Y-27319456D01*
X29626374Y-27611786D01*
X29625391Y-27616092D01*
X29625009Y-27620044D01*
X29625008Y-27620055D01*
X29599481Y-27884679D01*
X29595794Y-27922902D01*
X24000500Y-27922902D01*
X24000500Y-20124500D01*
X24017113Y-20062500D01*
X24062500Y-20017113D01*
X24124500Y-20000500D01*
X93875500Y-20000500D01*
X93937500Y-20017113D01*
G37*
%TD.AperFunction*%
%TD*%
M02*
