%TF.GenerationSoftware,KiCad,Pcbnew,7.0.0*%
%TF.CreationDate,2023-02-24T19:45:49+01:00*%
%TF.ProjectId,afzuiging-pcb,61667a75-6967-4696-9e67-2d7063622e6b,0*%
%TF.SameCoordinates,Original*%
%TF.FileFunction,Copper,L1,Top*%
%TF.FilePolarity,Positive*%
%FSLAX46Y46*%
G04 Gerber Fmt 4.6, Leading zero omitted, Abs format (unit mm)*
G04 Created by KiCad (PCBNEW 7.0.0) date 2023-02-24 19:45:49*
%MOMM*%
%LPD*%
G01*
G04 APERTURE LIST*
%TA.AperFunction,ComponentPad*%
%ADD10C,1.600000*%
%TD*%
%TA.AperFunction,ComponentPad*%
%ADD11O,1.600000X1.600000*%
%TD*%
%TA.AperFunction,ComponentPad*%
%ADD12C,2.500000*%
%TD*%
%TA.AperFunction,ComponentPad*%
%ADD13R,2.500000X2.500000*%
%TD*%
%TA.AperFunction,ComponentPad*%
%ADD14R,1.600000X1.600000*%
%TD*%
%TA.AperFunction,ComponentPad*%
%ADD15R,1.524000X1.524000*%
%TD*%
%TA.AperFunction,ComponentPad*%
%ADD16C,1.524000*%
%TD*%
%TA.AperFunction,ComponentPad*%
%ADD17R,1.905000X2.000000*%
%TD*%
%TA.AperFunction,ComponentPad*%
%ADD18O,1.905000X2.000000*%
%TD*%
%TA.AperFunction,Conductor*%
%ADD19C,0.250000*%
%TD*%
G04 APERTURE END LIST*
D10*
%TO.P,C1,1*%
%TO.N,+15V*%
X51000000Y-59000000D03*
%TO.P,C1,2*%
%TO.N,GND*%
X46000000Y-59000000D03*
%TD*%
%TO.P,R6,1*%
%TO.N,Net-(U2-IO26)*%
X54000000Y-60920000D03*
D11*
%TO.P,R6,2*%
%TO.N,Net-(U4B-+)*%
X53999999Y-71079999D03*
%TD*%
D12*
%TO.P,J1,2,Pin_2*%
%TO.N,GND*%
X31000000Y-40000000D03*
D13*
%TO.P,J1,1,Pin_1*%
%TO.N,+15V*%
X30999999Y-44999999D03*
%TD*%
D10*
%TO.P,R3,1*%
%TO.N,Net-(U2-IO25)*%
X54000000Y-58000000D03*
D11*
%TO.P,R3,2*%
%TO.N,Net-(U4A-+)*%
X53999999Y-47839999D03*
%TD*%
D13*
%TO.P,J3,1,Pin_1*%
%TO.N,Net-(J3-Pin_1)*%
X30999999Y-69499999D03*
D12*
%TO.P,J3,2,Pin_2*%
%TO.N,GND*%
X31000000Y-64500000D03*
%TD*%
D10*
%TO.P,R4,1*%
%TO.N,Net-(U4B--)*%
X49820000Y-78000000D03*
D11*
%TO.P,R4,2*%
%TO.N,GND*%
X39659999Y-77999999D03*
%TD*%
D10*
%TO.P,R1,1*%
%TO.N,Net-(U4A--)*%
X39920000Y-48000000D03*
D11*
%TO.P,R1,2*%
%TO.N,GND*%
X50079999Y-47999999D03*
%TD*%
D14*
%TO.P,U4,1*%
%TO.N,Net-(J2-Pin_1)*%
X41199999Y-64379999D03*
D11*
%TO.P,U4,2,-*%
%TO.N,Net-(U4A--)*%
X41199999Y-66919999D03*
%TO.P,U4,3,+*%
%TO.N,Net-(U4A-+)*%
X41199999Y-69459999D03*
%TO.P,U4,4,V-*%
%TO.N,GND*%
X41199999Y-71999999D03*
%TO.P,U4,5,+*%
%TO.N,Net-(U4B-+)*%
X48819999Y-71999999D03*
%TO.P,U4,6,-*%
%TO.N,Net-(U4B--)*%
X48819999Y-69459999D03*
%TO.P,U4,7*%
%TO.N,Net-(J3-Pin_1)*%
X48819999Y-66919999D03*
%TO.P,U4,8,V+*%
%TO.N,+15V*%
X48819999Y-64379999D03*
%TD*%
D10*
%TO.P,C2,1*%
%TO.N,+15V*%
X38000000Y-44500000D03*
%TO.P,C2,2*%
%TO.N,GND*%
X38000000Y-39500000D03*
%TD*%
D13*
%TO.P,J2,1,Pin_1*%
%TO.N,Net-(J2-Pin_1)*%
X30999999Y-57499999D03*
D12*
%TO.P,J2,2,Pin_2*%
%TO.N,GND*%
X31000000Y-52500000D03*
%TD*%
D15*
%TO.P,U2,1,EN*%
%TO.N,unconnected-(U2-EN-Pad1)*%
X58299999Y-36059999D03*
D16*
%TO.P,U2,2,SENSOR_VP*%
%TO.N,unconnected-(U2-SENSOR_VP-Pad2)*%
X58300000Y-38600000D03*
%TO.P,U2,3,SENSOR_VN*%
%TO.N,unconnected-(U2-SENSOR_VN-Pad3)*%
X58300000Y-41140000D03*
%TO.P,U2,4,IO34*%
%TO.N,unconnected-(U2-IO34-Pad4)*%
X58300000Y-43680000D03*
%TO.P,U2,5,IO35*%
%TO.N,unconnected-(U2-IO35-Pad5)*%
X58300000Y-46220000D03*
%TO.P,U2,6,IO32*%
%TO.N,unconnected-(U2-IO32-Pad6)*%
X58300000Y-48760000D03*
%TO.P,U2,7,IO33*%
%TO.N,unconnected-(U2-IO33-Pad7)*%
X58300000Y-51300000D03*
%TO.P,U2,8,IO25*%
%TO.N,Net-(U2-IO25)*%
X58300000Y-53840000D03*
%TO.P,U2,9,IO26*%
%TO.N,Net-(U2-IO26)*%
X58300000Y-56380000D03*
%TO.P,U2,10,IO27*%
%TO.N,unconnected-(U2-IO27-Pad10)*%
X58300000Y-58920000D03*
%TO.P,U2,11,IO14*%
%TO.N,unconnected-(U2-IO14-Pad11)*%
X58300000Y-61460000D03*
%TO.P,U2,12,IO12*%
%TO.N,unconnected-(U2-IO12-Pad12)*%
X58300000Y-64000000D03*
%TO.P,U2,13,IO13*%
%TO.N,unconnected-(U2-IO13-Pad13)*%
X58300000Y-66540000D03*
%TO.P,U2,14,GND*%
%TO.N,GND*%
X58300000Y-69080000D03*
%TO.P,U2,15,VIN*%
%TO.N,+5V*%
X58300000Y-71620000D03*
%TO.P,U2,16,3V3*%
%TO.N,unconnected-(U2-3V3-Pad16)*%
X83700000Y-71620000D03*
%TO.P,U2,17,GND*%
%TO.N,GND*%
X83700000Y-69080000D03*
%TO.P,U2,18,IO15*%
%TO.N,unconnected-(U2-IO15-Pad18)*%
X83700000Y-66540000D03*
%TO.P,U2,19,IO2*%
%TO.N,unconnected-(U2-IO2-Pad19)*%
X83700000Y-64000000D03*
%TO.P,U2,20,IO4*%
%TO.N,unconnected-(U2-IO4-Pad20)*%
X83700000Y-61460000D03*
%TO.P,U2,21,IO16*%
%TO.N,unconnected-(U2-IO16-Pad21)*%
X83700000Y-58920000D03*
%TO.P,U2,22,IO17*%
%TO.N,unconnected-(U2-IO17-Pad22)*%
X83700000Y-56380000D03*
%TO.P,U2,23,IO5*%
%TO.N,unconnected-(U2-IO5-Pad23)*%
X83700000Y-53840000D03*
%TO.P,U2,24,IO18*%
%TO.N,unconnected-(U2-IO18-Pad24)*%
X83700000Y-51300000D03*
%TO.P,U2,25,IO19*%
%TO.N,unconnected-(U2-IO19-Pad25)*%
X83700000Y-48760000D03*
%TO.P,U2,26,IO21*%
%TO.N,unconnected-(U2-IO21-Pad26)*%
X83700000Y-46220000D03*
%TO.P,U2,27,RXD0/IO3*%
%TO.N,unconnected-(U2-RXD0{slash}IO3-Pad27)*%
X83700000Y-43680000D03*
%TO.P,U2,28,TXD0/IO1*%
%TO.N,unconnected-(U2-TXD0{slash}IO1-Pad28)*%
X83700000Y-41140000D03*
%TO.P,U2,29,IO22*%
%TO.N,unconnected-(U2-IO22-Pad29)*%
X83700000Y-38600000D03*
%TO.P,U2,30,IO23*%
%TO.N,unconnected-(U2-IO23-Pad30)*%
X83700000Y-36060000D03*
%TD*%
D10*
%TO.P,R2,1*%
%TO.N,Net-(J2-Pin_1)*%
X50000000Y-54000000D03*
D11*
%TO.P,R2,2*%
%TO.N,Net-(U4A--)*%
X39839999Y-53999999D03*
%TD*%
D10*
%TO.P,C3,2*%
%TO.N,GND*%
X52000000Y-39500000D03*
%TO.P,C3,1*%
%TO.N,+5V*%
X52000000Y-44500000D03*
%TD*%
D17*
%TO.P,U3,1,IN*%
%TO.N,+15V*%
X42459999Y-42049999D03*
D18*
%TO.P,U3,2,GND*%
%TO.N,GND*%
X44999999Y-42049999D03*
%TO.P,U3,3,OUT*%
%TO.N,+5V*%
X47539999Y-42049999D03*
%TD*%
D10*
%TO.P,R5,1*%
%TO.N,Net-(J3-Pin_1)*%
X39740000Y-84000000D03*
D11*
%TO.P,R5,2*%
%TO.N,Net-(U4B--)*%
X49899999Y-83999999D03*
%TD*%
D19*
%TO.N,Net-(J2-Pin_1)*%
X50000000Y-54000000D02*
X48868630Y-54000000D01*
X48868630Y-54000000D02*
X41200000Y-61668630D01*
X41200000Y-61668630D02*
X41200000Y-64380000D01*
X42000000Y-46000000D02*
X39000000Y-46000000D01*
X42000000Y-46000000D02*
X50000000Y-54000000D01*
X39000000Y-46000000D02*
X34000000Y-51000000D01*
X34000000Y-51000000D02*
X34000000Y-56000000D01*
X34000000Y-56000000D02*
X32500000Y-57500000D01*
X32500000Y-57500000D02*
X31000000Y-57500000D01*
%TO.N,Net-(U4A--)*%
X39920000Y-48000000D02*
X39920000Y-53920000D01*
X39920000Y-53920000D02*
X39840000Y-54000000D01*
X41200000Y-66920000D02*
X39840000Y-65560000D01*
X39840000Y-65560000D02*
X39840000Y-54000000D01*
%TO.N,+15V*%
X56000000Y-47000000D02*
X55000000Y-46000000D01*
X55000000Y-46000000D02*
X46410000Y-46000000D01*
X51000000Y-59000000D02*
X56000000Y-54000000D01*
X56000000Y-54000000D02*
X56000000Y-47000000D01*
X46410000Y-46000000D02*
X42460000Y-42050000D01*
%TO.N,Net-(U4A-+)*%
X41200000Y-69460000D02*
X49875000Y-60785000D01*
X49875000Y-60785000D02*
X49875000Y-56125000D01*
X49875000Y-56125000D02*
X54000000Y-52000000D01*
X54000000Y-52000000D02*
X54000000Y-47840000D01*
%TO.N,+15V*%
X42460000Y-42050000D02*
X40450000Y-42050000D01*
X40450000Y-42050000D02*
X38000000Y-44500000D01*
X31000000Y-45000000D02*
X37500000Y-45000000D01*
X37500000Y-45000000D02*
X38000000Y-44500000D01*
X51000000Y-59000000D02*
X51000000Y-62200000D01*
X51000000Y-62200000D02*
X48820000Y-64380000D01*
%TO.N,+5V*%
X61000000Y-34000000D02*
X62000000Y-35000000D01*
X62000000Y-35000000D02*
X62000000Y-67920000D01*
X62000000Y-67920000D02*
X58300000Y-71620000D01*
X52000000Y-44500000D02*
X49990000Y-44500000D01*
X49990000Y-44500000D02*
X47540000Y-42050000D01*
X61000000Y-34000000D02*
X54000000Y-34000000D01*
X54000000Y-34000000D02*
X47540000Y-40460000D01*
X47540000Y-40460000D02*
X47540000Y-42050000D01*
%TO.N,Net-(U2-IO25)*%
X54000000Y-58000000D02*
X58160000Y-53840000D01*
X58160000Y-53840000D02*
X58300000Y-53840000D01*
%TO.N,Net-(U2-IO26)*%
X54000000Y-60920000D02*
X58300000Y-56620000D01*
X58300000Y-56620000D02*
X58300000Y-56380000D01*
%TO.N,Net-(J3-Pin_1)*%
X39740000Y-81740000D02*
X46550000Y-74930000D01*
X46550000Y-74930000D02*
X46550000Y-69190000D01*
X46550000Y-69190000D02*
X48820000Y-66920000D01*
%TO.N,Net-(U4B-+)*%
X48820000Y-72000000D02*
X53080000Y-72000000D01*
X53080000Y-72000000D02*
X54000000Y-71080000D01*
%TO.N,Net-(U4B--)*%
X49820000Y-76820000D02*
X47000000Y-74000000D01*
X49820000Y-78000000D02*
X49820000Y-76820000D01*
X47000000Y-74000000D02*
X47000000Y-71280000D01*
X47000000Y-71280000D02*
X48820000Y-69460000D01*
%TO.N,Net-(J3-Pin_1)*%
X39740000Y-81740000D02*
X31000000Y-73000000D01*
X39740000Y-84000000D02*
X39740000Y-81740000D01*
X31000000Y-73000000D02*
X31000000Y-69500000D01*
%TO.N,Net-(U4B--)*%
X49900000Y-84000000D02*
X49900000Y-78080000D01*
X49900000Y-78080000D02*
X49820000Y-78000000D01*
%TD*%
M02*
