%TF.GenerationSoftware,KiCad,Pcbnew,7.0.0*%
%TF.CreationDate,2023-02-24T19:45:49+01:00*%
%TF.ProjectId,afzuiging-pcb,61667a75-6967-4696-9e67-2d7063622e6b,0*%
%TF.SameCoordinates,Original*%
%TF.FileFunction,Legend,Top*%
%TF.FilePolarity,Positive*%
%FSLAX46Y46*%
G04 Gerber Fmt 4.6, Leading zero omitted, Abs format (unit mm)*
G04 Created by KiCad (PCBNEW 7.0.0) date 2023-02-24 19:45:49*
%MOMM*%
%LPD*%
G01*
G04 APERTURE LIST*
%ADD10C,0.150000*%
%ADD11C,0.120000*%
%ADD12C,1.000000*%
%ADD13C,0.800000*%
G04 APERTURE END LIST*
D10*
X34571428Y-73717619D02*
X34476190Y-73717619D01*
X34476190Y-73717619D02*
X34380952Y-73670000D01*
X34380952Y-73670000D02*
X34333333Y-73622380D01*
X34333333Y-73622380D02*
X34285714Y-73527142D01*
X34285714Y-73527142D02*
X34238095Y-73336666D01*
X34238095Y-73336666D02*
X34238095Y-73098571D01*
X34238095Y-73098571D02*
X34285714Y-72908095D01*
X34285714Y-72908095D02*
X34333333Y-72812857D01*
X34333333Y-72812857D02*
X34380952Y-72765238D01*
X34380952Y-72765238D02*
X34476190Y-72717619D01*
X34476190Y-72717619D02*
X34571428Y-72717619D01*
X34571428Y-72717619D02*
X34666666Y-72765238D01*
X34666666Y-72765238D02*
X34714285Y-72812857D01*
X34714285Y-72812857D02*
X34761904Y-72908095D01*
X34761904Y-72908095D02*
X34809523Y-73098571D01*
X34809523Y-73098571D02*
X34809523Y-73336666D01*
X34809523Y-73336666D02*
X34761904Y-73527142D01*
X34761904Y-73527142D02*
X34714285Y-73622380D01*
X34714285Y-73622380D02*
X34666666Y-73670000D01*
X34666666Y-73670000D02*
X34571428Y-73717619D01*
X33809523Y-73098571D02*
X33047619Y-73098571D01*
X32047619Y-72717619D02*
X32619047Y-72717619D01*
X32333333Y-72717619D02*
X32333333Y-73717619D01*
X32333333Y-73717619D02*
X32428571Y-73574761D01*
X32428571Y-73574761D02*
X32523809Y-73479523D01*
X32523809Y-73479523D02*
X32619047Y-73431904D01*
X31428571Y-73717619D02*
X31333333Y-73717619D01*
X31333333Y-73717619D02*
X31238095Y-73670000D01*
X31238095Y-73670000D02*
X31190476Y-73622380D01*
X31190476Y-73622380D02*
X31142857Y-73527142D01*
X31142857Y-73527142D02*
X31095238Y-73336666D01*
X31095238Y-73336666D02*
X31095238Y-73098571D01*
X31095238Y-73098571D02*
X31142857Y-72908095D01*
X31142857Y-72908095D02*
X31190476Y-72812857D01*
X31190476Y-72812857D02*
X31238095Y-72765238D01*
X31238095Y-72765238D02*
X31333333Y-72717619D01*
X31333333Y-72717619D02*
X31428571Y-72717619D01*
X31428571Y-72717619D02*
X31523809Y-72765238D01*
X31523809Y-72765238D02*
X31571428Y-72812857D01*
X31571428Y-72812857D02*
X31619047Y-72908095D01*
X31619047Y-72908095D02*
X31666666Y-73098571D01*
X31666666Y-73098571D02*
X31666666Y-73336666D01*
X31666666Y-73336666D02*
X31619047Y-73527142D01*
X31619047Y-73527142D02*
X31571428Y-73622380D01*
X31571428Y-73622380D02*
X31523809Y-73670000D01*
X31523809Y-73670000D02*
X31428571Y-73717619D01*
X30809523Y-73717619D02*
X30476190Y-72717619D01*
X30476190Y-72717619D02*
X30142857Y-73717619D01*
X34871428Y-61517619D02*
X34776190Y-61517619D01*
X34776190Y-61517619D02*
X34680952Y-61470000D01*
X34680952Y-61470000D02*
X34633333Y-61422380D01*
X34633333Y-61422380D02*
X34585714Y-61327142D01*
X34585714Y-61327142D02*
X34538095Y-61136666D01*
X34538095Y-61136666D02*
X34538095Y-60898571D01*
X34538095Y-60898571D02*
X34585714Y-60708095D01*
X34585714Y-60708095D02*
X34633333Y-60612857D01*
X34633333Y-60612857D02*
X34680952Y-60565238D01*
X34680952Y-60565238D02*
X34776190Y-60517619D01*
X34776190Y-60517619D02*
X34871428Y-60517619D01*
X34871428Y-60517619D02*
X34966666Y-60565238D01*
X34966666Y-60565238D02*
X35014285Y-60612857D01*
X35014285Y-60612857D02*
X35061904Y-60708095D01*
X35061904Y-60708095D02*
X35109523Y-60898571D01*
X35109523Y-60898571D02*
X35109523Y-61136666D01*
X35109523Y-61136666D02*
X35061904Y-61327142D01*
X35061904Y-61327142D02*
X35014285Y-61422380D01*
X35014285Y-61422380D02*
X34966666Y-61470000D01*
X34966666Y-61470000D02*
X34871428Y-61517619D01*
X34109523Y-60898571D02*
X33347619Y-60898571D01*
X32347619Y-60517619D02*
X32919047Y-60517619D01*
X32633333Y-60517619D02*
X32633333Y-61517619D01*
X32633333Y-61517619D02*
X32728571Y-61374761D01*
X32728571Y-61374761D02*
X32823809Y-61279523D01*
X32823809Y-61279523D02*
X32919047Y-61231904D01*
X31728571Y-61517619D02*
X31633333Y-61517619D01*
X31633333Y-61517619D02*
X31538095Y-61470000D01*
X31538095Y-61470000D02*
X31490476Y-61422380D01*
X31490476Y-61422380D02*
X31442857Y-61327142D01*
X31442857Y-61327142D02*
X31395238Y-61136666D01*
X31395238Y-61136666D02*
X31395238Y-60898571D01*
X31395238Y-60898571D02*
X31442857Y-60708095D01*
X31442857Y-60708095D02*
X31490476Y-60612857D01*
X31490476Y-60612857D02*
X31538095Y-60565238D01*
X31538095Y-60565238D02*
X31633333Y-60517619D01*
X31633333Y-60517619D02*
X31728571Y-60517619D01*
X31728571Y-60517619D02*
X31823809Y-60565238D01*
X31823809Y-60565238D02*
X31871428Y-60612857D01*
X31871428Y-60612857D02*
X31919047Y-60708095D01*
X31919047Y-60708095D02*
X31966666Y-60898571D01*
X31966666Y-60898571D02*
X31966666Y-61136666D01*
X31966666Y-61136666D02*
X31919047Y-61327142D01*
X31919047Y-61327142D02*
X31871428Y-61422380D01*
X31871428Y-61422380D02*
X31823809Y-61470000D01*
X31823809Y-61470000D02*
X31728571Y-61517619D01*
X31109523Y-61517619D02*
X30776190Y-60517619D01*
X30776190Y-60517619D02*
X30442857Y-61517619D01*
X35061904Y-48398571D02*
X34300000Y-48398571D01*
X34680952Y-48017619D02*
X34680952Y-48779523D01*
X33300000Y-48017619D02*
X33871428Y-48017619D01*
X33585714Y-48017619D02*
X33585714Y-49017619D01*
X33585714Y-49017619D02*
X33680952Y-48874761D01*
X33680952Y-48874761D02*
X33776190Y-48779523D01*
X33776190Y-48779523D02*
X33871428Y-48731904D01*
X32395238Y-49017619D02*
X32871428Y-49017619D01*
X32871428Y-49017619D02*
X32919047Y-48541428D01*
X32919047Y-48541428D02*
X32871428Y-48589047D01*
X32871428Y-48589047D02*
X32776190Y-48636666D01*
X32776190Y-48636666D02*
X32538095Y-48636666D01*
X32538095Y-48636666D02*
X32442857Y-48589047D01*
X32442857Y-48589047D02*
X32395238Y-48541428D01*
X32395238Y-48541428D02*
X32347619Y-48446190D01*
X32347619Y-48446190D02*
X32347619Y-48208095D01*
X32347619Y-48208095D02*
X32395238Y-48112857D01*
X32395238Y-48112857D02*
X32442857Y-48065238D01*
X32442857Y-48065238D02*
X32538095Y-48017619D01*
X32538095Y-48017619D02*
X32776190Y-48017619D01*
X32776190Y-48017619D02*
X32871428Y-48065238D01*
X32871428Y-48065238D02*
X32919047Y-48112857D01*
X32061904Y-49017619D02*
X31728571Y-48017619D01*
X31728571Y-48017619D02*
X31395238Y-49017619D01*
X26701904Y-60770000D02*
X26606666Y-60722380D01*
X26606666Y-60722380D02*
X26463809Y-60722380D01*
X26463809Y-60722380D02*
X26320952Y-60770000D01*
X26320952Y-60770000D02*
X26225714Y-60865238D01*
X26225714Y-60865238D02*
X26178095Y-60960476D01*
X26178095Y-60960476D02*
X26130476Y-61150952D01*
X26130476Y-61150952D02*
X26130476Y-61293809D01*
X26130476Y-61293809D02*
X26178095Y-61484285D01*
X26178095Y-61484285D02*
X26225714Y-61579523D01*
X26225714Y-61579523D02*
X26320952Y-61674761D01*
X26320952Y-61674761D02*
X26463809Y-61722380D01*
X26463809Y-61722380D02*
X26559047Y-61722380D01*
X26559047Y-61722380D02*
X26701904Y-61674761D01*
X26701904Y-61674761D02*
X26749523Y-61627142D01*
X26749523Y-61627142D02*
X26749523Y-61293809D01*
X26749523Y-61293809D02*
X26559047Y-61293809D01*
X27178095Y-61722380D02*
X27178095Y-60722380D01*
X27178095Y-60722380D02*
X27749523Y-61722380D01*
X27749523Y-61722380D02*
X27749523Y-60722380D01*
X28225714Y-61722380D02*
X28225714Y-60722380D01*
X28225714Y-60722380D02*
X28463809Y-60722380D01*
X28463809Y-60722380D02*
X28606666Y-60770000D01*
X28606666Y-60770000D02*
X28701904Y-60865238D01*
X28701904Y-60865238D02*
X28749523Y-60960476D01*
X28749523Y-60960476D02*
X28797142Y-61150952D01*
X28797142Y-61150952D02*
X28797142Y-61293809D01*
X28797142Y-61293809D02*
X28749523Y-61484285D01*
X28749523Y-61484285D02*
X28701904Y-61579523D01*
X28701904Y-61579523D02*
X28606666Y-61674761D01*
X28606666Y-61674761D02*
X28463809Y-61722380D01*
X28463809Y-61722380D02*
X28225714Y-61722380D01*
X26701904Y-48770000D02*
X26606666Y-48722380D01*
X26606666Y-48722380D02*
X26463809Y-48722380D01*
X26463809Y-48722380D02*
X26320952Y-48770000D01*
X26320952Y-48770000D02*
X26225714Y-48865238D01*
X26225714Y-48865238D02*
X26178095Y-48960476D01*
X26178095Y-48960476D02*
X26130476Y-49150952D01*
X26130476Y-49150952D02*
X26130476Y-49293809D01*
X26130476Y-49293809D02*
X26178095Y-49484285D01*
X26178095Y-49484285D02*
X26225714Y-49579523D01*
X26225714Y-49579523D02*
X26320952Y-49674761D01*
X26320952Y-49674761D02*
X26463809Y-49722380D01*
X26463809Y-49722380D02*
X26559047Y-49722380D01*
X26559047Y-49722380D02*
X26701904Y-49674761D01*
X26701904Y-49674761D02*
X26749523Y-49627142D01*
X26749523Y-49627142D02*
X26749523Y-49293809D01*
X26749523Y-49293809D02*
X26559047Y-49293809D01*
X27178095Y-49722380D02*
X27178095Y-48722380D01*
X27178095Y-48722380D02*
X27749523Y-49722380D01*
X27749523Y-49722380D02*
X27749523Y-48722380D01*
X28225714Y-49722380D02*
X28225714Y-48722380D01*
X28225714Y-48722380D02*
X28463809Y-48722380D01*
X28463809Y-48722380D02*
X28606666Y-48770000D01*
X28606666Y-48770000D02*
X28701904Y-48865238D01*
X28701904Y-48865238D02*
X28749523Y-48960476D01*
X28749523Y-48960476D02*
X28797142Y-49150952D01*
X28797142Y-49150952D02*
X28797142Y-49293809D01*
X28797142Y-49293809D02*
X28749523Y-49484285D01*
X28749523Y-49484285D02*
X28701904Y-49579523D01*
X28701904Y-49579523D02*
X28606666Y-49674761D01*
X28606666Y-49674761D02*
X28463809Y-49722380D01*
X28463809Y-49722380D02*
X28225714Y-49722380D01*
X26701904Y-36270000D02*
X26606666Y-36222380D01*
X26606666Y-36222380D02*
X26463809Y-36222380D01*
X26463809Y-36222380D02*
X26320952Y-36270000D01*
X26320952Y-36270000D02*
X26225714Y-36365238D01*
X26225714Y-36365238D02*
X26178095Y-36460476D01*
X26178095Y-36460476D02*
X26130476Y-36650952D01*
X26130476Y-36650952D02*
X26130476Y-36793809D01*
X26130476Y-36793809D02*
X26178095Y-36984285D01*
X26178095Y-36984285D02*
X26225714Y-37079523D01*
X26225714Y-37079523D02*
X26320952Y-37174761D01*
X26320952Y-37174761D02*
X26463809Y-37222380D01*
X26463809Y-37222380D02*
X26559047Y-37222380D01*
X26559047Y-37222380D02*
X26701904Y-37174761D01*
X26701904Y-37174761D02*
X26749523Y-37127142D01*
X26749523Y-37127142D02*
X26749523Y-36793809D01*
X26749523Y-36793809D02*
X26559047Y-36793809D01*
X27178095Y-37222380D02*
X27178095Y-36222380D01*
X27178095Y-36222380D02*
X27749523Y-37222380D01*
X27749523Y-37222380D02*
X27749523Y-36222380D01*
X28225714Y-37222380D02*
X28225714Y-36222380D01*
X28225714Y-36222380D02*
X28463809Y-36222380D01*
X28463809Y-36222380D02*
X28606666Y-36270000D01*
X28606666Y-36270000D02*
X28701904Y-36365238D01*
X28701904Y-36365238D02*
X28749523Y-36460476D01*
X28749523Y-36460476D02*
X28797142Y-36650952D01*
X28797142Y-36650952D02*
X28797142Y-36793809D01*
X28797142Y-36793809D02*
X28749523Y-36984285D01*
X28749523Y-36984285D02*
X28701904Y-37079523D01*
X28701904Y-37079523D02*
X28606666Y-37174761D01*
X28606666Y-37174761D02*
X28463809Y-37222380D01*
X28463809Y-37222380D02*
X28225714Y-37222380D01*
%TO.C,C1*%
X50583333Y-61772142D02*
X50535714Y-61819761D01*
X50535714Y-61819761D02*
X50392857Y-61867380D01*
X50392857Y-61867380D02*
X50297619Y-61867380D01*
X50297619Y-61867380D02*
X50154762Y-61819761D01*
X50154762Y-61819761D02*
X50059524Y-61724523D01*
X50059524Y-61724523D02*
X50011905Y-61629285D01*
X50011905Y-61629285D02*
X49964286Y-61438809D01*
X49964286Y-61438809D02*
X49964286Y-61295952D01*
X49964286Y-61295952D02*
X50011905Y-61105476D01*
X50011905Y-61105476D02*
X50059524Y-61010238D01*
X50059524Y-61010238D02*
X50154762Y-60915000D01*
X50154762Y-60915000D02*
X50297619Y-60867380D01*
X50297619Y-60867380D02*
X50392857Y-60867380D01*
X50392857Y-60867380D02*
X50535714Y-60915000D01*
X50535714Y-60915000D02*
X50583333Y-60962619D01*
X51535714Y-61867380D02*
X50964286Y-61867380D01*
X51250000Y-61867380D02*
X51250000Y-60867380D01*
X51250000Y-60867380D02*
X51154762Y-61010238D01*
X51154762Y-61010238D02*
X51059524Y-61105476D01*
X51059524Y-61105476D02*
X50964286Y-61153095D01*
%TO.C,R6*%
X56737380Y-63916666D02*
X56261190Y-64249999D01*
X56737380Y-64488094D02*
X55737380Y-64488094D01*
X55737380Y-64488094D02*
X55737380Y-64107142D01*
X55737380Y-64107142D02*
X55785000Y-64011904D01*
X55785000Y-64011904D02*
X55832619Y-63964285D01*
X55832619Y-63964285D02*
X55927857Y-63916666D01*
X55927857Y-63916666D02*
X56070714Y-63916666D01*
X56070714Y-63916666D02*
X56165952Y-63964285D01*
X56165952Y-63964285D02*
X56213571Y-64011904D01*
X56213571Y-64011904D02*
X56261190Y-64107142D01*
X56261190Y-64107142D02*
X56261190Y-64488094D01*
X55737380Y-63059523D02*
X55737380Y-63249999D01*
X55737380Y-63249999D02*
X55785000Y-63345237D01*
X55785000Y-63345237D02*
X55832619Y-63392856D01*
X55832619Y-63392856D02*
X55975476Y-63488094D01*
X55975476Y-63488094D02*
X56165952Y-63535713D01*
X56165952Y-63535713D02*
X56546904Y-63535713D01*
X56546904Y-63535713D02*
X56642142Y-63488094D01*
X56642142Y-63488094D02*
X56689761Y-63440475D01*
X56689761Y-63440475D02*
X56737380Y-63345237D01*
X56737380Y-63345237D02*
X56737380Y-63154761D01*
X56737380Y-63154761D02*
X56689761Y-63059523D01*
X56689761Y-63059523D02*
X56642142Y-63011904D01*
X56642142Y-63011904D02*
X56546904Y-62964285D01*
X56546904Y-62964285D02*
X56308809Y-62964285D01*
X56308809Y-62964285D02*
X56213571Y-63011904D01*
X56213571Y-63011904D02*
X56165952Y-63059523D01*
X56165952Y-63059523D02*
X56118333Y-63154761D01*
X56118333Y-63154761D02*
X56118333Y-63345237D01*
X56118333Y-63345237D02*
X56165952Y-63440475D01*
X56165952Y-63440475D02*
X56213571Y-63488094D01*
X56213571Y-63488094D02*
X56308809Y-63535713D01*
%TO.C,J1*%
X24367380Y-45309523D02*
X25367380Y-44976190D01*
X25367380Y-44976190D02*
X24367380Y-44642857D01*
X25367380Y-44166666D02*
X25319761Y-44261904D01*
X25319761Y-44261904D02*
X25272142Y-44309523D01*
X25272142Y-44309523D02*
X25176904Y-44357142D01*
X25176904Y-44357142D02*
X24891190Y-44357142D01*
X24891190Y-44357142D02*
X24795952Y-44309523D01*
X24795952Y-44309523D02*
X24748333Y-44261904D01*
X24748333Y-44261904D02*
X24700714Y-44166666D01*
X24700714Y-44166666D02*
X24700714Y-44023809D01*
X24700714Y-44023809D02*
X24748333Y-43928571D01*
X24748333Y-43928571D02*
X24795952Y-43880952D01*
X24795952Y-43880952D02*
X24891190Y-43833333D01*
X24891190Y-43833333D02*
X25176904Y-43833333D01*
X25176904Y-43833333D02*
X25272142Y-43880952D01*
X25272142Y-43880952D02*
X25319761Y-43928571D01*
X25319761Y-43928571D02*
X25367380Y-44023809D01*
X25367380Y-44023809D02*
X25367380Y-44166666D01*
X25319761Y-43023809D02*
X25367380Y-43119047D01*
X25367380Y-43119047D02*
X25367380Y-43309523D01*
X25367380Y-43309523D02*
X25319761Y-43404761D01*
X25319761Y-43404761D02*
X25224523Y-43452380D01*
X25224523Y-43452380D02*
X24843571Y-43452380D01*
X24843571Y-43452380D02*
X24748333Y-43404761D01*
X24748333Y-43404761D02*
X24700714Y-43309523D01*
X24700714Y-43309523D02*
X24700714Y-43119047D01*
X24700714Y-43119047D02*
X24748333Y-43023809D01*
X24748333Y-43023809D02*
X24843571Y-42976190D01*
X24843571Y-42976190D02*
X24938809Y-42976190D01*
X24938809Y-42976190D02*
X25034047Y-43452380D01*
X25367380Y-42119047D02*
X24367380Y-42119047D01*
X25319761Y-42119047D02*
X25367380Y-42214285D01*
X25367380Y-42214285D02*
X25367380Y-42404761D01*
X25367380Y-42404761D02*
X25319761Y-42499999D01*
X25319761Y-42499999D02*
X25272142Y-42547618D01*
X25272142Y-42547618D02*
X25176904Y-42595237D01*
X25176904Y-42595237D02*
X24891190Y-42595237D01*
X24891190Y-42595237D02*
X24795952Y-42547618D01*
X24795952Y-42547618D02*
X24748333Y-42499999D01*
X24748333Y-42499999D02*
X24700714Y-42404761D01*
X24700714Y-42404761D02*
X24700714Y-42214285D01*
X24700714Y-42214285D02*
X24748333Y-42119047D01*
X25367380Y-41642856D02*
X24700714Y-41642856D01*
X24367380Y-41642856D02*
X24415000Y-41690475D01*
X24415000Y-41690475D02*
X24462619Y-41642856D01*
X24462619Y-41642856D02*
X24415000Y-41595237D01*
X24415000Y-41595237D02*
X24367380Y-41642856D01*
X24367380Y-41642856D02*
X24462619Y-41642856D01*
X24700714Y-41166666D02*
X25367380Y-41166666D01*
X24795952Y-41166666D02*
X24748333Y-41119047D01*
X24748333Y-41119047D02*
X24700714Y-41023809D01*
X24700714Y-41023809D02*
X24700714Y-40880952D01*
X24700714Y-40880952D02*
X24748333Y-40785714D01*
X24748333Y-40785714D02*
X24843571Y-40738095D01*
X24843571Y-40738095D02*
X25367380Y-40738095D01*
X24700714Y-39833333D02*
X25510238Y-39833333D01*
X25510238Y-39833333D02*
X25605476Y-39880952D01*
X25605476Y-39880952D02*
X25653095Y-39928571D01*
X25653095Y-39928571D02*
X25700714Y-40023809D01*
X25700714Y-40023809D02*
X25700714Y-40166666D01*
X25700714Y-40166666D02*
X25653095Y-40261904D01*
X25319761Y-39833333D02*
X25367380Y-39928571D01*
X25367380Y-39928571D02*
X25367380Y-40119047D01*
X25367380Y-40119047D02*
X25319761Y-40214285D01*
X25319761Y-40214285D02*
X25272142Y-40261904D01*
X25272142Y-40261904D02*
X25176904Y-40309523D01*
X25176904Y-40309523D02*
X24891190Y-40309523D01*
X24891190Y-40309523D02*
X24795952Y-40261904D01*
X24795952Y-40261904D02*
X24748333Y-40214285D01*
X24748333Y-40214285D02*
X24700714Y-40119047D01*
X24700714Y-40119047D02*
X24700714Y-39928571D01*
X24700714Y-39928571D02*
X24748333Y-39833333D01*
%TO.C,R3*%
X56617380Y-50666666D02*
X56141190Y-50999999D01*
X56617380Y-51238094D02*
X55617380Y-51238094D01*
X55617380Y-51238094D02*
X55617380Y-50857142D01*
X55617380Y-50857142D02*
X55665000Y-50761904D01*
X55665000Y-50761904D02*
X55712619Y-50714285D01*
X55712619Y-50714285D02*
X55807857Y-50666666D01*
X55807857Y-50666666D02*
X55950714Y-50666666D01*
X55950714Y-50666666D02*
X56045952Y-50714285D01*
X56045952Y-50714285D02*
X56093571Y-50761904D01*
X56093571Y-50761904D02*
X56141190Y-50857142D01*
X56141190Y-50857142D02*
X56141190Y-51238094D01*
X55617380Y-50333332D02*
X55617380Y-49714285D01*
X55617380Y-49714285D02*
X55998333Y-50047618D01*
X55998333Y-50047618D02*
X55998333Y-49904761D01*
X55998333Y-49904761D02*
X56045952Y-49809523D01*
X56045952Y-49809523D02*
X56093571Y-49761904D01*
X56093571Y-49761904D02*
X56188809Y-49714285D01*
X56188809Y-49714285D02*
X56426904Y-49714285D01*
X56426904Y-49714285D02*
X56522142Y-49761904D01*
X56522142Y-49761904D02*
X56569761Y-49809523D01*
X56569761Y-49809523D02*
X56617380Y-49904761D01*
X56617380Y-49904761D02*
X56617380Y-50190475D01*
X56617380Y-50190475D02*
X56569761Y-50285713D01*
X56569761Y-50285713D02*
X56522142Y-50333332D01*
%TO.C,J3*%
X25319761Y-70371428D02*
X25367380Y-70228571D01*
X25367380Y-70228571D02*
X25367380Y-69990476D01*
X25367380Y-69990476D02*
X25319761Y-69895238D01*
X25319761Y-69895238D02*
X25272142Y-69847619D01*
X25272142Y-69847619D02*
X25176904Y-69800000D01*
X25176904Y-69800000D02*
X25081666Y-69800000D01*
X25081666Y-69800000D02*
X24986428Y-69847619D01*
X24986428Y-69847619D02*
X24938809Y-69895238D01*
X24938809Y-69895238D02*
X24891190Y-69990476D01*
X24891190Y-69990476D02*
X24843571Y-70180952D01*
X24843571Y-70180952D02*
X24795952Y-70276190D01*
X24795952Y-70276190D02*
X24748333Y-70323809D01*
X24748333Y-70323809D02*
X24653095Y-70371428D01*
X24653095Y-70371428D02*
X24557857Y-70371428D01*
X24557857Y-70371428D02*
X24462619Y-70323809D01*
X24462619Y-70323809D02*
X24415000Y-70276190D01*
X24415000Y-70276190D02*
X24367380Y-70180952D01*
X24367380Y-70180952D02*
X24367380Y-69942857D01*
X24367380Y-69942857D02*
X24415000Y-69800000D01*
X25367380Y-69371428D02*
X24700714Y-69371428D01*
X24367380Y-69371428D02*
X24415000Y-69419047D01*
X24415000Y-69419047D02*
X24462619Y-69371428D01*
X24462619Y-69371428D02*
X24415000Y-69323809D01*
X24415000Y-69323809D02*
X24367380Y-69371428D01*
X24367380Y-69371428D02*
X24462619Y-69371428D01*
X24700714Y-68466667D02*
X25510238Y-68466667D01*
X25510238Y-68466667D02*
X25605476Y-68514286D01*
X25605476Y-68514286D02*
X25653095Y-68561905D01*
X25653095Y-68561905D02*
X25700714Y-68657143D01*
X25700714Y-68657143D02*
X25700714Y-68800000D01*
X25700714Y-68800000D02*
X25653095Y-68895238D01*
X25319761Y-68466667D02*
X25367380Y-68561905D01*
X25367380Y-68561905D02*
X25367380Y-68752381D01*
X25367380Y-68752381D02*
X25319761Y-68847619D01*
X25319761Y-68847619D02*
X25272142Y-68895238D01*
X25272142Y-68895238D02*
X25176904Y-68942857D01*
X25176904Y-68942857D02*
X24891190Y-68942857D01*
X24891190Y-68942857D02*
X24795952Y-68895238D01*
X24795952Y-68895238D02*
X24748333Y-68847619D01*
X24748333Y-68847619D02*
X24700714Y-68752381D01*
X24700714Y-68752381D02*
X24700714Y-68561905D01*
X24700714Y-68561905D02*
X24748333Y-68466667D01*
X24700714Y-67990476D02*
X25367380Y-67990476D01*
X24795952Y-67990476D02*
X24748333Y-67942857D01*
X24748333Y-67942857D02*
X24700714Y-67847619D01*
X24700714Y-67847619D02*
X24700714Y-67704762D01*
X24700714Y-67704762D02*
X24748333Y-67609524D01*
X24748333Y-67609524D02*
X24843571Y-67561905D01*
X24843571Y-67561905D02*
X25367380Y-67561905D01*
X25367380Y-66657143D02*
X24843571Y-66657143D01*
X24843571Y-66657143D02*
X24748333Y-66704762D01*
X24748333Y-66704762D02*
X24700714Y-66800000D01*
X24700714Y-66800000D02*
X24700714Y-66990476D01*
X24700714Y-66990476D02*
X24748333Y-67085714D01*
X25319761Y-66657143D02*
X25367380Y-66752381D01*
X25367380Y-66752381D02*
X25367380Y-66990476D01*
X25367380Y-66990476D02*
X25319761Y-67085714D01*
X25319761Y-67085714D02*
X25224523Y-67133333D01*
X25224523Y-67133333D02*
X25129285Y-67133333D01*
X25129285Y-67133333D02*
X25034047Y-67085714D01*
X25034047Y-67085714D02*
X24986428Y-66990476D01*
X24986428Y-66990476D02*
X24986428Y-66752381D01*
X24986428Y-66752381D02*
X24938809Y-66657143D01*
X25367380Y-65752381D02*
X24843571Y-65752381D01*
X24843571Y-65752381D02*
X24748333Y-65800000D01*
X24748333Y-65800000D02*
X24700714Y-65895238D01*
X24700714Y-65895238D02*
X24700714Y-66085714D01*
X24700714Y-66085714D02*
X24748333Y-66180952D01*
X25319761Y-65752381D02*
X25367380Y-65847619D01*
X25367380Y-65847619D02*
X25367380Y-66085714D01*
X25367380Y-66085714D02*
X25319761Y-66180952D01*
X25319761Y-66180952D02*
X25224523Y-66228571D01*
X25224523Y-66228571D02*
X25129285Y-66228571D01*
X25129285Y-66228571D02*
X25034047Y-66180952D01*
X25034047Y-66180952D02*
X24986428Y-66085714D01*
X24986428Y-66085714D02*
X24986428Y-65847619D01*
X24986428Y-65847619D02*
X24938809Y-65752381D01*
X25367380Y-65133333D02*
X25319761Y-65228571D01*
X25319761Y-65228571D02*
X25224523Y-65276190D01*
X25224523Y-65276190D02*
X24367380Y-65276190D01*
X24462619Y-64199999D02*
X24415000Y-64152380D01*
X24415000Y-64152380D02*
X24367380Y-64057142D01*
X24367380Y-64057142D02*
X24367380Y-63819047D01*
X24367380Y-63819047D02*
X24415000Y-63723809D01*
X24415000Y-63723809D02*
X24462619Y-63676190D01*
X24462619Y-63676190D02*
X24557857Y-63628571D01*
X24557857Y-63628571D02*
X24653095Y-63628571D01*
X24653095Y-63628571D02*
X24795952Y-63676190D01*
X24795952Y-63676190D02*
X25367380Y-64247618D01*
X25367380Y-64247618D02*
X25367380Y-63628571D01*
%TO.C,R4*%
X46583333Y-80867380D02*
X46250000Y-80391190D01*
X46011905Y-80867380D02*
X46011905Y-79867380D01*
X46011905Y-79867380D02*
X46392857Y-79867380D01*
X46392857Y-79867380D02*
X46488095Y-79915000D01*
X46488095Y-79915000D02*
X46535714Y-79962619D01*
X46535714Y-79962619D02*
X46583333Y-80057857D01*
X46583333Y-80057857D02*
X46583333Y-80200714D01*
X46583333Y-80200714D02*
X46535714Y-80295952D01*
X46535714Y-80295952D02*
X46488095Y-80343571D01*
X46488095Y-80343571D02*
X46392857Y-80391190D01*
X46392857Y-80391190D02*
X46011905Y-80391190D01*
X47440476Y-80200714D02*
X47440476Y-80867380D01*
X47202381Y-79819761D02*
X46964286Y-80534047D01*
X46964286Y-80534047D02*
X47583333Y-80534047D01*
%TO.C,R1*%
X47083333Y-50867380D02*
X46750000Y-50391190D01*
X46511905Y-50867380D02*
X46511905Y-49867380D01*
X46511905Y-49867380D02*
X46892857Y-49867380D01*
X46892857Y-49867380D02*
X46988095Y-49915000D01*
X46988095Y-49915000D02*
X47035714Y-49962619D01*
X47035714Y-49962619D02*
X47083333Y-50057857D01*
X47083333Y-50057857D02*
X47083333Y-50200714D01*
X47083333Y-50200714D02*
X47035714Y-50295952D01*
X47035714Y-50295952D02*
X46988095Y-50343571D01*
X46988095Y-50343571D02*
X46892857Y-50391190D01*
X46892857Y-50391190D02*
X46511905Y-50391190D01*
X48035714Y-50867380D02*
X47464286Y-50867380D01*
X47750000Y-50867380D02*
X47750000Y-49867380D01*
X47750000Y-49867380D02*
X47654762Y-50010238D01*
X47654762Y-50010238D02*
X47559524Y-50105476D01*
X47559524Y-50105476D02*
X47464286Y-50153095D01*
%TO.C,U4*%
X42488095Y-61367380D02*
X42488095Y-62176904D01*
X42488095Y-62176904D02*
X42535714Y-62272142D01*
X42535714Y-62272142D02*
X42583333Y-62319761D01*
X42583333Y-62319761D02*
X42678571Y-62367380D01*
X42678571Y-62367380D02*
X42869047Y-62367380D01*
X42869047Y-62367380D02*
X42964285Y-62319761D01*
X42964285Y-62319761D02*
X43011904Y-62272142D01*
X43011904Y-62272142D02*
X43059523Y-62176904D01*
X43059523Y-62176904D02*
X43059523Y-61367380D01*
X43964285Y-61700714D02*
X43964285Y-62367380D01*
X43726190Y-61319761D02*
X43488095Y-62034047D01*
X43488095Y-62034047D02*
X44107142Y-62034047D01*
%TO.C,C2*%
X36272142Y-39416666D02*
X36319761Y-39464285D01*
X36319761Y-39464285D02*
X36367380Y-39607142D01*
X36367380Y-39607142D02*
X36367380Y-39702380D01*
X36367380Y-39702380D02*
X36319761Y-39845237D01*
X36319761Y-39845237D02*
X36224523Y-39940475D01*
X36224523Y-39940475D02*
X36129285Y-39988094D01*
X36129285Y-39988094D02*
X35938809Y-40035713D01*
X35938809Y-40035713D02*
X35795952Y-40035713D01*
X35795952Y-40035713D02*
X35605476Y-39988094D01*
X35605476Y-39988094D02*
X35510238Y-39940475D01*
X35510238Y-39940475D02*
X35415000Y-39845237D01*
X35415000Y-39845237D02*
X35367380Y-39702380D01*
X35367380Y-39702380D02*
X35367380Y-39607142D01*
X35367380Y-39607142D02*
X35415000Y-39464285D01*
X35415000Y-39464285D02*
X35462619Y-39416666D01*
X35462619Y-39035713D02*
X35415000Y-38988094D01*
X35415000Y-38988094D02*
X35367380Y-38892856D01*
X35367380Y-38892856D02*
X35367380Y-38654761D01*
X35367380Y-38654761D02*
X35415000Y-38559523D01*
X35415000Y-38559523D02*
X35462619Y-38511904D01*
X35462619Y-38511904D02*
X35557857Y-38464285D01*
X35557857Y-38464285D02*
X35653095Y-38464285D01*
X35653095Y-38464285D02*
X35795952Y-38511904D01*
X35795952Y-38511904D02*
X36367380Y-39083332D01*
X36367380Y-39083332D02*
X36367380Y-38464285D01*
%TO.C,J2*%
X25319761Y-58371428D02*
X25367380Y-58228571D01*
X25367380Y-58228571D02*
X25367380Y-57990476D01*
X25367380Y-57990476D02*
X25319761Y-57895238D01*
X25319761Y-57895238D02*
X25272142Y-57847619D01*
X25272142Y-57847619D02*
X25176904Y-57800000D01*
X25176904Y-57800000D02*
X25081666Y-57800000D01*
X25081666Y-57800000D02*
X24986428Y-57847619D01*
X24986428Y-57847619D02*
X24938809Y-57895238D01*
X24938809Y-57895238D02*
X24891190Y-57990476D01*
X24891190Y-57990476D02*
X24843571Y-58180952D01*
X24843571Y-58180952D02*
X24795952Y-58276190D01*
X24795952Y-58276190D02*
X24748333Y-58323809D01*
X24748333Y-58323809D02*
X24653095Y-58371428D01*
X24653095Y-58371428D02*
X24557857Y-58371428D01*
X24557857Y-58371428D02*
X24462619Y-58323809D01*
X24462619Y-58323809D02*
X24415000Y-58276190D01*
X24415000Y-58276190D02*
X24367380Y-58180952D01*
X24367380Y-58180952D02*
X24367380Y-57942857D01*
X24367380Y-57942857D02*
X24415000Y-57800000D01*
X25367380Y-57371428D02*
X24700714Y-57371428D01*
X24367380Y-57371428D02*
X24415000Y-57419047D01*
X24415000Y-57419047D02*
X24462619Y-57371428D01*
X24462619Y-57371428D02*
X24415000Y-57323809D01*
X24415000Y-57323809D02*
X24367380Y-57371428D01*
X24367380Y-57371428D02*
X24462619Y-57371428D01*
X24700714Y-56466667D02*
X25510238Y-56466667D01*
X25510238Y-56466667D02*
X25605476Y-56514286D01*
X25605476Y-56514286D02*
X25653095Y-56561905D01*
X25653095Y-56561905D02*
X25700714Y-56657143D01*
X25700714Y-56657143D02*
X25700714Y-56800000D01*
X25700714Y-56800000D02*
X25653095Y-56895238D01*
X25319761Y-56466667D02*
X25367380Y-56561905D01*
X25367380Y-56561905D02*
X25367380Y-56752381D01*
X25367380Y-56752381D02*
X25319761Y-56847619D01*
X25319761Y-56847619D02*
X25272142Y-56895238D01*
X25272142Y-56895238D02*
X25176904Y-56942857D01*
X25176904Y-56942857D02*
X24891190Y-56942857D01*
X24891190Y-56942857D02*
X24795952Y-56895238D01*
X24795952Y-56895238D02*
X24748333Y-56847619D01*
X24748333Y-56847619D02*
X24700714Y-56752381D01*
X24700714Y-56752381D02*
X24700714Y-56561905D01*
X24700714Y-56561905D02*
X24748333Y-56466667D01*
X24700714Y-55990476D02*
X25367380Y-55990476D01*
X24795952Y-55990476D02*
X24748333Y-55942857D01*
X24748333Y-55942857D02*
X24700714Y-55847619D01*
X24700714Y-55847619D02*
X24700714Y-55704762D01*
X24700714Y-55704762D02*
X24748333Y-55609524D01*
X24748333Y-55609524D02*
X24843571Y-55561905D01*
X24843571Y-55561905D02*
X25367380Y-55561905D01*
X25367380Y-54657143D02*
X24843571Y-54657143D01*
X24843571Y-54657143D02*
X24748333Y-54704762D01*
X24748333Y-54704762D02*
X24700714Y-54800000D01*
X24700714Y-54800000D02*
X24700714Y-54990476D01*
X24700714Y-54990476D02*
X24748333Y-55085714D01*
X25319761Y-54657143D02*
X25367380Y-54752381D01*
X25367380Y-54752381D02*
X25367380Y-54990476D01*
X25367380Y-54990476D02*
X25319761Y-55085714D01*
X25319761Y-55085714D02*
X25224523Y-55133333D01*
X25224523Y-55133333D02*
X25129285Y-55133333D01*
X25129285Y-55133333D02*
X25034047Y-55085714D01*
X25034047Y-55085714D02*
X24986428Y-54990476D01*
X24986428Y-54990476D02*
X24986428Y-54752381D01*
X24986428Y-54752381D02*
X24938809Y-54657143D01*
X25367380Y-53752381D02*
X24843571Y-53752381D01*
X24843571Y-53752381D02*
X24748333Y-53800000D01*
X24748333Y-53800000D02*
X24700714Y-53895238D01*
X24700714Y-53895238D02*
X24700714Y-54085714D01*
X24700714Y-54085714D02*
X24748333Y-54180952D01*
X25319761Y-53752381D02*
X25367380Y-53847619D01*
X25367380Y-53847619D02*
X25367380Y-54085714D01*
X25367380Y-54085714D02*
X25319761Y-54180952D01*
X25319761Y-54180952D02*
X25224523Y-54228571D01*
X25224523Y-54228571D02*
X25129285Y-54228571D01*
X25129285Y-54228571D02*
X25034047Y-54180952D01*
X25034047Y-54180952D02*
X24986428Y-54085714D01*
X24986428Y-54085714D02*
X24986428Y-53847619D01*
X24986428Y-53847619D02*
X24938809Y-53752381D01*
X25367380Y-53133333D02*
X25319761Y-53228571D01*
X25319761Y-53228571D02*
X25224523Y-53276190D01*
X25224523Y-53276190D02*
X24367380Y-53276190D01*
X25367380Y-51628571D02*
X25367380Y-52199999D01*
X25367380Y-51914285D02*
X24367380Y-51914285D01*
X24367380Y-51914285D02*
X24510238Y-52009523D01*
X24510238Y-52009523D02*
X24605476Y-52104761D01*
X24605476Y-52104761D02*
X24653095Y-52199999D01*
%TO.C,U2*%
X70238095Y-45897380D02*
X70238095Y-46706904D01*
X70238095Y-46706904D02*
X70285714Y-46802142D01*
X70285714Y-46802142D02*
X70333333Y-46849761D01*
X70333333Y-46849761D02*
X70428571Y-46897380D01*
X70428571Y-46897380D02*
X70619047Y-46897380D01*
X70619047Y-46897380D02*
X70714285Y-46849761D01*
X70714285Y-46849761D02*
X70761904Y-46802142D01*
X70761904Y-46802142D02*
X70809523Y-46706904D01*
X70809523Y-46706904D02*
X70809523Y-45897380D01*
X71238095Y-45992619D02*
X71285714Y-45945000D01*
X71285714Y-45945000D02*
X71380952Y-45897380D01*
X71380952Y-45897380D02*
X71619047Y-45897380D01*
X71619047Y-45897380D02*
X71714285Y-45945000D01*
X71714285Y-45945000D02*
X71761904Y-45992619D01*
X71761904Y-45992619D02*
X71809523Y-46087857D01*
X71809523Y-46087857D02*
X71809523Y-46183095D01*
X71809523Y-46183095D02*
X71761904Y-46325952D01*
X71761904Y-46325952D02*
X71190476Y-46897380D01*
X71190476Y-46897380D02*
X71809523Y-46897380D01*
X77500952Y-75583571D02*
X77643809Y-75631190D01*
X77643809Y-75631190D02*
X77691428Y-75678809D01*
X77691428Y-75678809D02*
X77739047Y-75774047D01*
X77739047Y-75774047D02*
X77739047Y-75916904D01*
X77739047Y-75916904D02*
X77691428Y-76012142D01*
X77691428Y-76012142D02*
X77643809Y-76059761D01*
X77643809Y-76059761D02*
X77548571Y-76107380D01*
X77548571Y-76107380D02*
X77167619Y-76107380D01*
X77167619Y-76107380D02*
X77167619Y-75107380D01*
X77167619Y-75107380D02*
X77500952Y-75107380D01*
X77500952Y-75107380D02*
X77596190Y-75155000D01*
X77596190Y-75155000D02*
X77643809Y-75202619D01*
X77643809Y-75202619D02*
X77691428Y-75297857D01*
X77691428Y-75297857D02*
X77691428Y-75393095D01*
X77691428Y-75393095D02*
X77643809Y-75488333D01*
X77643809Y-75488333D02*
X77596190Y-75535952D01*
X77596190Y-75535952D02*
X77500952Y-75583571D01*
X77500952Y-75583571D02*
X77167619Y-75583571D01*
X78310476Y-76107380D02*
X78215238Y-76059761D01*
X78215238Y-76059761D02*
X78167619Y-76012142D01*
X78167619Y-76012142D02*
X78120000Y-75916904D01*
X78120000Y-75916904D02*
X78120000Y-75631190D01*
X78120000Y-75631190D02*
X78167619Y-75535952D01*
X78167619Y-75535952D02*
X78215238Y-75488333D01*
X78215238Y-75488333D02*
X78310476Y-75440714D01*
X78310476Y-75440714D02*
X78453333Y-75440714D01*
X78453333Y-75440714D02*
X78548571Y-75488333D01*
X78548571Y-75488333D02*
X78596190Y-75535952D01*
X78596190Y-75535952D02*
X78643809Y-75631190D01*
X78643809Y-75631190D02*
X78643809Y-75916904D01*
X78643809Y-75916904D02*
X78596190Y-76012142D01*
X78596190Y-76012142D02*
X78548571Y-76059761D01*
X78548571Y-76059761D02*
X78453333Y-76107380D01*
X78453333Y-76107380D02*
X78310476Y-76107380D01*
X79215238Y-76107380D02*
X79120000Y-76059761D01*
X79120000Y-76059761D02*
X79072381Y-76012142D01*
X79072381Y-76012142D02*
X79024762Y-75916904D01*
X79024762Y-75916904D02*
X79024762Y-75631190D01*
X79024762Y-75631190D02*
X79072381Y-75535952D01*
X79072381Y-75535952D02*
X79120000Y-75488333D01*
X79120000Y-75488333D02*
X79215238Y-75440714D01*
X79215238Y-75440714D02*
X79358095Y-75440714D01*
X79358095Y-75440714D02*
X79453333Y-75488333D01*
X79453333Y-75488333D02*
X79500952Y-75535952D01*
X79500952Y-75535952D02*
X79548571Y-75631190D01*
X79548571Y-75631190D02*
X79548571Y-75916904D01*
X79548571Y-75916904D02*
X79500952Y-76012142D01*
X79500952Y-76012142D02*
X79453333Y-76059761D01*
X79453333Y-76059761D02*
X79358095Y-76107380D01*
X79358095Y-76107380D02*
X79215238Y-76107380D01*
X79834286Y-75440714D02*
X80215238Y-75440714D01*
X79977143Y-75107380D02*
X79977143Y-75964523D01*
X79977143Y-75964523D02*
X80024762Y-76059761D01*
X80024762Y-76059761D02*
X80120000Y-76107380D01*
X80120000Y-76107380D02*
X80215238Y-76107380D01*
X61118095Y-75583571D02*
X61451428Y-75583571D01*
X61594285Y-76107380D02*
X61118095Y-76107380D01*
X61118095Y-76107380D02*
X61118095Y-75107380D01*
X61118095Y-75107380D02*
X61594285Y-75107380D01*
X62022857Y-75440714D02*
X62022857Y-76107380D01*
X62022857Y-75535952D02*
X62070476Y-75488333D01*
X62070476Y-75488333D02*
X62165714Y-75440714D01*
X62165714Y-75440714D02*
X62308571Y-75440714D01*
X62308571Y-75440714D02*
X62403809Y-75488333D01*
X62403809Y-75488333D02*
X62451428Y-75583571D01*
X62451428Y-75583571D02*
X62451428Y-76107380D01*
X63356190Y-76107380D02*
X63356190Y-75583571D01*
X63356190Y-75583571D02*
X63308571Y-75488333D01*
X63308571Y-75488333D02*
X63213333Y-75440714D01*
X63213333Y-75440714D02*
X63022857Y-75440714D01*
X63022857Y-75440714D02*
X62927619Y-75488333D01*
X63356190Y-76059761D02*
X63260952Y-76107380D01*
X63260952Y-76107380D02*
X63022857Y-76107380D01*
X63022857Y-76107380D02*
X62927619Y-76059761D01*
X62927619Y-76059761D02*
X62880000Y-75964523D01*
X62880000Y-75964523D02*
X62880000Y-75869285D01*
X62880000Y-75869285D02*
X62927619Y-75774047D01*
X62927619Y-75774047D02*
X63022857Y-75726428D01*
X63022857Y-75726428D02*
X63260952Y-75726428D01*
X63260952Y-75726428D02*
X63356190Y-75678809D01*
X63832381Y-76107380D02*
X63832381Y-75107380D01*
X63832381Y-75488333D02*
X63927619Y-75440714D01*
X63927619Y-75440714D02*
X64118095Y-75440714D01*
X64118095Y-75440714D02*
X64213333Y-75488333D01*
X64213333Y-75488333D02*
X64260952Y-75535952D01*
X64260952Y-75535952D02*
X64308571Y-75631190D01*
X64308571Y-75631190D02*
X64308571Y-75916904D01*
X64308571Y-75916904D02*
X64260952Y-76012142D01*
X64260952Y-76012142D02*
X64213333Y-76059761D01*
X64213333Y-76059761D02*
X64118095Y-76107380D01*
X64118095Y-76107380D02*
X63927619Y-76107380D01*
X63927619Y-76107380D02*
X63832381Y-76059761D01*
X64880000Y-76107380D02*
X64784762Y-76059761D01*
X64784762Y-76059761D02*
X64737143Y-75964523D01*
X64737143Y-75964523D02*
X64737143Y-75107380D01*
X65641905Y-76059761D02*
X65546667Y-76107380D01*
X65546667Y-76107380D02*
X65356191Y-76107380D01*
X65356191Y-76107380D02*
X65260953Y-76059761D01*
X65260953Y-76059761D02*
X65213334Y-75964523D01*
X65213334Y-75964523D02*
X65213334Y-75583571D01*
X65213334Y-75583571D02*
X65260953Y-75488333D01*
X65260953Y-75488333D02*
X65356191Y-75440714D01*
X65356191Y-75440714D02*
X65546667Y-75440714D01*
X65546667Y-75440714D02*
X65641905Y-75488333D01*
X65641905Y-75488333D02*
X65689524Y-75583571D01*
X65689524Y-75583571D02*
X65689524Y-75678809D01*
X65689524Y-75678809D02*
X65213334Y-75774047D01*
X69738095Y-78917380D02*
X69738095Y-79726904D01*
X69738095Y-79726904D02*
X69785714Y-79822142D01*
X69785714Y-79822142D02*
X69833333Y-79869761D01*
X69833333Y-79869761D02*
X69928571Y-79917380D01*
X69928571Y-79917380D02*
X70119047Y-79917380D01*
X70119047Y-79917380D02*
X70214285Y-79869761D01*
X70214285Y-79869761D02*
X70261904Y-79822142D01*
X70261904Y-79822142D02*
X70309523Y-79726904D01*
X70309523Y-79726904D02*
X70309523Y-78917380D01*
X70738095Y-79869761D02*
X70880952Y-79917380D01*
X70880952Y-79917380D02*
X71119047Y-79917380D01*
X71119047Y-79917380D02*
X71214285Y-79869761D01*
X71214285Y-79869761D02*
X71261904Y-79822142D01*
X71261904Y-79822142D02*
X71309523Y-79726904D01*
X71309523Y-79726904D02*
X71309523Y-79631666D01*
X71309523Y-79631666D02*
X71261904Y-79536428D01*
X71261904Y-79536428D02*
X71214285Y-79488809D01*
X71214285Y-79488809D02*
X71119047Y-79441190D01*
X71119047Y-79441190D02*
X70928571Y-79393571D01*
X70928571Y-79393571D02*
X70833333Y-79345952D01*
X70833333Y-79345952D02*
X70785714Y-79298333D01*
X70785714Y-79298333D02*
X70738095Y-79203095D01*
X70738095Y-79203095D02*
X70738095Y-79107857D01*
X70738095Y-79107857D02*
X70785714Y-79012619D01*
X70785714Y-79012619D02*
X70833333Y-78965000D01*
X70833333Y-78965000D02*
X70928571Y-78917380D01*
X70928571Y-78917380D02*
X71166666Y-78917380D01*
X71166666Y-78917380D02*
X71309523Y-78965000D01*
X72071428Y-79393571D02*
X72214285Y-79441190D01*
X72214285Y-79441190D02*
X72261904Y-79488809D01*
X72261904Y-79488809D02*
X72309523Y-79584047D01*
X72309523Y-79584047D02*
X72309523Y-79726904D01*
X72309523Y-79726904D02*
X72261904Y-79822142D01*
X72261904Y-79822142D02*
X72214285Y-79869761D01*
X72214285Y-79869761D02*
X72119047Y-79917380D01*
X72119047Y-79917380D02*
X71738095Y-79917380D01*
X71738095Y-79917380D02*
X71738095Y-78917380D01*
X71738095Y-78917380D02*
X72071428Y-78917380D01*
X72071428Y-78917380D02*
X72166666Y-78965000D01*
X72166666Y-78965000D02*
X72214285Y-79012619D01*
X72214285Y-79012619D02*
X72261904Y-79107857D01*
X72261904Y-79107857D02*
X72261904Y-79203095D01*
X72261904Y-79203095D02*
X72214285Y-79298333D01*
X72214285Y-79298333D02*
X72166666Y-79345952D01*
X72166666Y-79345952D02*
X72071428Y-79393571D01*
X72071428Y-79393571D02*
X71738095Y-79393571D01*
%TO.C,R2*%
X46833333Y-56867380D02*
X46500000Y-56391190D01*
X46261905Y-56867380D02*
X46261905Y-55867380D01*
X46261905Y-55867380D02*
X46642857Y-55867380D01*
X46642857Y-55867380D02*
X46738095Y-55915000D01*
X46738095Y-55915000D02*
X46785714Y-55962619D01*
X46785714Y-55962619D02*
X46833333Y-56057857D01*
X46833333Y-56057857D02*
X46833333Y-56200714D01*
X46833333Y-56200714D02*
X46785714Y-56295952D01*
X46785714Y-56295952D02*
X46738095Y-56343571D01*
X46738095Y-56343571D02*
X46642857Y-56391190D01*
X46642857Y-56391190D02*
X46261905Y-56391190D01*
X47214286Y-55962619D02*
X47261905Y-55915000D01*
X47261905Y-55915000D02*
X47357143Y-55867380D01*
X47357143Y-55867380D02*
X47595238Y-55867380D01*
X47595238Y-55867380D02*
X47690476Y-55915000D01*
X47690476Y-55915000D02*
X47738095Y-55962619D01*
X47738095Y-55962619D02*
X47785714Y-56057857D01*
X47785714Y-56057857D02*
X47785714Y-56153095D01*
X47785714Y-56153095D02*
X47738095Y-56295952D01*
X47738095Y-56295952D02*
X47166667Y-56867380D01*
X47166667Y-56867380D02*
X47785714Y-56867380D01*
%TO.C,C3*%
X54772142Y-39416666D02*
X54819761Y-39464285D01*
X54819761Y-39464285D02*
X54867380Y-39607142D01*
X54867380Y-39607142D02*
X54867380Y-39702380D01*
X54867380Y-39702380D02*
X54819761Y-39845237D01*
X54819761Y-39845237D02*
X54724523Y-39940475D01*
X54724523Y-39940475D02*
X54629285Y-39988094D01*
X54629285Y-39988094D02*
X54438809Y-40035713D01*
X54438809Y-40035713D02*
X54295952Y-40035713D01*
X54295952Y-40035713D02*
X54105476Y-39988094D01*
X54105476Y-39988094D02*
X54010238Y-39940475D01*
X54010238Y-39940475D02*
X53915000Y-39845237D01*
X53915000Y-39845237D02*
X53867380Y-39702380D01*
X53867380Y-39702380D02*
X53867380Y-39607142D01*
X53867380Y-39607142D02*
X53915000Y-39464285D01*
X53915000Y-39464285D02*
X53962619Y-39416666D01*
X53867380Y-39083332D02*
X53867380Y-38464285D01*
X53867380Y-38464285D02*
X54248333Y-38797618D01*
X54248333Y-38797618D02*
X54248333Y-38654761D01*
X54248333Y-38654761D02*
X54295952Y-38559523D01*
X54295952Y-38559523D02*
X54343571Y-38511904D01*
X54343571Y-38511904D02*
X54438809Y-38464285D01*
X54438809Y-38464285D02*
X54676904Y-38464285D01*
X54676904Y-38464285D02*
X54772142Y-38511904D01*
X54772142Y-38511904D02*
X54819761Y-38559523D01*
X54819761Y-38559523D02*
X54867380Y-38654761D01*
X54867380Y-38654761D02*
X54867380Y-38940475D01*
X54867380Y-38940475D02*
X54819761Y-39035713D01*
X54819761Y-39035713D02*
X54772142Y-39083332D01*
%TO.C,U3*%
X40738095Y-21117380D02*
X40738095Y-21926904D01*
X40738095Y-21926904D02*
X40785714Y-22022142D01*
X40785714Y-22022142D02*
X40833333Y-22069761D01*
X40833333Y-22069761D02*
X40928571Y-22117380D01*
X40928571Y-22117380D02*
X41119047Y-22117380D01*
X41119047Y-22117380D02*
X41214285Y-22069761D01*
X41214285Y-22069761D02*
X41261904Y-22022142D01*
X41261904Y-22022142D02*
X41309523Y-21926904D01*
X41309523Y-21926904D02*
X41309523Y-21117380D01*
X41690476Y-21117380D02*
X42309523Y-21117380D01*
X42309523Y-21117380D02*
X41976190Y-21498333D01*
X41976190Y-21498333D02*
X42119047Y-21498333D01*
X42119047Y-21498333D02*
X42214285Y-21545952D01*
X42214285Y-21545952D02*
X42261904Y-21593571D01*
X42261904Y-21593571D02*
X42309523Y-21688809D01*
X42309523Y-21688809D02*
X42309523Y-21926904D01*
X42309523Y-21926904D02*
X42261904Y-22022142D01*
X42261904Y-22022142D02*
X42214285Y-22069761D01*
X42214285Y-22069761D02*
X42119047Y-22117380D01*
X42119047Y-22117380D02*
X41833333Y-22117380D01*
X41833333Y-22117380D02*
X41738095Y-22069761D01*
X41738095Y-22069761D02*
X41690476Y-22022142D01*
%TO.C,R5*%
X46583333Y-86867380D02*
X46250000Y-86391190D01*
X46011905Y-86867380D02*
X46011905Y-85867380D01*
X46011905Y-85867380D02*
X46392857Y-85867380D01*
X46392857Y-85867380D02*
X46488095Y-85915000D01*
X46488095Y-85915000D02*
X46535714Y-85962619D01*
X46535714Y-85962619D02*
X46583333Y-86057857D01*
X46583333Y-86057857D02*
X46583333Y-86200714D01*
X46583333Y-86200714D02*
X46535714Y-86295952D01*
X46535714Y-86295952D02*
X46488095Y-86343571D01*
X46488095Y-86343571D02*
X46392857Y-86391190D01*
X46392857Y-86391190D02*
X46011905Y-86391190D01*
X47488095Y-85867380D02*
X47011905Y-85867380D01*
X47011905Y-85867380D02*
X46964286Y-86343571D01*
X46964286Y-86343571D02*
X47011905Y-86295952D01*
X47011905Y-86295952D02*
X47107143Y-86248333D01*
X47107143Y-86248333D02*
X47345238Y-86248333D01*
X47345238Y-86248333D02*
X47440476Y-86295952D01*
X47440476Y-86295952D02*
X47488095Y-86343571D01*
X47488095Y-86343571D02*
X47535714Y-86438809D01*
X47535714Y-86438809D02*
X47535714Y-86676904D01*
X47535714Y-86676904D02*
X47488095Y-86772142D01*
X47488095Y-86772142D02*
X47440476Y-86819761D01*
X47440476Y-86819761D02*
X47345238Y-86867380D01*
X47345238Y-86867380D02*
X47107143Y-86867380D01*
X47107143Y-86867380D02*
X47011905Y-86819761D01*
X47011905Y-86819761D02*
X46964286Y-86772142D01*
D11*
%TO.C,C1*%
X50970000Y-60370000D02*
X50970000Y-60055000D01*
X50970000Y-60370000D02*
X46030000Y-60370000D01*
X50970000Y-57945000D02*
X50970000Y-57630000D01*
X50970000Y-57630000D02*
X46030000Y-57630000D01*
X46030000Y-60370000D02*
X46030000Y-60055000D01*
X46030000Y-57945000D02*
X46030000Y-57630000D01*
%TO.C,R6*%
X54000000Y-70040000D02*
X54000000Y-69270000D01*
X54000000Y-61960000D02*
X54000000Y-62730000D01*
X55370000Y-62730000D02*
X52630000Y-62730000D01*
X52630000Y-69270000D02*
X55370000Y-69270000D01*
X52630000Y-62730000D02*
X52630000Y-69270000D01*
X55370000Y-69270000D02*
X55370000Y-62730000D01*
%TO.C,J1*%
X32680000Y-40000000D02*
G75*
G03*
X32680000Y-40000000I-1680000J0D01*
G01*
X28900000Y-40000000D02*
G75*
G03*
X28900000Y-40000000I-900000J0D01*
G01*
X28900000Y-45000000D02*
G75*
G03*
X28900000Y-45000000I-900000J0D01*
G01*
X31789000Y-43516000D02*
G75*
G03*
X30210911Y-43516048I-789000J-1484000D01*
G01*
X32679999Y-45000000D02*
G75*
G03*
X32483351Y-44211288I-1679999J0D01*
G01*
X32483999Y-45789000D02*
G75*
G03*
X32680449Y-44970617I-1483994J788998D01*
G01*
X29516000Y-44211000D02*
G75*
G03*
X29516047Y-45789089I1483995J-789000D01*
G01*
X30211000Y-46484000D02*
G75*
G03*
X31789089Y-46483953I789000J1483995D01*
G01*
X25940000Y-37440000D02*
X35060000Y-37440000D01*
X29931000Y-38725000D02*
X30024000Y-38819000D01*
X29725000Y-38930000D02*
X29784000Y-38989000D01*
X32216000Y-41010000D02*
X32274000Y-41069000D01*
X31976000Y-41180000D02*
X32069000Y-41274000D01*
X35060000Y-47560000D02*
X35060000Y-37440000D01*
X33500000Y-47560000D02*
X33500000Y-37440000D01*
X25940000Y-47560000D02*
X25940000Y-37440000D01*
X25940000Y-47560000D02*
X35060000Y-47560000D01*
X35300000Y-47800000D02*
X35300000Y-46300000D01*
X33560000Y-47800000D02*
X35300000Y-47800000D01*
%TO.C,R3*%
X54000000Y-56960000D02*
X54000000Y-56190000D01*
X52630000Y-56190000D02*
X55370000Y-56190000D01*
X55370000Y-56190000D02*
X55370000Y-49650000D01*
X52630000Y-49650000D02*
X52630000Y-56190000D01*
X55370000Y-49650000D02*
X52630000Y-49650000D01*
X54000000Y-48880000D02*
X54000000Y-49650000D01*
%TO.C,J3*%
X33560000Y-72300000D02*
X35300000Y-72300000D01*
X35300000Y-72300000D02*
X35300000Y-70800000D01*
X25940000Y-72060000D02*
X35060000Y-72060000D01*
X25940000Y-72060000D02*
X25940000Y-61940000D01*
X33500000Y-72060000D02*
X33500000Y-61940000D01*
X35060000Y-72060000D02*
X35060000Y-61940000D01*
X31976000Y-65680000D02*
X32069000Y-65774000D01*
X32216000Y-65510000D02*
X32274000Y-65569000D01*
X29725000Y-63430000D02*
X29784000Y-63489000D01*
X29931000Y-63225000D02*
X30024000Y-63319000D01*
X25940000Y-61940000D02*
X35060000Y-61940000D01*
X30211000Y-70984000D02*
G75*
G03*
X31789089Y-70983953I789000J1483995D01*
G01*
X29516000Y-68711000D02*
G75*
G03*
X29516047Y-70289089I1483995J-789000D01*
G01*
X32483999Y-70289000D02*
G75*
G03*
X32680449Y-69470617I-1483994J788998D01*
G01*
X32679999Y-69500000D02*
G75*
G03*
X32483351Y-68711288I-1679999J0D01*
G01*
X31789000Y-68016000D02*
G75*
G03*
X30210911Y-68016048I-789000J-1484000D01*
G01*
X28900000Y-69500000D02*
G75*
G03*
X28900000Y-69500000I-900000J0D01*
G01*
X28900000Y-64500000D02*
G75*
G03*
X28900000Y-64500000I-900000J0D01*
G01*
X32680000Y-64500000D02*
G75*
G03*
X32680000Y-64500000I-1680000J0D01*
G01*
%TO.C,R4*%
X48780000Y-78000000D02*
X48010000Y-78000000D01*
X48010000Y-79370000D02*
X48010000Y-76630000D01*
X48010000Y-76630000D02*
X41470000Y-76630000D01*
X41470000Y-79370000D02*
X48010000Y-79370000D01*
X41470000Y-76630000D02*
X41470000Y-79370000D01*
X40700000Y-78000000D02*
X41470000Y-78000000D01*
%TO.C,R1*%
X40960000Y-48000000D02*
X41730000Y-48000000D01*
X41730000Y-46630000D02*
X41730000Y-49370000D01*
X41730000Y-49370000D02*
X48270000Y-49370000D01*
X48270000Y-46630000D02*
X41730000Y-46630000D01*
X48270000Y-49370000D02*
X48270000Y-46630000D01*
X49040000Y-48000000D02*
X48270000Y-48000000D01*
%TO.C,U4*%
X42360000Y-63050000D02*
X42360000Y-73330000D01*
X42360000Y-73330000D02*
X47660000Y-73330000D01*
X44010000Y-63050000D02*
X42360000Y-63050000D01*
X47660000Y-63050000D02*
X46010000Y-63050000D01*
X47660000Y-73330000D02*
X47660000Y-63050000D01*
X44010000Y-63050000D02*
G75*
G03*
X46010000Y-63050000I1000000J0D01*
G01*
%TO.C,C2*%
X36630000Y-44470000D02*
X36945000Y-44470000D01*
X36630000Y-44470000D02*
X36630000Y-39530000D01*
X39055000Y-44470000D02*
X39370000Y-44470000D01*
X39370000Y-44470000D02*
X39370000Y-39530000D01*
X36630000Y-39530000D02*
X36945000Y-39530000D01*
X39055000Y-39530000D02*
X39370000Y-39530000D01*
%TO.C,J2*%
X33560000Y-60300000D02*
X35300000Y-60300000D01*
X35300000Y-60300000D02*
X35300000Y-58800000D01*
X25940000Y-60060000D02*
X35060000Y-60060000D01*
X25940000Y-60060000D02*
X25940000Y-49940000D01*
X33500000Y-60060000D02*
X33500000Y-49940000D01*
X35060000Y-60060000D02*
X35060000Y-49940000D01*
X31976000Y-53680000D02*
X32069000Y-53774000D01*
X32216000Y-53510000D02*
X32274000Y-53569000D01*
X29725000Y-51430000D02*
X29784000Y-51489000D01*
X29931000Y-51225000D02*
X30024000Y-51319000D01*
X25940000Y-49940000D02*
X35060000Y-49940000D01*
X30211000Y-58984000D02*
G75*
G03*
X31789089Y-58983953I789000J1483995D01*
G01*
X29516000Y-56711000D02*
G75*
G03*
X29516047Y-58289089I1483995J-789000D01*
G01*
X32483999Y-58289000D02*
G75*
G03*
X32680449Y-57470617I-1483994J788998D01*
G01*
X32679999Y-57500000D02*
G75*
G03*
X32483351Y-56711288I-1679999J0D01*
G01*
X31789000Y-56016000D02*
G75*
G03*
X30210911Y-56016048I-789000J-1484000D01*
G01*
X28900000Y-57500000D02*
G75*
G03*
X28900000Y-57500000I-900000J0D01*
G01*
X28900000Y-52500000D02*
G75*
G03*
X28900000Y-52500000I-900000J0D01*
G01*
X32680000Y-52500000D02*
G75*
G03*
X32680000Y-52500000I-1680000J0D01*
G01*
%TO.C,U2*%
X57000000Y-32020000D02*
X57000000Y-79520000D01*
X59000000Y-30020000D02*
X83000000Y-30020000D01*
X59000000Y-81520000D02*
X83000000Y-81520000D01*
X62110000Y-31290000D02*
X79890000Y-31290000D01*
X62110000Y-36370000D02*
X62110000Y-31290000D01*
X62110000Y-77010000D02*
X64650000Y-77010000D01*
X62110000Y-80820000D02*
X62110000Y-77010000D01*
X63380000Y-32052000D02*
X65920000Y-32052000D01*
X63380000Y-35608000D02*
X63380000Y-32052000D01*
X63500000Y-37020000D02*
X78500000Y-37020000D01*
X63500000Y-55020000D02*
X63500000Y-37020000D01*
X64650000Y-77010000D02*
X64650000Y-80820000D01*
X64650000Y-80820000D02*
X62110000Y-80820000D01*
X65920000Y-32052000D02*
X65920000Y-34084000D01*
X65920000Y-34084000D02*
X68460000Y-34084000D01*
X67000000Y-75520000D02*
X67000000Y-81520000D01*
X67000000Y-75520000D02*
X75000000Y-75520000D01*
X68460000Y-32052000D02*
X71000000Y-32052000D01*
X68460000Y-34084000D02*
X68460000Y-32052000D01*
X71000000Y-32052000D02*
X71000000Y-34084000D01*
X71000000Y-34084000D02*
X73540000Y-34084000D01*
X73540000Y-32052000D02*
X78620000Y-32052000D01*
X73540000Y-34084000D02*
X73540000Y-32052000D01*
X75000000Y-75520000D02*
X75000000Y-81520000D01*
X76080000Y-32052000D02*
X76080000Y-35608000D01*
X77350000Y-77010000D02*
X79890000Y-77010000D01*
X77350000Y-80820000D02*
X77350000Y-77010000D01*
X78500000Y-37020000D02*
X78500000Y-55020000D01*
X78500000Y-55020000D02*
X63500000Y-55020000D01*
X78620000Y-32052000D02*
X78620000Y-35608000D01*
X79890000Y-31290000D02*
X79890000Y-36370000D01*
X79890000Y-36370000D02*
X62110000Y-36370000D01*
X79890000Y-77010000D02*
X79890000Y-80820000D01*
X79890000Y-80820000D02*
X77350000Y-80820000D01*
X85000000Y-79520000D02*
X85000000Y-32020000D01*
X59000000Y-30020000D02*
G75*
G03*
X57000000Y-32020000I-1J-1999999D01*
G01*
X57000000Y-79520000D02*
G75*
G03*
X59000000Y-81520000I1999999J-1D01*
G01*
X85000000Y-32020000D02*
G75*
G03*
X83000000Y-30020000I-2000000J0D01*
G01*
X83000000Y-81520000D02*
G75*
G03*
X85000000Y-79520000I0J2000000D01*
G01*
X60800000Y-32020000D02*
G75*
G03*
X60800000Y-32020000I-1500000J0D01*
G01*
X60800000Y-79520000D02*
G75*
G03*
X60800000Y-79520000I-1500000J0D01*
G01*
D12*
X63680000Y-78915000D02*
G75*
G03*
X63680000Y-78915000I-300000J0D01*
G01*
D13*
X66320000Y-52880000D02*
G75*
G03*
X66320000Y-52880000I-400000J0D01*
G01*
D12*
X78920000Y-78915000D02*
G75*
G03*
X78920000Y-78915000I-300000J0D01*
G01*
D11*
X84200000Y-32020000D02*
G75*
G03*
X84200000Y-32020000I-1500000J0D01*
G01*
X84200000Y-79520000D02*
G75*
G03*
X84200000Y-79520000I-1500000J0D01*
G01*
%TO.C,R2*%
X48960000Y-54000000D02*
X48190000Y-54000000D01*
X48190000Y-55370000D02*
X48190000Y-52630000D01*
X48190000Y-52630000D02*
X41650000Y-52630000D01*
X41650000Y-55370000D02*
X48190000Y-55370000D01*
X41650000Y-52630000D02*
X41650000Y-55370000D01*
X40880000Y-54000000D02*
X41650000Y-54000000D01*
%TO.C,C3*%
X53055000Y-39530000D02*
X53370000Y-39530000D01*
X50630000Y-39530000D02*
X50945000Y-39530000D01*
X53370000Y-44470000D02*
X53370000Y-39530000D01*
X53055000Y-44470000D02*
X53370000Y-44470000D01*
X50630000Y-44470000D02*
X50630000Y-39530000D01*
X50630000Y-44470000D02*
X50945000Y-44470000D01*
%TO.C,U3*%
X39750000Y-22830000D02*
X39750000Y-38940000D01*
X39750000Y-22830000D02*
X50250000Y-22830000D01*
X39750000Y-38940000D02*
X50250000Y-38940000D01*
X42460000Y-38940000D02*
X42460000Y-40900000D01*
X45000000Y-38940000D02*
X45000000Y-40900000D01*
X47540000Y-38940000D02*
X47540000Y-40900000D01*
X50250000Y-22830000D02*
X50250000Y-38940000D01*
%TO.C,R5*%
X40780000Y-84000000D02*
X41550000Y-84000000D01*
X41550000Y-82630000D02*
X41550000Y-85370000D01*
X41550000Y-85370000D02*
X48090000Y-85370000D01*
X48090000Y-82630000D02*
X41550000Y-82630000D01*
X48090000Y-85370000D02*
X48090000Y-82630000D01*
X48860000Y-84000000D02*
X48090000Y-84000000D01*
%TD*%
M02*
