M48
; DRILL file {KiCad 7.0.0} date vr 24 feb 2023 19:47:00 CET
; FORMAT={-:-/ absolute / inch / decimal}
; #@! TF.CreationDate,2023-02-24T19:47:00+01:00
; #@! TF.GenerationSoftware,Kicad,Pcbnew,7.0.0
; #@! TF.FileFunction,Plated,1,2,PTH
FMAT,2
INCH
; #@! TA.AperFunction,Plated,PTH,ComponentDrill
T1C0.0300
; #@! TA.AperFunction,Plated,PTH,ComponentDrill
T2C0.0315
; #@! TA.AperFunction,Plated,PTH,ComponentDrill
T3C0.0472
; #@! TA.AperFunction,Plated,PTH,ComponentDrill
T4C0.0512
%
G90
G05
T1
X2.2953Y-1.4197
X2.2953Y-1.5197
X2.2953Y-1.6197
X2.2953Y-1.7197
X2.2953Y-1.8197
X2.2953Y-1.9197
X2.2953Y-2.0197
X2.2953Y-2.1197
X2.2953Y-2.2197
X2.2953Y-2.3197
X2.2953Y-2.4197
X2.2953Y-2.5197
X2.2953Y-2.6197
X2.2953Y-2.7197
X2.2953Y-2.8197
X3.2953Y-1.4197
X3.2953Y-1.5197
X3.2953Y-1.6197
X3.2953Y-1.7197
X3.2953Y-1.8197
X3.2953Y-1.9197
X3.2953Y-2.0197
X3.2953Y-2.1197
X3.2953Y-2.2197
X3.2953Y-2.3197
X3.2953Y-2.4197
X3.2953Y-2.5197
X3.2953Y-2.6197
X3.2953Y-2.7197
X3.2953Y-2.8197
T2
X1.4961Y-1.5551
X1.4961Y-1.752
X1.5614Y-3.0709
X1.5646Y-3.3071
X1.5685Y-2.126
X1.5717Y-1.8898
X1.622Y-2.5346
X1.622Y-2.6346
X1.622Y-2.7346
X1.622Y-2.8346
X1.811Y-2.3228
X1.922Y-2.5346
X1.922Y-2.6346
X1.922Y-2.7346
X1.922Y-2.8346
X1.9614Y-3.0709
X1.9646Y-3.3071
X1.9685Y-2.126
X1.9717Y-1.8898
X2.0079Y-2.3228
X2.0472Y-1.5551
X2.0472Y-1.752
X2.126Y-1.8835
X2.126Y-2.2835
X2.126Y-2.3984
X2.126Y-2.7984
T3
X1.6717Y-1.6555
X1.7717Y-1.6555
X1.8717Y-1.6555
T4
X1.2205Y-1.5748
X1.2205Y-1.7717
X1.2205Y-2.0669
X1.2205Y-2.2638
X1.2205Y-2.5394
X1.2205Y-2.7362
T0
M30
