%TF.GenerationSoftware,KiCad,Pcbnew,7.0.0*%
%TF.CreationDate,2023-02-24T19:45:49+01:00*%
%TF.ProjectId,afzuiging-pcb,61667a75-6967-4696-9e67-2d7063622e6b,0*%
%TF.SameCoordinates,Original*%
%TF.FileFunction,Soldermask,Top*%
%TF.FilePolarity,Negative*%
%FSLAX46Y46*%
G04 Gerber Fmt 4.6, Leading zero omitted, Abs format (unit mm)*
G04 Created by KiCad (PCBNEW 7.0.0) date 2023-02-24 19:45:49*
%MOMM*%
%LPD*%
G01*
G04 APERTURE LIST*
%ADD10C,1.600000*%
%ADD11C,4.300000*%
%ADD12O,1.600000X1.600000*%
%ADD13C,2.500000*%
%ADD14R,2.500000X2.500000*%
%ADD15R,1.600000X1.600000*%
%ADD16R,1.524000X1.524000*%
%ADD17C,1.524000*%
%ADD18O,3.500000X3.500000*%
%ADD19R,1.905000X2.000000*%
%ADD20O,1.905000X2.000000*%
G04 APERTURE END LIST*
D10*
%TO.C,C1*%
X51000000Y-59000000D03*
X46000000Y-59000000D03*
%TD*%
D11*
%TO.C,REF\u002A\u002A*%
X32000000Y-28000000D03*
%TD*%
%TO.C,REF\u002A\u002A*%
X32000000Y-83000000D03*
%TD*%
%TO.C,REF\u002A\u002A*%
X87000000Y-83000000D03*
%TD*%
%TO.C,REF\u002A\u002A*%
X87000000Y-28000000D03*
%TD*%
D10*
%TO.C,R6*%
X54000000Y-60920000D03*
D12*
X53999999Y-71079999D03*
%TD*%
D13*
%TO.C,J1*%
X31000000Y-40000000D03*
D14*
X30999999Y-44999999D03*
%TD*%
D10*
%TO.C,R3*%
X54000000Y-58000000D03*
D12*
X53999999Y-47839999D03*
%TD*%
D14*
%TO.C,J3*%
X30999999Y-69499999D03*
D13*
X31000000Y-64500000D03*
%TD*%
D10*
%TO.C,R4*%
X49820000Y-78000000D03*
D12*
X39659999Y-77999999D03*
%TD*%
D10*
%TO.C,R1*%
X39920000Y-48000000D03*
D12*
X50079999Y-47999999D03*
%TD*%
D15*
%TO.C,U4*%
X41199999Y-64379999D03*
D12*
X41199999Y-66919999D03*
X41199999Y-69459999D03*
X41199999Y-71999999D03*
X48819999Y-71999999D03*
X48819999Y-69459999D03*
X48819999Y-66919999D03*
X48819999Y-64379999D03*
%TD*%
D10*
%TO.C,C2*%
X38000000Y-44500000D03*
X38000000Y-39500000D03*
%TD*%
D14*
%TO.C,J2*%
X30999999Y-57499999D03*
D13*
X31000000Y-52500000D03*
%TD*%
D16*
%TO.C,U2*%
X58299999Y-36059999D03*
D17*
X58300000Y-38600000D03*
X58300000Y-41140000D03*
X58300000Y-43680000D03*
X58300000Y-46220000D03*
X58300000Y-48760000D03*
X58300000Y-51300000D03*
X58300000Y-53840000D03*
X58300000Y-56380000D03*
X58300000Y-58920000D03*
X58300000Y-61460000D03*
X58300000Y-64000000D03*
X58300000Y-66540000D03*
X58300000Y-69080000D03*
X58300000Y-71620000D03*
X83700000Y-71620000D03*
X83700000Y-69080000D03*
X83700000Y-66540000D03*
X83700000Y-64000000D03*
X83700000Y-61460000D03*
X83700000Y-58920000D03*
X83700000Y-56380000D03*
X83700000Y-53840000D03*
X83700000Y-51300000D03*
X83700000Y-48760000D03*
X83700000Y-46220000D03*
X83700000Y-43680000D03*
X83700000Y-41140000D03*
X83700000Y-38600000D03*
X83700000Y-36060000D03*
%TD*%
D10*
%TO.C,R2*%
X50000000Y-54000000D03*
D12*
X39839999Y-53999999D03*
%TD*%
D10*
%TO.C,C3*%
X52000000Y-39500000D03*
X52000000Y-44500000D03*
%TD*%
D18*
%TO.C,U3*%
X44999999Y-26249999D03*
D19*
X42459999Y-42049999D03*
D20*
X44999999Y-42049999D03*
X47539999Y-42049999D03*
%TD*%
D10*
%TO.C,R5*%
X39740000Y-84000000D03*
D12*
X49899999Y-83999999D03*
%TD*%
M02*
